<svg width="257" height="257" viewBox="0 0 257 257" fill="none" xmlns="http://www.w3.org/2000/svg">
<g clip-path="url(#clip0_726_1426)">
<mask id="mask0_726_1426" style="mask-type:luminance" maskUnits="userSpaceOnUse" x="0" y="0" width="257" height="257">
<path d="M0 0H257V257H0V0Z" fill="white"/>
</mask>
<g mask="url(#mask0_726_1426)">
<path d="M225.946 237.886C218.587 229.241 206.346 221.531 173.118 224.084C139.89 226.637 104.43 228.41 97.6838 225.036C90.937 221.662 75.7733 220.129 70.0801 226.702C64.3868 233.274 28.4125 225.802 31.2921 237.648C44.4205 248.854 62.871 251.162 67.9384 251.212C73.0058 251.262 95.3041 256.447 128.619 256.447C161.934 256.447 160.486 251.49 178.829 252.402C197.173 253.313 208.325 244.609 225.946 237.886Z" fill="#9DDC6A"/>
<path d="M26.1345 11.598C26.1345 8.60433 27.9234 6.93359 30.8309 6.93359H102.454C105.361 6.93359 107.488 8.60433 107.488 11.598V19.4492H26.1345V11.598Z" fill="#84ACD1"/>
<path d="M107.488 19.4482V115.091C107.488 118.086 105.361 120.967 102.454 120.967H30.8309C27.9234 120.967 26.1345 118.086 26.1345 115.091V19.4482H107.488Z" fill="white"/>
<path d="M37.6551 33.4671H97.4836C97.8558 33.4671 98.1594 33.1634 98.1594 32.7902C98.1594 32.4181 97.8558 32.1133 97.4836 32.1133H37.6551C37.2829 32.1133 36.9793 32.4181 36.9793 32.7902C36.9793 33.1634 37.2829 33.4671 37.6551 33.4671Z" fill="#48C1A0"/>
<path d="M62.2635 38.5433H97.7013C98.0745 38.5433 98.3782 38.2396 98.3782 37.8664C98.3782 37.4942 98.0745 37.1895 97.7013 37.1895H62.2635C61.8914 37.1895 61.5866 37.4942 61.5866 37.8664C61.5866 38.2396 61.8914 38.5433 62.2635 38.5433Z" fill="#48C1A0"/>
<path d="M62.2635 43.7327H97.7013C98.0745 43.7327 98.3782 43.4279 98.3782 43.0558C98.3782 42.6837 98.0745 42.3789 97.7013 42.3789H62.2635C61.8914 42.3789 61.5866 42.6837 61.5866 43.0558C61.5866 43.4279 61.8914 43.7327 62.2635 43.7327Z" fill="#48C1A0"/>
<path d="M79.3718 55.9209L79.077 104.488L31.9198 104.187" stroke="#F7D260" stroke-width="6.88643" stroke-miterlimit="10"/>
<path d="M65.5575 100.268L72.5806 100.313L72.7683 69.3129L65.7441 69.2676L65.5575 100.268Z" fill="#48C1A0"/>
<path d="M52.0117 100.181L59.0348 100.227L59.2578 63.5797L52.2325 63.5322L52.0117 100.181Z" fill="#48C1A0"/>
<path d="M39.4717 100.102L46.4948 100.146L46.7576 56.5316L39.7334 56.4863L39.4717 100.102Z" fill="#48C1A0"/>
<path d="M142.895 47.9557C142.895 44.6573 145.554 42.0977 148.758 42.0977H227.645C230.847 42.0977 233.266 44.6573 233.266 47.9557V56.6495H142.895V47.9557Z" fill="#84ACD1"/>
<path d="M233.265 56.6484V102.737C233.265 106.035 230.847 108.727 227.644 108.727H148.756C145.553 108.727 142.895 106.035 142.895 102.737V56.6484H233.265Z" fill="white"/>
<path d="M157.424 82.6887C157.404 81.156 157.393 81.7457 157.393 81.4343C157.393 73.9651 163.262 67.7459 170.515 67.7459C170.759 67.7459 171.231 67.5891 171.231 67.6035V82.6887H157.424Z" fill="#DF6262"/>
<path d="M172.763 84.2196V69.1719C180.422 69.5606 185.172 75.4573 185.172 82.6747C185.172 90.1439 179.296 96.5088 172.044 96.5088C165.095 96.5088 159.41 91.1123 158.948 84.2196H172.763Z" fill="#48C1A0"/>
<path d="M190.12 72.0425H222.289C222.699 72.0425 223.034 71.7068 223.034 71.2971C223.034 70.8875 222.699 70.5518 222.289 70.5518H190.12C189.71 70.5518 189.375 70.8875 189.375 71.2971C189.375 71.7068 189.71 72.0425 190.12 72.0425Z" fill="#48C1A0"/>
<path d="M203.659 77.6333H222.41C222.821 77.6333 223.156 77.2976 223.156 76.888C223.156 76.4783 222.821 76.1426 222.41 76.1426H203.659C203.249 76.1426 202.915 76.4783 202.915 76.888C202.915 77.2976 203.249 77.6333 203.659 77.6333Z" fill="#48C1A0"/>
<path d="M203.659 83.3504H222.41C222.821 83.3504 223.156 83.0147 223.156 82.605C223.156 82.1942 222.821 81.8574 222.41 81.8574H203.659C203.249 81.8574 202.915 82.1942 202.915 82.605C202.915 83.0147 203.249 83.3504 203.659 83.3504Z" fill="#48C1A0"/>
<path d="M129.221 73.858C127.707 70.6613 126.928 61.5277 125.038 56.8829C122.862 51.5293 118.602 50.4214 114.712 50.7283C113.741 50.4035 112.63 50.2772 111.532 50.2485C106.75 50.12 101.825 51.6226 98.9431 55.3383C91.7625 64.5983 93.828 77.5589 89.3145 87.9834C85.2122 97.4642 73.5654 108.04 83.2377 117.828C91.3291 126.016 108.6 129.694 119.348 125.786C129.974 121.923 135.729 110.684 136.122 99.9809C136.481 90.1801 133.33 82.5264 129.221 73.858Z" fill="#C0440B"/>
<path d="M148.254 122.603C148.254 122.603 149.837 122.3 150.463 121.54C151.093 120.78 151.461 120.445 153.62 119.572C155.761 118.702 156.633 117.521 156.633 117.521C156.633 117.521 158.078 118.918 154.786 120.387C152.772 121.289 159.311 121.322 161.284 121.149C161.284 121.149 162.405 121.8 160.499 122.664C158.592 123.528 160.402 123.641 156.64 125.116C152.877 126.593 148.438 127.304 147.594 125.035C146.754 122.765 148.254 122.603 148.254 122.603Z" fill="#FFBB9F"/>
<path d="M122.547 109.119C122.547 109.119 126.442 130.846 128.443 132.087C130.054 133.088 142.693 129.338 147.49 127.86C148.631 127.511 149.33 127.285 149.33 127.285L148.655 121.72L145.96 122.014L132.541 123.479C132.541 123.479 128.61 101.4 125.375 101.047C122.141 100.693 122.547 109.119 122.547 109.119Z" fill="#5F1EC4"/>
<path d="M102.479 134.809C102.182 133.491 96.4023 99.9899 96.4023 99.9899C96.4023 99.9899 114.294 95.2145 125.509 100.752L117.317 135.49L102.479 134.809Z" fill="#5F1EC4"/>
<path d="M102.049 117.837C102.049 117.837 115.36 119.568 119.114 116.903C119.114 116.903 114.223 127.828 102.049 117.837Z" fill="#032733"/>
<path d="M97.7602 240.377C98.2616 243.928 94.1407 246.102 90.9596 245.46C89.6641 245.199 87.3847 242.011 88.4181 240.936C89.5138 239.797 90.4588 238.595 91.3195 237.367C91.9707 236.456 92.5793 235.532 93.1834 234.608C93.4816 234.147 93.3868 233.675 93.6882 233.217C93.3139 230.084 93.1414 226.969 92.1193 223.819L92.1404 223.009L100.326 223.224C99.3051 226.511 98.0209 230.04 96.4063 233.484C96.4825 233.739 96.5531 234.204 96.6255 234.477C96.703 234.767 96.7732 235.165 96.8438 235.465C97.2585 237.178 97.58 239.117 97.7602 240.377Z" fill="#EFA98F"/>
<path d="M90.9597 245.46C89.6642 245.198 87.3849 242.011 88.4182 240.936C89.514 239.797 90.459 238.595 91.3196 237.367C91.9709 236.456 92.5794 235.533 93.1835 234.608C94.0969 234.953 95.3305 235.173 96.6205 234.677C96.6979 234.968 96.7719 235.265 96.8414 235.564C97.256 237.278 97.5801 239.118 97.7604 240.377C98.2617 243.928 94.142 246.102 90.9597 245.46Z" fill="#393C45"/>
<path d="M100.07 234.474C99.9601 235.423 98.3919 235.958 97.6608 236.246C96.9699 236.518 96.0407 236.821 95.2753 236.647C95.7295 236.809 96.0878 237.131 96.2456 237.687C96.2848 237.834 96.1256 238.009 95.9727 237.943C95.3029 237.663 94.8356 237.242 94.061 237.251C93.4124 237.259 92.769 237.403 92.1218 237.317C91.983 237.299 91.8848 237.085 92.0489 237.017C92.6744 236.757 93.6639 236.468 94.5344 236.51C94.265 236.336 93.7793 236.07 93.7087 236.025C93.2538 235.722 92.7897 235.432 92.3588 235.098C91.5489 234.473 91.2079 233.954 91.7404 232.939C92.3334 231.804 93.7209 231.296 94.6841 232.394C95.5594 233.392 95.3907 234.306 95.0763 235.348C95.9306 234.614 96.7827 233.964 97.9596 233.733C98.5859 233.608 100.197 233.369 100.07 234.474ZM94.3766 235.829C94.5786 235.286 94.8618 234.721 94.8779 234.149C94.9 233.387 94.2979 232.251 93.3903 232.277C92.6298 232.298 91.9311 233.165 91.9771 233.939C91.9948 234.231 92.4297 234.497 92.6367 234.649C92.8178 234.781 93.7516 235.312 94.3766 235.829ZM97.4206 234.491C96.5435 234.747 95.8507 235.385 95.1667 235.986C95.9279 236.152 96.6909 235.951 97.433 235.665C98.0222 235.435 99.1151 235.083 99.4259 234.479C99.6621 234.021 97.6577 234.423 97.4206 234.491Z" fill="#032733"/>
<path d="M95.5144 239.966C95.2913 238.32 92.4411 238.329 91.2784 238.604C91.1228 238.64 91.1145 238.875 91.2702 238.919C91.9434 239.113 92.6545 239.122 93.339 239.262C94.0884 239.416 94.5403 239.874 95.1924 240.199C95.369 240.288 95.5414 240.159 95.5144 239.966Z" fill="#032733"/>
<path d="M94.5527 240.921C94.0432 240.51 93.111 240.379 92.4798 240.228C91.7464 240.054 91.1156 240.142 90.4332 240.427C90.2723 240.496 90.3795 240.748 90.5408 240.706C91.2937 240.51 92.0422 240.74 92.7481 240.993C93.2865 241.186 93.9009 241.555 94.4773 241.395C94.7111 241.327 94.7204 241.057 94.5527 240.921Z" fill="#032733"/>
<path d="M101.856 136.5C101.856 136.5 90.4698 158.837 92.9934 230.939C92.9934 230.939 97.6195 232.039 99.0993 231.589C99.0993 231.589 114.06 169.375 111.649 137.89L101.856 136.5Z" fill="#EAB509"/>
<path d="M116.69 240.872C116.005 244.392 120.006 246.779 123.216 246.304C124.524 246.111 126.967 243.047 125.991 241.92C124.956 240.725 124.075 239.475 123.279 238.203C122.676 237.26 122.117 236.305 121.564 235.351C121.288 234.875 120.776 234.392 120.498 233.919C121.035 230.81 121.842 227.72 121.924 224.599L121.945 223.789L115.028 223.608C115.872 226.944 116.971 230.536 118.402 234.059C118.314 234.31 118.22 234.771 118.134 235.04C118.04 235.326 117.948 235.719 117.862 236.015C117.359 237.704 116.936 239.624 116.69 240.872Z" fill="#EFA98F"/>
<path d="M123.217 246.304C124.525 246.111 126.968 243.046 125.992 241.92C124.957 240.725 124.076 239.475 123.28 238.203C122.677 237.26 122.117 236.306 121.564 235.35C120.632 235.647 119.388 235.803 118.129 235.239C118.036 235.526 117.944 235.819 117.859 236.114C117.356 237.804 116.935 239.625 116.69 240.872C116.005 244.392 120.006 246.779 123.217 246.304Z" fill="#393C45"/>
<path d="M116.84 234.226C118.002 234.52 118.818 235.212 119.635 235.991C119.375 234.932 119.253 234.011 120.18 233.061C121.197 232.015 122.559 232.595 123.093 233.758C123.569 234.801 123.204 235.301 122.361 235.883C121.911 236.194 121.436 236.459 120.966 236.737C120.894 236.778 120.393 237.02 120.115 237.179C120.987 237.183 121.96 237.523 122.57 237.816C122.73 237.892 122.622 238.1 122.484 238.11C121.831 238.164 121.197 237.985 120.547 237.944C119.777 237.893 119.287 238.289 118.603 238.535C118.446 238.592 118.296 238.409 118.344 238.264C118.531 237.717 118.903 237.415 119.365 237.278C118.593 237.412 117.683 237.059 117.007 236.753C116.292 236.426 114.752 235.81 114.691 234.855C114.62 233.746 116.218 234.069 116.84 234.226ZM122.107 235.419C122.322 235.279 122.77 235.035 122.803 234.746C122.888 233.974 122.238 233.073 121.48 233.011C120.572 232.938 119.913 234.041 119.894 234.803C119.88 235.374 120.133 235.955 120.307 236.508C120.957 236.024 121.919 235.542 122.107 235.419ZM115.335 234.895C115.614 235.514 116.687 235.922 117.263 236.183C117.989 236.508 118.744 236.749 119.51 236.623C118.862 235.986 118.199 235.314 117.337 235.013C117.105 234.93 115.124 234.426 115.335 234.895Z" fill="#032733"/>
<path d="M118.953 240.579C119.264 238.946 122.109 239.105 123.257 239.441C123.411 239.485 123.406 239.72 123.248 239.755C122.566 239.914 121.855 239.886 121.163 239.989C120.408 240.104 119.932 240.538 119.265 240.829C119.083 240.908 118.918 240.77 118.953 240.579Z" fill="#032733"/>
<path d="M119.865 241.583C120.393 241.199 121.332 241.118 121.972 241C122.713 240.865 123.338 240.986 124.004 241.306C124.161 241.383 124.04 241.629 123.881 241.579C123.142 241.344 122.381 241.534 121.662 241.749C121.114 241.914 120.483 242.251 119.916 242.061C119.684 241.98 119.689 241.711 119.865 241.583Z" fill="#032733"/>
<path d="M118.036 136.923C118.036 136.923 128.237 159.825 121.945 231.696C121.945 231.696 117.266 232.553 115.811 232.026C115.811 232.026 104.129 169.115 108.183 137.799L118.036 136.923Z" fill="#EAB509"/>
<path d="M101.186 137.923C101.186 137.923 109.499 140.639 118.102 137.509L118.3 134.16C118.3 134.16 113.901 135.355 110.194 135.038C106.489 134.724 101.483 133.936 101.483 133.936L101.186 137.923Z" fill="#8F99B6"/>
<path d="M103.249 133.329C103.249 133.329 101.691 138.753 102.983 139.442C104.276 140.13 105.055 139.864 105.055 139.864L105.202 133.819L103.249 133.329Z" fill="#D3D3D3"/>
<path d="M116.73 133.245C116.73 133.245 117.48 138.378 116.34 139.301C114.8 140.546 114.742 139.503 114.742 139.503L114.752 133.63L116.73 133.245Z" fill="#D3D3D3"/>
<path d="M112.95 134.128L112.39 138.811L107.699 138.579C107.699 138.579 107.586 134.533 107.603 133.88L112.95 134.128ZM111.941 135.157L108.447 135.066L108.491 137.619L111.651 137.894L111.941 135.157Z" fill="#EAEAEA"/>
<path d="M111.559 101.264C109.868 101.22 107.246 100.638 107.29 98.9461L107.874 93.3201L108.382 88.4001C108.426 86.7067 109.834 85.3738 111.524 85.4181C112.368 85.4402 113.125 85.8035 113.664 86.371C114.204 86.9386 114.529 87.7137 114.507 88.5604L114.75 93.5067L114.987 98.2495C115.403 101.12 111.559 101.264 111.559 101.264Z" fill="#D7826C"/>
<path d="M124.802 73.6316C124.802 73.6316 128.587 68.731 129.524 73.5552C130.267 77.3967 126.776 80.1177 124.684 79.3494C122.592 78.5876 124.802 73.6316 124.802 73.6316Z" fill="#EFA98F"/>
<path d="M124.741 74.5207C124.741 74.5207 127.412 71.4358 128.035 72.9367C128.66 74.4344 128.219 76.1726 128.219 76.1726C128.219 76.1726 128.003 74.1708 126.4 75.0534C126.4 75.0534 127.436 78.3624 124.664 77.0438C124.664 77.0438 123.595 75.9223 124.741 74.5207Z" fill="#D7826C"/>
<path d="M98.0516 72.9318C98.0516 72.9318 94.5263 67.84 93.3411 72.6086C92.3944 76.4058 95.7374 79.3057 97.8688 78.6479C99.9968 77.9967 98.0516 72.9318 98.0516 72.9318Z" fill="#EFA98F"/>
<path d="M98.0649 73.8226C98.0649 73.8226 95.5599 70.6022 94.8587 72.0685C94.1555 73.5314 94.5038 75.2902 94.5038 75.2902C94.5038 75.2902 94.8275 73.3026 96.3819 74.2679C96.3819 74.2679 95.1701 77.5181 98.0065 76.3463C98.0065 76.3463 99.1368 75.2823 98.0649 73.8226Z" fill="#D7826C"/>
<path d="M98.4933 78.8074C98.4819 79.2446 98.1227 79.5887 97.6878 79.5773C97.2529 79.5659 96.9089 79.2034 96.9203 78.7663C96.9316 78.3336 97.2941 77.9896 97.7291 78.0009C98.164 78.0123 98.5047 78.3747 98.4933 78.8074Z" fill="white"/>
<path d="M125.391 79.0936C125.38 79.5296 125.02 79.8726 124.582 79.8611C124.151 79.8498 123.806 79.4884 123.817 79.0524C123.829 78.6186 124.192 78.2757 124.624 78.287C125.061 78.2984 125.403 78.6598 125.391 79.0936Z" fill="white"/>
<path d="M119.185 62.8665C117.646 60.9285 116.237 58.648 115.098 56.1947C110.817 62.1106 104.629 67.9821 98.4011 70.003C98.1611 71.6194 98.0281 73.2806 97.9848 74.9353C97.7322 84.5854 108.183 90.3159 112.501 90.5084C115.228 90.6295 124.367 85.2826 124.619 75.6325C124.693 72.8253 124.488 69.991 123.923 67.3671C122.162 66.097 120.557 64.5936 119.185 62.8665Z" fill="#EFA98F"/>
<path d="M106.633 136.918C106.628 137.055 106.51 137.202 106.37 137.184C104.793 136.976 103.616 135.722 102.046 135.94C103.593 136.76 104.912 138.144 104.667 140.125C104.638 140.372 104.401 140.464 104.224 140.307C103.131 139.325 101.861 138.436 100.354 138.717C99.7058 138.836 98.9475 139.064 98.2829 138.964C97.2949 138.814 96.4711 138.34 95.9994 137.37C95.1731 135.683 95.5477 133.697 97.5067 133.34C97.5533 133.331 97.594 133.338 97.6323 133.352C98.3573 133.086 99.0234 132.748 99.6139 132.131C100.19 131.533 100.726 130.876 101.349 130.327C102.178 129.589 103.073 129.021 104.134 129.557C104.293 129.636 104.273 129.865 104.173 129.985C103.687 130.559 103.119 131.102 102.527 131.621C103.109 131.5 103.698 131.451 104.294 131.515C105.364 131.636 106.609 132.381 106.548 133.655C106.539 133.816 106.425 133.911 106.283 133.921C105.296 133.999 104.304 133.954 103.32 134.029C104.837 134.519 106.7 135.085 106.633 136.918Z" fill="#FFBB9F"/>
<path d="M96.5579 100.166C96.5579 100.166 80.3215 115.716 79.0749 123.672C79.0749 123.672 81.3632 128.247 95.6263 137.235L97.0167 133.574C97.0167 133.574 89.1739 124.078 86.4248 121.657C86.4248 121.657 99.367 111.518 99.1468 108.536C98.931 105.553 98.3278 100.367 96.5579 100.166Z" fill="#5F1EC4"/>
</g>
</g>
<defs>
<clipPath id="clip0_726_1426">
<rect width="257" height="257" fill="white" transform="matrix(-1 0 0 1 257 0)"/>
</clipPath>
</defs>
</svg>
