<svg width="299" height="234" viewBox="0 0 299 234" fill="none" xmlns="http://www.w3.org/2000/svg">
<g clip-path="url(#clip0_726_1533)">
<mask id="mask0_726_1533" style="mask-type:luminance" maskUnits="userSpaceOnUse" x="-32" y="0" width="299" height="234">
<path d="M267 0H-32V234H267V0Z" fill="white"/>
</mask>
<g mask="url(#mask0_726_1533)">
</g>
<mask id="mask1_726_1533" style="mask-type:luminance" maskUnits="userSpaceOnUse" x="-32" y="0" width="299" height="234">
<path d="M267 0H-32V234H267V0Z" fill="white"/>
</mask>
<g mask="url(#mask1_726_1533)">
<path d="M247.286 135.731C247.286 150.897 242.808 165.023 235.083 176.841C229.366 185.61 221.868 193.12 213.094 198.839C211.9 199.627 210.679 200.369 209.44 201.084C209.394 201.111 209.349 201.138 209.304 201.165C202.637 204.975 195.329 207.798 187.586 209.427C182.557 210.486 177.347 211.046 172.001 211.046C166.655 211.046 161.445 210.486 156.415 209.427C147.605 207.572 139.365 204.178 131.993 199.545C131.893 199.482 131.794 199.419 131.694 199.355C124.503 194.785 118.135 189.03 112.862 182.352C105.689 173.258 100.56 162.462 98.1904 150.662C97.2137 145.839 96.707 140.844 96.707 135.731C96.707 123.171 99.7825 111.325 105.228 100.91C107.688 96.1862 110.637 91.7614 114.02 87.6893V87.6802C114.128 87.5444 114.237 87.4087 114.363 87.2729C114.373 87.2638 114.373 87.2638 114.373 87.2638C115.901 85.436 117.52 83.6804 119.23 82.0063C119.311 81.9158 119.402 81.8344 119.492 81.7621C120.686 80.5857 121.907 79.4634 123.183 78.3776C123.192 78.3776 123.192 78.3776 123.192 78.3776C128.926 73.4821 135.412 69.437 142.449 66.4328C142.775 66.288 143.101 66.1522 143.435 66.0165H143.445C149.451 63.555 155.846 61.8359 162.512 61.0034C165.624 60.6052 168.79 60.4062 172.001 60.4062C176.288 60.4062 180.503 60.7683 184.592 61.465C185.84 61.664 187.08 61.9082 188.301 62.1797C188.482 62.2159 188.662 62.2614 188.843 62.2976C189.793 62.5147 190.734 62.7498 191.665 63.0123C198.657 64.8945 205.243 67.7629 211.267 71.4459C232.876 84.694 247.286 108.529 247.286 135.731Z" fill="#B8B9FD"/>
<path d="M112.438 118.222L112.747 118.318L112.438 118.413L112.343 118.722L112.248 118.413L111.938 118.318L112.248 118.222L112.343 117.913L112.438 118.222Z" fill="#FEF1E4"/>
<path d="M237.143 120.825C237.143 120.834 237.136 120.842 237.127 120.842C237.118 120.842 237.11 120.834 237.11 120.825C237.11 120.816 237.118 120.809 237.127 120.809C237.136 120.809 237.143 120.816 237.143 120.825Z" fill="#FF470C"/>
<path d="M79.3267 37.8057H135.65C138.634 37.8057 141.053 40.2254 141.053 43.2103V54.9395C141.053 57.9244 138.634 60.3442 135.65 60.3442H119.936L121.282 72.0734L112.633 60.3442H79.3267C76.3431 60.3442 73.9243 57.9244 73.9243 54.9395V43.2103C73.9243 40.2254 76.3431 37.8057 79.3267 37.8057Z" fill="#FFD484"/>
<path d="M132.238 44.9274H81.6609V43.0791H132.238V44.9274Z" fill="#FEF1E4"/>
<path d="M132.238 49.317H81.6609V47.4688H132.238V49.317Z" fill="#FEF1E4"/>
<path d="M132.238 53.7067H81.6609V51.8584H132.238V53.7067Z" fill="#FEF1E4"/>
<path d="M138.083 45.443C138.934 44.0193 140.322 42.9831 141.933 42.5901C148.571 40.9719 155.513 40.3241 162.07 42.0928C169.676 44.1445 176.622 50.0312 178.088 57.7745C178.655 60.7723 178.397 63.8618 178.017 66.889C177.963 67.3207 177.912 67.783 178.111 68.1693C178.344 68.6185 178.847 68.8418 179.304 69.0594C184.15 71.3716 187.204 76.6579 187.574 82.0164C187.945 87.375 185.891 92.7117 182.662 97.0039C180.678 99.6424 178.207 101.976 175.235 103.412C173.289 104.352 171.169 104.89 169.041 105.263C165.692 105.85 162.291 106.082 158.89 106.084C151.917 106.087 144.402 106.297 138.058 103.133C131.951 100.087 127.552 93.9976 126.189 87.309C124.827 80.6204 126.409 73.4583 130.129 67.7364C130.289 67.4901 128.576 63.1392 128.476 62.4465C127.977 58.9689 128.789 55.2676 130.661 52.2375C131.598 50.721 132.823 49.2463 134.271 48.1908C134.728 47.8582 137.363 46.1859 137.851 46.7121C137.575 46.4149 137.782 45.9458 138.083 45.443Z" fill="#FF470C"/>
<path d="M166.811 42.0562C168.012 40.0646 169.632 38.2318 171.765 37.3038C173.901 36.3736 176.455 36.4615 178.523 37.5358C180.592 38.6101 182.132 40.6497 182.601 42.9331C184.974 40.2541 188.782 40.3038 192.13 41.5681C195.477 42.8324 197.92 46.1239 198.327 49.6801C198.735 53.2366 197.168 56.9186 194.431 59.2249C196.807 59.078 199.266 60.5428 200.35 62.663C201.434 64.7832 201.422 67.3477 200.702 69.617C199.56 73.2118 196.639 76.1931 193.07 77.4076C188.749 78.8778 183.83 77.7454 180.044 75.196C176.258 72.6466 173.485 68.828 171.369 64.7827C168.078 58.4894 167.092 49.1532 166.811 42.0562Z" fill="#FF470C"/>
<mask id="mask2_726_1533" style="mask-type:alpha" maskUnits="userSpaceOnUse" x="96" y="60" width="152" height="152">
<path d="M247.286 135.731C247.286 150.897 242.808 165.023 235.083 176.841C229.366 185.61 221.868 193.12 213.094 198.839C211.9 199.627 210.679 200.369 209.44 201.084C209.394 201.111 209.349 201.138 209.304 201.165C202.637 204.975 195.329 207.798 187.586 209.427C182.557 210.486 177.347 211.046 172.001 211.046C166.655 211.046 161.445 210.486 156.415 209.427C147.605 207.572 139.365 204.178 131.993 199.545C131.893 199.482 131.794 199.419 131.694 199.355C124.503 194.785 118.135 189.03 112.862 182.352C105.689 173.258 100.56 162.462 98.1904 150.662C97.2137 145.839 96.707 140.844 96.707 135.731C96.707 123.171 99.7825 111.325 105.228 100.91C107.688 96.1862 110.637 91.7614 114.02 87.6893V87.6802C114.128 87.5444 114.237 87.4087 114.363 87.2729C114.373 87.2638 114.373 87.2638 114.373 87.2638C115.901 85.436 117.52 83.6804 119.23 82.0063C119.311 81.9158 119.402 81.8344 119.492 81.7621C120.686 80.5857 121.907 79.4634 123.183 78.3776C123.192 78.3776 123.192 78.3776 123.192 78.3776C128.926 73.4821 135.412 69.437 142.449 66.4328C142.775 66.288 143.101 66.1522 143.435 66.0165H143.445C149.451 63.555 155.846 61.8359 162.512 61.0034C165.624 60.6052 168.79 60.4062 172.001 60.4062C176.288 60.4062 180.503 60.7683 184.592 61.465C185.84 61.664 187.08 61.9082 188.301 62.1797C188.482 62.2159 188.662 62.2614 188.843 62.2976C189.793 62.5147 190.734 62.7498 191.665 63.0123C198.657 64.8945 205.243 67.7629 211.267 71.4459C232.876 84.694 247.286 108.529 247.286 135.731Z" fill="#B8B9FD"/>
</mask>
<g mask="url(#mask2_726_1533)">
<path d="M233.655 206.883L210.062 209.245L207.767 198.835L204.396 183.576C204.396 183.576 198.571 166.324 198.469 152.866C198.365 138.912 204.012 128.765 205.649 130.555C214.734 140.504 222.318 156.2 227.463 174.755C229.702 182.788 231.416 191.302 232.507 200.032L233.655 206.883Z" fill="#FFD484"/>
</g>
<path d="M56.5279 127.714L54.0233 117.308L70.9085 103.685C70.9085 103.685 75.0899 91.7929 76.979 92.0354C78.868 92.2779 77.7564 105.552 76.7113 109.514C75.6661 113.475 73.5354 123.032 73.5354 123.032C73.5354 123.032 74.6025 129.256 66.0221 130.845C58.5386 132.231 56.5279 127.714 56.5279 127.714Z" fill="#FFB4DC"/>
<path d="M69.5934 84.9374C69.5934 84.9374 56.0652 111.994 56.8372 112.792C57.6093 113.59 64.1954 117.082 66.3292 115.909C68.4628 114.736 77.6592 87.5327 77.6592 87.5327L69.5934 84.9374Z" fill="#FEF1E4"/>
<path d="M101.186 74.4427C101.601 80.598 99.6282 96.8014 94.1032 97.2986C89.1372 97.7478 73.8713 91.0949 62.3481 89.3114C61.0861 89.1141 59.8583 88.9764 58.703 88.9122C47.9591 88.3305 26.6572 90.9252 14.7827 96.6061C13.9315 97.0095 13.0219 97.1657 12.1406 97.0645C11.6787 97.0408 11.2172 96.9266 10.7854 96.7554C9.84341 96.3878 9.02331 95.722 8.45524 94.8025C6.40434 91.4879 4.36906 82.1243 5.61032 70.9175C7.21168 56.4726 10.1418 42.0322 15.2506 36.2214C16.6277 34.6421 18.7777 34.2562 20.5821 34.9574C20.9504 35.0995 21.3043 35.2937 21.636 35.5266C22.0085 35.7857 22.3598 36.1153 22.659 36.5003C25.6877 40.403 30.2692 47.5766 36.7944 52.1596C44.2596 57.1922 56.8685 62.7263 68.8829 65.2808C71.4518 65.825 74.0253 66.3323 76.5668 66.7976C90.9785 69.4427 100.771 68.2875 101.186 74.4427Z" fill="#FEF1E4"/>
<path d="M21.3585 52.8982C21.2824 54.7276 21.195 56.5565 21.1459 58.3798C21.071 62.4733 20.7685 66.5448 20.0469 70.5387C19.5614 73.1368 18.9148 75.6948 18.1964 78.2226C17.9839 78.9904 17.8622 79.748 17.6642 80.5175C16.8065 83.877 14.9975 93.6768 12.1427 97.0624C11.6807 97.0387 11.2192 96.9245 10.7874 96.7533C9.84525 96.3856 9.02502 95.7197 8.45686 94.8002C6.40562 91.4852 4.36998 82.1207 5.61136 70.9129C7.21288 56.4666 10.1434 42.0249 15.2529 36.2136C16.6302 34.6342 18.7824 34.2435 20.5852 34.9495C21.6486 39.4169 21.5285 48.5243 21.3585 52.8982Z" fill="#B8B9FD"/>
<path d="M106.889 85.6841C106.525 87.3123 105.235 88.6581 103.687 89.2872C102.975 89.5808 102.2 89.7361 101.429 89.7632C100.54 89.7954 99.6322 89.6656 98.7825 89.4106C98.6785 85.4322 100.022 82.3677 100.821 78.4742C100.989 78.5091 101.148 78.5447 101.316 78.5796C102.863 78.9527 104.342 79.6804 105.427 80.8459C106.625 82.1258 107.28 83.9707 106.889 85.6841Z" fill="#FFD484"/>
<g opacity="0.46">
<path d="M101.43 89.7634C100.541 89.7956 99.6329 89.6657 98.783 89.4107C98.6789 85.432 100.022 82.3671 100.821 78.4733C100.989 78.5082 101.148 78.5442 101.316 78.5791C101.942 82.2683 101.987 86.0621 101.43 89.7634Z" fill="#B8B9FD"/>
</g>
<path d="M101.186 74.4472C101.601 80.6024 99.6279 96.8061 94.1028 97.3034C92.5622 97.4488 90.0203 96.9014 86.9117 96.0292C86.8455 96.0098 86.7705 95.9912 86.6945 95.9637C85.8849 95.7403 85.035 95.4856 84.156 95.2157C84.0898 95.1963 84.0149 95.1776 83.9386 95.1502C77.392 93.1621 69.2031 90.3752 62.3471 89.3166C63.8347 87.6378 64.9201 85.56 65.7766 83.4728C68.1256 77.7384 69.1926 71.4811 68.8825 65.286C71.4515 65.8302 74.025 66.3374 76.5666 66.8026C81.4736 67.7084 85.8456 68.1676 89.4968 68.6204C89.5707 68.63 89.6448 68.6391 89.7187 68.6487C90.9306 68.8063 92.0592 68.9556 93.0914 69.1344C93.1653 69.144 93.2397 69.1536 93.3147 69.1719C98.109 69.9727 100.966 71.1843 101.186 74.4472Z" fill="#FFD484"/>
<path d="M93.3148 69.1716C93.6396 75.8756 92.6658 82.6144 90.4346 88.9639C89.4117 91.8818 88.2604 94.1769 86.9118 96.0305C86.8456 96.0111 86.7707 95.9924 86.6946 95.965C88.0442 94.1202 89.1852 91.8174 90.2251 88.8885C92.4497 82.5579 93.4235 75.8194 93.0915 69.1343C93.1654 69.1439 93.2399 69.1532 93.3148 69.1716Z" fill="#FEF1E4"/>
<path d="M89.7191 68.6476C89.8795 77.749 87.9558 86.9506 84.1551 95.2167C84.0889 95.1973 84.014 95.1789 83.9377 95.1515C87.7408 86.9034 89.6642 77.7019 89.4971 68.6193C89.571 68.6289 89.6451 68.6379 89.7191 68.6476Z" fill="#FEF1E4"/>
<path d="M21.1456 58.3801C21.1292 59.4863 21.0925 60.5849 21.0268 61.6871C20.8792 64.6653 20.5729 67.6233 20.0465 70.5385C19.5609 73.1366 18.9143 75.6947 18.1959 78.2225C17.8256 77.9828 17.3471 77.659 16.8138 77.2716C14.666 75.7076 11.7129 73.1339 11.7593 70.852C11.8355 67.2667 12.8843 61.3191 14.494 60.2203C15.533 59.5017 18.8897 58.8028 21.1456 58.3801Z" fill="white"/>
<g opacity="0.32">
<path d="M21.0265 61.6883C20.8792 64.6665 20.573 67.6243 20.0469 70.5395C19.5616 73.1375 18.9152 75.6957 18.197 78.2234C17.8267 77.9837 17.3487 77.6588 16.8148 77.2722C18.7963 72.2798 20.2871 67.0229 21.0265 61.6883Z" fill="#B8B9FD"/>
</g>
<path d="M61.7287 95.345C61.7287 95.345 62.1333 90.8775 65.7461 91.4397C69.1333 91.9669 72.1744 99.5384 71.1651 103.041C71.0388 103.479 70.7294 103.838 70.3332 104.063C69.9258 104.295 69.3637 104.542 68.8541 104.507C68.8541 104.507 69.4381 106.997 67.8999 107.76C66.3617 108.523 65.9771 108.219 65.9771 108.219C65.9771 108.219 67.2457 111.094 65.5963 112.393C63.9468 113.693 62.8302 113.592 62.8302 113.592C62.8302 113.592 63.7615 115.576 62.1323 116.059C60.5031 116.542 57.5309 114.508 57.5309 114.508L54.0227 117.306C54.0227 117.306 49.8019 106.639 53.6607 104.846C53.6607 104.846 53.8119 100.699 57.8904 100.276C57.8904 100.276 57.5795 95.6601 61.7287 95.345Z" fill="#FFB4DC"/>
<path d="M61.7273 95.3451C61.7273 95.3451 61.7571 91.8134 64.8921 91.4435C68.0272 91.0735 69.9259 95.3471 70.4816 97.1035C71.0373 98.8603 73.0392 104.013 68.8529 104.507" stroke="#040308" stroke-width="0.82" stroke-linecap="round" stroke-linejoin="round"/>
<path d="M57.8899 100.276C57.8899 100.276 57.7334 97.1348 59.5077 96.0725C61.2821 95.0102 62.6268 95.2394 63.9111 96.5998C65.0802 97.8382 65.9969 99.3131 66.9225 100.736C67.965 102.338 69.8224 105.16 68.5186 107.062C67.9525 107.888 66.9264 108.164 65.9769 108.22" stroke="#040308" stroke-width="0.82" stroke-linecap="round" stroke-linejoin="round"/>
<path d="M53.6611 104.846C53.6611 104.846 53.6866 102.265 55.4945 101.159C57.3025 100.055 58.7307 100.002 60.2263 101.183C61.7219 102.363 64.1172 104.601 65.1024 106.384C65.6707 107.413 66.0902 108.562 66.3003 109.719C66.4589 110.592 66.4422 111.573 65.8682 112.301C65.2366 113.101 64.024 113.528 63.0274 113.452" stroke="#040308" stroke-width="0.82" stroke-linecap="round" stroke-linejoin="round"/>
<path d="M53.7228 116.722C53.7228 116.722 50.2809 107.242 53.0311 105.25C55.7813 103.259 58.9999 107.221 59.7713 108.177C60.5427 109.133 63.2038 112.967 63.1162 114.528C63.0286 116.089 61.6679 116.715 58.8296 114.995C55.9914 113.275 55.085 111.831 55.085 111.831" stroke="#040308" stroke-width="0.82" stroke-linecap="round" stroke-linejoin="round"/>
<path d="M119.778 131.02L81.7896 149.132C81.7896 149.132 70.5388 153.654 64.2688 161.554C57.6836 169.852 56.2609 181.597 64.9128 183.737C81.8024 187.914 120.053 174.281 120.053 174.281C120.053 174.281 134.811 164.636 132.788 138.645C131.77 125.57 119.778 131.02 119.778 131.02Z" fill="#FFD484"/>
<path d="M77.1583 147.105L74.6136 123.332L56.1679 126.519C56.1679 126.519 48.6374 182.508 65.9742 183.953C83.3109 185.399 77.1583 147.105 77.1583 147.105Z" fill="#FFD484"/>
<mask id="mask3_726_1533" style="mask-type:alpha" maskUnits="userSpaceOnUse" x="96" y="60" width="152" height="152">
<path d="M247.286 135.731C247.286 150.897 242.808 165.023 235.083 176.841C229.366 185.61 221.868 193.12 213.094 198.839C211.9 199.627 210.679 200.369 209.44 201.084C209.394 201.111 209.349 201.138 209.304 201.165C202.637 204.975 195.329 207.798 187.586 209.427C182.557 210.486 177.347 211.046 172.001 211.046C166.655 211.046 161.445 210.486 156.415 209.427C147.605 207.572 139.365 204.178 131.993 199.545C131.893 199.482 131.794 199.419 131.694 199.355C124.503 194.785 118.135 189.03 112.862 182.352C105.689 173.258 100.56 162.462 98.1904 150.662C97.2137 145.839 96.707 140.844 96.707 135.731C96.707 123.171 99.7825 111.325 105.228 100.91C107.688 96.1862 110.637 91.7614 114.02 87.6893V87.6802C114.128 87.5444 114.237 87.4087 114.363 87.2729C114.373 87.2638 114.373 87.2638 114.373 87.2638C115.901 85.436 117.52 83.6804 119.23 82.0063C119.311 81.9158 119.402 81.8344 119.492 81.7621C120.686 80.5857 121.907 79.4634 123.183 78.3776C123.192 78.3776 123.192 78.3776 123.192 78.3776C128.926 73.4821 135.412 69.437 142.449 66.4328C142.775 66.288 143.101 66.1522 143.435 66.0165H143.445C149.451 63.555 155.846 61.8359 162.512 61.0034C165.624 60.6052 168.79 60.4062 172.001 60.4062C176.288 60.4062 180.503 60.7683 184.592 61.465C185.84 61.664 187.08 61.9082 188.301 62.1797C188.482 62.2159 188.662 62.2614 188.843 62.2976C189.793 62.5147 190.734 62.7498 191.665 63.0123C198.657 64.8945 205.243 67.7629 211.267 71.4459C232.876 84.694 247.286 108.529 247.286 135.731Z" fill="#B8B9FD"/>
</mask>
<g mask="url(#mask3_726_1533)">
<path d="M142.993 98.7905L143.699 112.283L168.335 110.865L169.962 85.4359L142.993 98.7905Z" fill="#FFB4DC"/>
<path d="M143.148 101.742L143.514 108.726C146.849 109.105 149.603 108.837 152.149 108.063C160.017 105.671 166.46 100.259 167.515 91.6944C160.536 96.9558 152.058 100.436 143.148 101.742Z" fill="#040308"/>
<path d="M201.882 183.487L200.841 194.415L200.863 201.409C194.405 205.563 187.253 208.765 179.606 210.797L148.477 212.43C139.581 211.039 131.174 208.082 123.57 203.842L122.112 178.42L121.478 167.344L120.6 152.467L119.429 132.521C119.429 132.521 119.567 132.396 119.827 132.164C120.988 131.152 124.557 128.056 128.774 124.673C133.451 120.93 138.934 116.836 142.79 114.867L143.168 106.692C143.168 106.692 143.254 106.769 143.424 106.906C143.944 107.322 145.28 108.267 147.295 108.877L147.305 108.886C149.053 109.41 151.324 109.699 154.051 109.184C157.863 108.468 161.972 106.675 164.876 105.218C167.215 104.044 168.768 103.093 168.768 103.093L168.821 103.235L169.244 104.382L171.73 111.038C171.73 111.038 178.406 112.428 186.451 116.265C189.22 117.587 192.148 119.192 195.022 121.134C198.712 123.623 202.304 126.66 205.349 130.324C213.953 140.692 201.882 183.487 201.882 183.487Z" fill="#FFD484"/>
<path d="M200.844 194.415L200.996 201.321C200.953 201.35 200.909 201.38 200.865 201.409C201.474 208.899 204.569 224.932 191.125 231.453C166 243.641 137.405 235.609 133.436 233.806C124.691 229.832 123.485 215.064 123.569 203.843C123.57 203.725 123.364 203.728 123.261 203.669L122.024 178.472L121.478 167.346L120.6 152.468L119.935 134.924L119.935 134.906L119.827 132.166C120.988 131.154 124.558 128.058 128.775 124.674L130.457 144.539C131.618 158.233 144.153 168.059 157.718 165.906C157.988 165.865 158.266 165.814 158.545 165.772C168.628 164.065 176.351 155.858 177.76 145.726C179.075 136.243 181.615 124.194 186.454 116.265C189.223 117.588 192.152 119.192 195.025 121.134C192.649 127.847 187.38 144.524 187.472 159.95C187.589 179.843 200.844 194.415 200.844 194.415Z" fill="#0060FF"/>
<path d="M130.016 168.364C130.087 169.723 129.043 170.882 127.684 170.954C126.326 171.025 125.167 169.981 125.095 168.622C125.024 167.263 126.068 166.103 127.427 166.032C128.786 165.961 129.945 167.005 130.016 168.364Z" stroke="#FEF1E4" stroke-width="0.82" stroke-miterlimit="10"/>
<path d="M183.829 165.542C183.901 166.902 182.857 168.061 181.498 168.132C180.139 168.204 178.98 167.16 178.909 165.801C178.838 164.442 179.882 163.282 181.241 163.211C182.599 163.139 183.758 164.183 183.829 165.542Z" stroke="#FEF1E4" stroke-width="0.82" stroke-miterlimit="10"/>
<path d="M135.963 172.992L176.709 170.853C176.709 170.853 179.187 191.697 157.968 192.811C134.443 194.045 135.963 172.992 135.963 172.992Z" stroke="#FEF1E4" stroke-width="0.82" stroke-miterlimit="10"/>
</g>
<path d="M136.387 100.523C147.682 107.651 165.142 104.61 169.648 90.1635C171.598 83.898 172.75 78.9489 173.428 75.3592C173.825 73.267 174.052 71.6341 174.194 70.4717C174.554 68.8985 174.771 67.2752 174.796 65.6103C174.983 53.0142 164.872 42.6514 152.213 42.4623C147.009 42.3846 142.193 44.0352 138.302 46.8839C134.958 49.3323 132.302 52.6724 130.701 56.4994C128.866 60.8858 128.958 65.5122 128.843 70.1658C128.758 73.6478 128.694 77.1134 128.923 80.5962C129.326 86.7139 130.131 94.516 134.675 99.1294C135.193 99.6557 135.762 100.129 136.387 100.523Z" fill="#FFB4DC"/>
<path d="M148.345 77.6049C148.329 78.7243 149.101 79.6435 150.071 79.658C151.041 79.6725 151.841 78.7768 151.857 77.6574C151.874 76.5381 151.101 75.6188 150.132 75.6044C149.162 75.5899 148.362 76.4856 148.345 77.6049Z" fill="#040308"/>
<path d="M132.338 76.8461C132.321 77.9655 133.094 78.8847 134.064 78.8992C135.033 78.9137 135.833 78.018 135.85 76.8986C135.867 75.7793 135.094 74.8601 134.124 74.8456C133.154 74.8311 132.354 75.7268 132.338 76.8461Z" fill="#040308"/>
<path d="M138.102 88.9792C138.576 90.0162 139.3 91.1883 140.444 91.0329C141.695 90.8628 142.138 89.3058 142.452 88.1068L138.102 88.9792Z" fill="white"/>
<path d="M138.975 72.4566C138.98 75.17 138.636 77.8832 137.955 80.5097C137.839 80.9572 137.706 81.4164 137.413 81.7738C137.123 82.1274 136.698 82.3531 136.422 82.718C135.937 83.3603 136.036 84.3015 136.446 84.9948C136.856 85.6881 137.517 86.1895 138.161 86.6725" stroke="#040308" stroke-width="1.744" stroke-linecap="round" stroke-linejoin="round"/>
<path d="M150.515 72.5299C153.255 72.374 151.631 69.2631 149.602 69.588C148.881 69.7033 147.671 70.5921 147.681 71.4107C147.693 72.4932 149.705 72.5757 150.515 72.5299Z" fill="#FF470C"/>
<path d="M133.007 72.5002C130.273 72.2626 131.989 69.2013 134.007 69.5866C134.724 69.7234 135.907 70.6482 135.873 71.4662C135.828 72.5479 133.815 72.5702 133.007 72.5002Z" fill="#FF470C"/>
<path d="M175.938 72.0897C177.791 72.4081 179.381 73.7684 180.187 75.4679C180.992 77.1678 181.06 79.1613 180.594 80.9834C179.539 85.1079 175.611 88.3206 171.36 88.5366C170.288 88.5909 169.167 88.4587 168.257 87.8888C167.038 87.1249 166.38 85.6656 166.281 84.2297C166.182 82.7938 166.572 81.369 167.06 80.0152C168.448 76.1675 170.907 71.2254 175.938 72.0897Z" fill="#FFB4DC"/>
<path d="M176.228 77.8832C175.18 78.1435 174.255 78.7774 173.492 79.5412C172.729 80.305 172.111 81.1987 171.497 82.0873" stroke="#040308" stroke-width="1.874" stroke-linecap="round" stroke-linejoin="round"/>
<path d="M143.575 41.8982C139.649 42.694 136.802 46.1585 136.959 50.1624C137.013 51.5345 137.262 52.9065 137.674 54.2089C138.262 56.0672 139.184 57.8582 140.595 59.202C142.773 61.2762 146.079 62.0833 148.968 61.2461C148.634 66.6708 151.76 72.0653 156.487 74.744C161.214 77.4228 169.025 76.8992 173.14 73.3506C175.128 71.6356 175.184 69.1555 175.301 66.5535C175.436 63.5394 175.04 60.5202 174.07 57.6632C172.755 53.7896 170.771 50.004 167.661 47.3293C165.548 45.5116 162.999 44.2759 160.408 43.2498C155.226 41.1978 149.162 40.7657 143.575 41.8982Z" fill="#FF470C"/>
<path d="M265.99 152.076V211.122H188.398V152.076C188.398 148.574 191.23 145.742 194.73 145.742H259.658C263.159 145.742 265.99 148.574 265.99 152.076Z" fill="#FEF1E4"/>
<path d="M265.99 152.076V157.75H188.398V152.076C188.398 148.574 191.23 145.742 194.73 145.742H259.658C263.159 145.742 265.99 148.574 265.99 152.076Z" fill="#FFB4DC"/>
<path d="M247.299 152.13C247.299 153.194 246.437 154.056 245.374 154.056C244.311 154.056 243.45 153.194 243.45 152.13C243.45 151.067 244.311 150.205 245.374 150.205C246.437 150.205 247.299 151.067 247.299 152.13Z" fill="#FF470C"/>
<path d="M253.457 152.13C253.457 153.194 252.595 154.056 251.533 154.056C250.47 154.056 249.608 153.194 249.608 152.13C249.608 151.067 250.47 150.205 251.533 150.205C252.595 150.205 253.457 151.067 253.457 152.13Z" fill="#FFD484"/>
<path d="M259.836 152.13C259.836 153.194 258.974 154.056 257.911 154.056C256.848 154.056 255.987 153.194 255.987 152.13C255.987 151.067 256.848 150.205 257.911 150.205C258.974 150.205 259.836 151.067 259.836 152.13Z" fill="#B8B9FD"/>
<path d="M194.17 204.192H256.218L261.607 191.716" stroke="#040308" stroke-width="3.279" stroke-linecap="round" stroke-linejoin="round"/>
<path d="M258.373 194.373L261.953 190.561L261.722 195.297" stroke="#040308" stroke-width="3.279" stroke-linecap="round" stroke-linejoin="round"/>
<path d="M213.947 201.265H197.711V166.763H213.947V201.265Z" fill="#B8B9FD"/>
<path d="M234.027 201.265H217.792V171.846H234.027V201.265Z" fill="#FFD484"/>
<path d="M254.678 201.265H238.443V177.391H254.678V201.265Z" fill="#FFB4DC"/>
<path d="M162.069 180.201C162.069 201.892 145.421 219.477 124.886 219.477C104.351 219.477 87.7036 201.892 87.7036 180.201C87.7036 158.509 104.351 140.925 124.886 140.925C145.421 140.925 162.069 158.509 162.069 180.201Z" fill="#0060FF"/>
<path d="M164.84 180.201C164.84 201.892 148.193 219.477 127.658 219.477C107.122 219.477 90.4751 201.892 90.4751 180.201C90.4751 158.509 107.122 140.925 127.658 140.925C148.193 140.925 164.84 158.509 164.84 180.201Z" fill="#FF470C"/>
<path d="M157.672 180.201C157.672 197.711 144.234 211.905 127.658 211.905C111.081 211.905 97.6428 197.711 97.6428 180.201C97.6428 162.691 111.081 148.496 127.658 148.496C144.234 148.496 157.672 162.691 157.672 180.201Z" fill="#FEF1E4"/>
<path d="M148.713 180.2C148.713 192.484 139.286 202.441 127.658 202.441C116.029 202.441 106.602 192.484 106.602 180.2C106.602 167.917 116.029 157.96 127.658 157.96C139.286 157.96 148.713 167.917 148.713 180.2Z" fill="#FF470C"/>
<path d="M138.499 180.2C138.499 186.525 133.645 191.652 127.658 191.652C121.67 191.652 116.817 186.525 116.817 180.2C116.817 173.876 121.67 168.749 127.658 168.749C133.645 168.749 138.499 173.876 138.499 180.2Z" fill="#FEF1E4"/>
<path d="M150.906 179.393L153.985 174.926L165.533 174.311L159.836 179.547L163.685 185.246L153.831 184.63L150.906 179.393Z" fill="#B8B9FD"/>
<path d="M129.043 179.624H162.069" stroke="#040308" stroke-width="3.279" stroke-linecap="round" stroke-linejoin="round"/>
</g>
</g>
<defs>
<clipPath id="clip0_726_1533">
<rect width="299" height="234" fill="white"/>
</clipPath>
</defs>
</svg>
