<svg width="1446" height="1332" viewBox="0 0 1446 1332" fill="none" xmlns="http://www.w3.org/2000/svg">
<path d="M194.679 847.229C117.075 847.229 57.534 813.11 27.429 751.562L106.371 708.746C121.089 737.513 148.518 760.259 193.341 760.259C249.537 760.259 287.67 720.788 287.67 655.895V649.874C269.607 672.62 237.495 690.014 190.665 690.014C97.674 690.014 23.415 617.762 23.415 519.419C23.415 423.752 101.019 345.479 202.707 345.479C306.402 345.479 382.668 419.738 382.668 519.419V653.219C382.668 770.963 302.388 847.229 194.679 847.229ZM201.369 600.368C248.868 600.368 286.332 564.911 286.332 517.412C286.332 469.913 248.868 435.125 201.369 435.125C154.539 435.125 117.075 469.913 117.075 517.412C117.075 564.911 154.539 600.368 201.369 600.368ZM606.02 694.697C502.994 694.697 425.39 623.114 425.39 517.412C425.39 421.745 494.966 342.803 597.323 342.803C702.356 342.803 763.235 420.407 763.235 510.722V538.82H517.043C523.733 582.974 557.852 612.41 605.351 612.41C641.477 612.41 671.582 595.016 686.969 564.242L759.89 601.037C731.123 660.578 676.265 694.697 606.02 694.697ZM521.057 485.969H668.906C664.892 451.85 636.794 425.759 596.654 425.759C555.176 425.759 527.747 452.519 521.057 485.969ZM983.325 695.366C887.658 695.366 840.159 637.832 840.159 554.876V435.125H779.28V354.845H840.159V270.551H935.157V354.845H1052.23V435.125H935.157V552.2C935.157 588.995 957.234 610.403 992.022 610.403C1011.42 610.403 1036.18 604.382 1052.23 594.347V679.31C1035.51 690.014 1006.74 695.366 983.325 695.366Z" fill="black"/>
<path d="M538.138 1233.53H443.14V914.419C443.14 814.738 519.406 740.479 622.432 740.479C724.789 740.479 801.724 819.421 801.724 914.419C801.724 1018.11 730.81 1090.37 627.784 1090.37C594.334 1090.37 562.891 1078.32 538.138 1059.59V1233.53ZM622.432 1000.72C671.269 1000.72 706.726 961.918 706.726 915.088C706.726 868.258 671.269 830.125 622.432 830.125C573.595 830.125 538.138 868.258 538.138 915.088C538.138 961.918 573.595 1000.72 622.432 1000.72ZM940.113 1081H845.115V891.004C845.115 806.041 893.283 741.148 991.626 741.148C1013.03 741.148 1036.45 745.162 1053.17 752.521V844.843C1037.12 835.477 1017.72 830.794 1000.32 830.794C962.859 830.794 940.113 854.878 940.113 894.349V1081ZM1242.41 1089.7C1140.72 1089.7 1063.11 1010.75 1063.11 914.419C1063.11 818.752 1141.39 739.81 1242.41 739.81C1344.76 739.81 1422.37 819.421 1422.37 914.419C1422.37 1010.75 1344.09 1089.7 1242.41 1089.7ZM1242.41 1000.72C1291.24 1000.72 1327.37 961.918 1327.37 915.088C1327.37 868.258 1291.24 829.456 1242.41 829.456C1193.57 829.456 1158.11 868.258 1158.11 915.088C1158.11 961.918 1193.57 1000.72 1242.41 1000.72Z" fill="black"/>
<path fill-rule="evenodd" clip-rule="evenodd" d="M1415 514.5C1415 515.803 1414.99 517.103 1414.96 518.4H1415V654.9C1415 678.593 1395.79 697.8 1372.1 697.8C1351.78 697.8 1334.76 683.672 1330.32 664.702C1303.83 680.758 1272.74 690 1239.5 690C1142.57 690 1064 611.426 1064 514.5C1064 417.574 1142.57 339 1239.5 339C1336.43 339 1415 417.574 1415 514.5ZM1239.5 596.4C1284.73 596.4 1321.4 559.732 1321.4 514.5C1321.4 469.268 1284.73 432.6 1239.5 432.6C1194.27 432.6 1157.6 469.268 1157.6 514.5C1157.6 559.732 1194.27 596.4 1239.5 596.4Z" fill="#8338EC"/>
</svg>
