<svg width="181" height="180" viewBox="0 0 181 180" fill="none" xmlns="http://www.w3.org/2000/svg">
<g clip-path="url(#clip0_726_618)">
<mask id="mask0_726_618" style="mask-type:luminance" maskUnits="userSpaceOnUse" x="0" y="0" width="181" height="180">
<path d="M181 0H0V180H181V0Z" fill="white"/>
</mask>
<g mask="url(#mask0_726_618)">
<path d="M26.6044 86.3108C-8.71301 106.246 -8.71289 138.568 26.6049 158.503C61.9227 178.439 119.184 178.439 154.501 158.504C189.819 138.568 189.819 106.247 154.501 86.3111C119.183 66.3756 61.922 66.3755 26.6044 86.3108Z" fill="#EFEFEF"/>
<path d="M131.417 113.609L118.83 106.397C118.388 106.143 118.388 105.732 118.83 105.478L134.894 96.2459C135.336 95.9923 136.052 95.9923 136.494 96.2459L149.082 103.459C149.523 103.712 149.523 104.123 149.082 104.377L133.017 113.609C132.575 113.863 131.859 113.863 131.417 113.609Z" fill="#DFDFDF"/>
<path d="M33.3268 146.961L2.68895 129.37C2.25114 129.118 2.25114 128.711 2.68895 128.46L50.6776 100.906C51.1154 100.655 51.8254 100.655 52.2632 100.906L82.9011 118.498C83.3389 118.749 83.3389 119.157 82.9011 119.408L34.9121 146.961C34.4743 147.212 33.7645 147.212 33.3268 146.961Z" fill="#DFDFDF"/>
<path d="M37.3661 144.168L44.4505 148.235C44.9807 148.54 45.8401 148.54 46.3702 148.235L134.489 97.6409C135.019 97.3365 135.019 96.8432 134.489 96.5387L127.349 92.4391C126.818 92.1348 125.959 92.1349 125.429 92.4395L37.3659 143.065C36.8359 143.37 36.8361 143.863 37.3661 144.168Z" fill="#DFDFDF"/>
<path d="M174.491 115.702C183.577 120.825 183.577 129.132 174.491 134.255C165.404 139.379 150.673 139.379 141.587 134.255C132.501 129.132 132.501 120.825 141.587 115.702C150.673 110.579 165.405 110.578 174.491 115.702Z" fill="#DFDFDF"/>
<path d="M7.34253 127.595L33.7226 142.551L77.3026 117.679L50.9253 103.079L7.34253 127.595Z" fill="black"/>
<path d="M34.0233 141.415L8.57642 126.892C9.24117 125.016 9.19127 122.827 8.43896 120.329L33.7231 134.698C33.7231 134.698 34.2061 136.283 34.0233 141.415Z" fill="white"/>
<path d="M33.7229 134.698L8.43872 120.329C8.6647 121.079 8.81487 121.797 8.90376 122.487L34.0003 136.896C33.909 135.379 33.7229 134.698 33.7229 134.698Z" fill="#EBEBEB"/>
<path d="M32.4245 132.648C33.7749 133.418 34.8694 135.293 34.8694 136.834V141.725C34.8694 143.266 33.7749 143.891 32.4245 143.12L7.34553 128.807L7.34253 127.596L32.0865 141.628C32.8968 142.09 33.5529 141.716 33.552 140.791L33.5291 136.258C33.5283 135.334 32.8707 134.209 32.0605 133.747L7.34553 119.708V118.335L32.4245 132.648Z" fill="#253138"/>
<path d="M7.3457 118.337L50.9259 93.8223L76.0028 107.777C77.3522 108.547 78.4476 110.423 78.4476 111.963L78.4486 116.855C78.4472 117.622 78.1763 118.163 77.7314 118.417L34.151 143.289C34.5959 143.035 34.8666 142.494 34.868 141.726L34.872 136.832C34.872 135.292 33.7765 133.416 32.427 132.646L7.3457 118.337Z" fill="#455A63"/>
<path d="M34.1556 134.45C34.5979 135.208 34.8719 136.062 34.8718 136.832L34.8679 141.726C34.8665 142.494 34.5958 143.035 34.1509 143.289L77.7313 118.417C78.1762 118.163 78.4471 117.622 78.4485 116.854L78.4474 111.963C78.4474 111.193 78.1736 110.339 77.7311 109.581L34.1556 134.45Z" fill="#37464F"/>
<path d="M7.27197 115.193L33.8141 130.286L74.2182 107.226L47.6786 92.4893L7.27197 115.193Z" fill="#8338EC"/>
<path d="M7.27197 115.193L33.8141 130.286L74.2182 107.226L47.6786 92.4893L7.27197 115.193Z" fill="white"/>
<path d="M7.27197 115.193L33.8141 130.286L74.2182 107.226L47.6786 92.4893L7.27197 115.193Z" fill="#219884"/>
<path d="M34.0928 129.232L8.41583 114.54C9.03212 112.801 8.98582 110.772 8.28833 108.456L33.8146 123.005C33.8146 123.005 34.2624 124.474 34.0928 129.232Z" fill="white"/>
<path d="M33.8147 123.005L8.28857 108.456C8.51455 109.206 8.66485 109.923 8.75361 110.614L34.0784 125.154C33.9871 123.637 33.8147 123.005 33.8147 123.005Z" fill="#EBEBEB"/>
<path d="M32.6107 121.104C33.8627 121.819 34.8775 123.556 34.8775 124.985V129.52C34.8775 130.948 33.8627 131.528 32.6107 130.813L7.27473 116.317L7.27197 115.193L32.2975 129.43C33.0486 129.859 33.657 129.511 33.6561 128.654L33.6346 124.452C33.634 123.594 33.0245 122.552 32.2732 122.123L7.27473 107.88V106.607L32.6107 121.104Z" fill="#8338EC"/>
<path d="M7.2749 106.61L47.6794 83.9072L73.013 98.0456C74.2643 98.7597 75.2798 100.498 75.2798 101.927L75.2808 106.462C75.2794 107.174 75.0284 107.675 74.6159 107.911L34.2113 130.97C34.6239 130.735 34.8749 130.233 34.8763 129.521L34.8797 124.984C34.8797 123.556 33.8641 121.817 32.613 121.103L7.2749 106.61Z" fill="#8338EC"/>
<path d="M34.2155 122.775C34.6258 123.477 34.8799 124.269 34.8799 124.983L34.8762 129.521C34.8748 130.232 34.6238 130.734 34.2112 130.969L74.6158 107.91C75.0284 107.675 75.2795 107.173 75.2808 106.461L75.2798 101.926C75.2798 101.212 75.026 100.42 74.6158 99.7178L34.2155 122.775Z" fill="#8338EC"/>
<path d="M34.2155 122.775C34.6258 123.477 34.8799 124.269 34.8799 124.983L34.8762 129.52C34.8748 130.232 34.6238 130.734 34.2112 130.969L74.6158 107.91C75.0284 107.675 75.2795 107.173 75.2808 106.461L75.2798 101.926C75.2798 101.212 75.026 100.42 74.6158 99.7178L34.2155 122.775Z" fill="white"/>
<path d="M2.67749 104.629L29.4636 119.937L69.8677 96.8777L43.084 81.9258L2.67749 104.629Z" fill="#8338EC"/>
<path d="M29.7424 118.882L3.82135 103.976C4.43764 102.237 4.39134 100.565 3.69385 98.249L29.4642 113.013C29.4642 113.013 29.912 114.125 29.7424 118.882Z" fill="white"/>
<path d="M29.4641 113.012L3.69385 98.249C3.91983 98.9994 4.07012 99.7165 4.15888 100.407L29.7226 115.085C29.6313 113.568 29.4641 113.012 29.4641 113.012Z" fill="#EBEBEB"/>
<path d="M28.2601 111.112C29.5122 111.826 30.527 113.564 30.527 114.993L30.5269 119.17C30.5269 120.599 29.5122 121.179 28.2601 120.464L2.68025 105.753L2.67749 104.629L27.9468 119.081C28.698 119.509 29.3064 119.162 29.3056 118.304L29.2841 114.459C29.2834 113.602 28.6738 112.559 27.9227 112.131L2.68013 97.6734V96.4004L28.2601 111.112Z" fill="#8338EC"/>
<path d="M2.68018 96.4033L43.0848 73.3438L68.6623 88.0542C69.9135 88.7683 70.9293 90.5071 70.9293 91.9353L70.93 96.1129C70.9287 96.8247 70.6778 97.3265 70.2653 97.5619L29.8606 120.621C30.2731 120.386 30.5242 119.884 30.5255 119.172L30.5291 114.992C30.5291 113.564 29.5134 111.825 28.2622 111.111L2.68018 96.4033Z" fill="#8338EC"/>
<path d="M29.8649 112.784C30.2753 113.487 30.5292 114.279 30.5292 114.993L30.5255 119.173C30.5241 119.885 30.2731 120.387 29.8606 120.622L70.2652 97.5625C70.6778 97.327 70.9288 96.8252 70.9301 96.1134L70.9292 91.9357C70.9292 91.2217 70.6753 90.43 70.2651 89.7275L29.8649 112.784Z" fill="#219884"/>
<path d="M15.2612 101.338C18.8025 104.066 25.595 104.684 30.4327 102.717C35.2704 100.751 36.3024 96.9421 32.7377 94.2105C29.173 91.4787 22.3804 90.8612 17.5662 92.8311C12.7519 94.8008 11.72 98.6094 15.2612 101.338Z" fill="#219884"/>
<path d="M20.0281 79.1443C18.0162 79.2591 14.5155 79.527 12.3353 83.9879C9.85211 89.0684 12.3355 95.392 16.1472 98.0591C20.9355 101.41 28.4427 101.611 32.8641 97.6055C37.7529 93.1768 38.1121 84.7804 34.7757 81.1088C31.4391 77.4372 26.3048 78.4787 24.9666 79.0427C22.9572 79.8895 21.5946 79.055 20.0281 79.1443Z" fill="#8338EC"/>
<path d="M17.9398 80.9244C16.6415 80.8137 14.7575 81.9582 13.7714 83.7157C12.5461 85.8994 12.3919 88.9819 12.773 91.2237C13.5417 95.7453 17.9378 98.1175 18.3631 97.7332C18.7885 97.3486 15.5954 94.3938 17.3535 89.8944C19.1374 85.3287 20.0664 81.1057 17.9398 80.9244Z" fill="white"/>
<path d="M16.9369 81.6542C15.6148 82.0985 14.0842 84.1999 13.6852 85.6878C13.2863 87.1756 13.4817 88.187 13.6852 88.3614C14.0512 88.6747 16.7353 86.0657 17.6082 84.8942C18.8451 83.2341 19.0678 80.9379 16.9369 81.6542Z" fill="white"/>
<path d="M22.1199 83.0139C21.4146 82.454 20.7507 82.1721 20.398 83.0139C20.0455 83.8558 21.9258 85.1796 24.0078 84.5733C26.0899 83.9672 26.81 82.6185 26.7649 81.9365C26.7649 81.9365 25.8261 83.4164 24.4298 83.5867C23.4651 83.7044 22.4857 83.3044 22.1199 83.0139Z" fill="#8338EC"/>
<path d="M22.1199 83.0139C21.4146 82.454 20.7507 82.1721 20.398 83.0139C20.0455 83.8558 21.9258 85.1796 24.0078 84.5733C26.0899 83.9672 26.81 82.6185 26.7649 81.9365C26.7649 81.9365 25.8261 83.4164 24.4298 83.5867C23.4651 83.7044 22.4857 83.3044 22.1199 83.0139Z" fill="black"/>
<path d="M24.0081 84.0439C24.0081 84.0439 24.0138 81.036 23.0692 78.3842C22.1247 75.7325 20.4614 73.8742 20.0098 73.67C19.5579 73.4657 18.7981 73.3149 17.7304 73.329C16.6625 73.3432 15.3894 74.0579 15.7386 74.4663C16.0876 74.8747 17.6277 75.1812 19.4963 76.9169C21.3649 78.6526 23.1487 82.0268 23.1513 84.0439C23.1513 84.0439 23.5298 84.3093 24.0081 84.0439Z" fill="#37464F"/>
<path d="M19.9315 73.6386C19.8975 73.6246 19.8651 73.6103 19.8278 73.597C19.8242 73.5957 19.8201 73.5945 19.8164 73.5932C19.3537 73.4294 18.6588 73.3167 17.7302 73.3291C16.9418 73.3396 16.0433 73.7319 15.7667 74.1008C15.6939 74.2539 15.9284 74.4603 16.8834 74.5943C17.8424 74.7287 18.8371 74.6427 19.6919 74.3327C20.1074 74.1821 20.2678 73.816 19.9315 73.6386Z" fill="#455A63"/>
<path d="M22.6187 80.6991C21.7768 78.3064 19.227 76.3127 17.4797 75.4307C18.0645 75.7651 18.7535 76.227 19.4963 76.9171C21.3649 78.6528 23.1487 82.027 23.1513 84.0439C23.1513 84.0439 23.5299 84.3095 24.0081 84.0439C24.0081 84.0439 24.0087 83.3193 23.8989 82.2702C23.8456 83.245 23.3946 82.9042 22.6187 80.6991Z" fill="black"/>
<path d="M23.5025 79.8747C24.7934 80.1307 26.9346 79.6644 28.1581 78.0623C29.6283 76.1372 28.6703 73.6345 28.6703 73.6345C28.6703 73.6345 26.3636 73.1138 24.5691 74.9118C23.2599 76.2234 23.0814 78.7601 23.5025 79.8747Z" fill="#8338EC"/>
<path d="M23.5025 79.8748C24.7934 80.1308 26.9346 79.6644 28.1581 78.0623C29.6283 76.1372 28.6703 73.6345 28.6703 73.6345C28.6703 73.6345 26.3636 73.1139 24.5691 74.9119C23.2599 76.2235 23.0814 78.7602 23.5025 79.8748Z" fill="#219884"/>
<path d="M28.6703 73.6345C28.6703 73.6345 26.3636 73.1139 24.5691 74.9119C23.2599 76.2235 23.0814 78.7602 23.5025 79.8748C24.6996 76.1712 28.6703 73.6345 28.6703 73.6345Z" fill="black"/>
<path d="M27.0554 73.9814C25.1274 74.3766 23.7689 75.8727 23.6357 77.8739C23.6357 77.8739 24.2073 76.3568 24.9574 75.5707C26.0853 74.3888 27.0554 73.9814 27.0554 73.9814Z" fill="#8338EC"/>
<path d="M132.288 9.53977L42.1819 61.2792V131.827L42.1922 144.507L41.3963 144.05L40.1467 143.333V60.1125L130.253 8.37305L131.803 9.26076L132.288 9.53977Z" fill="#E6E6E6"/>
<path d="M132.288 9.53906V80.092L45.2271 130.076L43.197 131.243L42.6921 131.532L42.1922 131.816L42.1819 131.826V61.2785L132.288 9.53906Z" fill="#EFEFEF"/>
<path d="M130.253 8.37402L132.287 9.54098L42.1808 61.2772L40.1467 60.1101L130.253 8.37402Z" fill="#EFEFEF"/>
<path d="M133.017 9.13362L132.288 9.5547L42.1818 61.289L41.8962 61.4514V144.337L41.3962 144.05V61.1673L41.6922 60.9999L131.803 9.26042L132.522 8.84961L133.017 9.13362Z" fill="#8338EC"/>
<path d="M133.017 9.13363L132.288 9.5547L42.1818 61.289L41.8962 61.4514V144.337L41.3962 144.05V61.1673L41.6922 60.9999L131.803 9.26043L132.522 8.84961L133.017 9.13363Z" fill="black"/>
<path d="M132.288 9.55474L42.1821 61.2891V61.2943L41.8965 61.4564V144.337L42.1924 144.507L133.017 92.5067L133.017 79.6765V9.13379L132.288 9.55474Z" fill="#8338EC"/>
<path d="M132.288 9.55486L42.1818 61.2891V61.2943L41.8962 61.4565V144.337L42.1921 144.507L133.016 92.5067L133.017 79.6766V9.13379L132.288 9.55486Z" fill="black"/>
<path d="M132.52 8.84961L133.018 9.13434L41.8951 61.4543L41.3972 61.1688L132.52 8.84961Z" fill="#8338EC"/>
<path d="M132.52 8.84961L133.018 9.13434L41.8951 61.4543L41.3972 61.1688L132.52 8.84961Z" fill="white"/>
<path d="M133.813 9.58968L133.017 10.0462L132.288 10.4671L107.468 24.7158L42.6922 61.9073V144.793L42.1924 144.507V61.6233L132.288 9.89911L133.017 9.47803L133.318 9.30566L133.813 9.58968Z" fill="#8338EC"/>
<path d="M133.813 9.58968L133.017 10.0462L132.288 10.4671L107.468 24.7158L42.692 61.9073V144.793L42.1921 144.507V61.6233L132.288 9.89911L133.017 9.47803L133.318 9.30566L133.813 9.58968Z" fill="black"/>
<path d="M133.017 10.0462L132.288 10.4673L107.468 24.7159L42.6921 61.9125V144.793L43.1965 145.083L45.1768 143.891L133.813 92.9814V9.58984L133.017 10.0462Z" fill="#8338EC"/>
<path d="M133.317 9.30664L133.815 9.59149L42.6922 61.9114L42.1943 61.6259L133.317 9.30664Z" fill="#8338EC"/>
<path d="M133.317 9.30664L133.815 9.59149L42.6922 61.9114L42.1943 61.6259L133.317 9.30664Z" fill="white"/>
<path d="M135.338 11.2945L133.813 12.172L133.017 12.6286L132.288 13.0445L45.227 63.0288L45.2284 146.251L43.1963 145.084L43.1969 61.8622L132.288 10.7112L133.017 10.2903L133.303 10.1279L133.813 10.4221L135.338 11.2945Z" fill="#E6E6E6"/>
<path d="M133.302 10.125L135.336 11.292L45.2291 63.0281L43.1951 61.8611L133.302 10.125Z" fill="#EFEFEF"/>
<path d="M45.2288 63.0286V146.251L135.336 94.5145L135.336 11.293L45.2288 63.0286Z" fill="#F9F9F9"/>
<path d="M54.4723 60.4044C55.0587 60.067 55.5342 60.3401 55.5342 61.014C55.5342 61.6881 55.0587 62.5075 54.4723 62.8442C53.8857 63.1811 53.4102 62.908 53.4102 62.2345C53.4102 61.5611 53.8857 60.7417 54.4723 60.4044Z" fill="#37464F"/>
<path d="M51.4823 51.9762C50.3264 51.313 49.2175 51.2167 48.3624 51.7083C47.5072 52.1972 47.0364 53.2011 47.0364 54.5302C47.0364 55.0139 47.1017 55.5186 47.2221 56.0283L47.9308 55.6199C47.8577 55.2506 47.821 54.8839 47.821 54.5302C47.821 53.4898 48.1532 52.7278 48.7546 52.3819C49.3562 52.036 50.1852 52.1323 51.09 52.6524C53.1091 53.81 54.7514 56.6395 54.7514 58.9595C54.7514 59.5394 54.6468 60.0335 54.4533 60.4158C54.2963 60.7175 54.0819 60.9515 53.8178 61.105C53.7968 61.118 53.776 61.1285 53.7551 61.1389C53.5771 61.4249 53.4543 61.75 53.4203 62.0569C53.7002 62.0127 53.9668 61.919 54.21 61.7811C54.7201 61.4873 55.0939 61.014 55.3112 60.395C55.4603 59.9789 55.5361 59.4953 55.5361 58.9595C55.5361 56.3925 53.7184 53.2584 51.4823 51.9762Z" fill="#8338EC"/>
<path d="M59.6321 57.4415C60.2186 57.1042 60.6941 57.3771 60.6941 58.0512C60.6941 58.7252 60.2186 59.5446 59.6321 59.8813C59.0457 60.2182 58.5701 59.9451 58.5701 59.2717C58.5701 58.5982 59.0457 57.7788 59.6321 57.4415Z" fill="#37464F"/>
<path d="M56.6421 49.0133C55.4862 48.35 54.3773 48.2539 53.5221 48.7454C52.6668 49.2344 52.1963 50.2383 52.1963 51.5673C52.1963 52.0512 52.2615 52.5557 52.3818 53.0654L53.0907 52.657C53.0174 52.2878 52.9806 51.921 52.9806 51.5673C52.9806 50.5269 53.3129 49.765 53.9143 49.419C54.5159 49.0731 55.3449 49.1695 56.2498 49.6897C58.2687 50.847 59.9112 53.6766 59.9112 55.9966C59.9112 56.5766 59.8086 57.0718 59.613 57.4531C59.4578 57.7557 59.2393 57.9848 58.9775 58.1422C58.9564 58.1548 58.9358 58.1657 58.9149 58.176C58.737 58.4621 58.6139 58.7871 58.58 59.0941C58.8598 59.0498 59.1272 58.9571 59.3698 58.8183C59.8809 58.5263 60.2517 58.0504 60.4708 57.4322C60.6185 57.0154 60.6957 56.5323 60.6957 55.9966C60.6957 53.4296 58.8782 50.2955 56.6421 49.0133Z" fill="#8338EC"/>
<path d="M49.3141 63.3633C49.9005 63.026 50.376 63.299 50.376 63.973C50.376 64.6471 49.9005 65.4664 49.3141 65.8032C48.7275 66.1399 48.252 65.867 48.252 65.1935C48.252 64.52 48.7275 63.7007 49.3141 63.3633Z" fill="#37464F"/>
<path d="M46.3241 54.9352C45.1682 54.272 44.0593 54.1757 43.2041 54.6673C42.349 55.1562 41.8782 56.1601 41.8782 57.4892C41.8782 57.9729 41.9435 58.4776 42.0639 58.9873L42.7726 58.5788C42.6995 58.2095 42.6629 57.8429 42.6629 57.4892C42.6629 56.4488 42.995 55.6868 43.5964 55.3409C44.1979 54.9949 45.027 55.0913 45.9318 55.6114C47.9508 56.7689 49.5932 59.5985 49.5932 61.9184C49.5932 62.4984 49.4886 62.9925 49.2951 63.3748C49.1382 63.6765 48.9237 63.9105 48.6596 64.064C48.6386 64.077 48.6178 64.0875 48.5969 64.0979C48.4189 64.3839 48.2961 64.709 48.2621 65.0159C48.5419 64.9716 48.8086 64.878 49.052 64.7401C49.5619 64.4463 49.9359 63.973 50.153 63.354C50.3021 62.9377 50.3779 62.4541 50.3779 61.9184C50.3779 59.3513 48.5603 56.2174 46.3241 54.9352Z" fill="#8338EC"/>
<path d="M64.7919 54.4785C65.3783 54.1413 65.8538 54.4142 65.8538 55.0882C65.8538 55.7623 65.3783 56.5816 64.7919 56.9185C64.2055 57.2552 63.73 56.9823 63.73 56.3087C63.73 55.6352 64.2055 54.8159 64.7919 54.4785Z" fill="#37464F"/>
<path d="M61.8019 46.0514C60.646 45.3882 59.537 45.2919 58.6819 45.7835C57.8266 46.2724 57.356 47.2763 57.356 48.6054C57.356 49.0891 57.4213 49.5938 57.5416 50.1035L58.2504 49.6951C58.1771 49.3257 58.1404 48.9591 58.1404 48.6054C58.1404 47.565 58.4725 46.8029 59.0741 46.4571C59.6756 46.1112 60.5047 46.2075 61.4094 46.7276C63.4285 47.885 65.0708 50.7147 65.0708 53.0347C65.0708 53.6146 64.9684 54.1099 64.7728 54.4911C64.6174 54.7937 64.3991 55.0229 64.1373 55.1802C64.1162 55.1929 64.0955 55.2037 64.0747 55.2141C63.8967 55.5001 63.7736 55.8252 63.7397 56.1321C64.0196 56.0879 64.2867 55.9951 64.5296 55.8563C65.0405 55.5643 65.4114 55.0884 65.6305 54.4702C65.7782 54.0536 65.8554 53.5705 65.8554 53.0347C65.8554 50.4677 64.038 47.3336 61.8019 46.0514Z" fill="#8338EC"/>
<path d="M66.9617 43.0885C65.8058 42.4252 64.6969 42.3291 63.8416 42.8205C62.9864 43.3096 62.5159 44.3135 62.5159 45.6424C62.5159 46.1263 62.5811 46.6307 62.7014 47.1405L63.4102 46.7321C63.3369 46.3629 63.3003 45.9961 63.3003 45.6424C63.3003 44.602 63.6323 43.8401 64.234 43.4943C64.8354 43.1483 65.6646 43.2445 66.5695 43.7647C68.5884 44.9221 70.2307 47.7518 70.2307 50.0717C70.2307 50.6517 70.1283 51.1468 69.9327 51.5281C69.7775 51.8307 69.5589 52.0601 69.2971 52.2173C69.276 52.23 69.2553 52.2408 69.2345 52.2512C69.0566 52.5372 68.9336 52.8624 68.8997 53.1692C69.1795 53.125 69.4466 53.0322 69.6894 52.8935C70.2004 52.6015 70.5713 52.1255 70.7904 51.5073C70.9381 51.0906 71.0153 50.6074 71.0153 50.0717C71.0153 47.5046 69.1979 44.3708 66.9617 43.0885Z" fill="#8338EC"/>
<path d="M75.1112 48.5538C75.6976 48.2165 76.1731 48.4894 76.1731 49.1635C76.1731 49.8375 75.6976 50.6569 75.1112 50.9936C74.5247 51.3304 74.0493 51.0575 74.0493 50.384C74.0493 49.7105 74.5247 48.891 75.1112 48.5538Z" fill="#37464F"/>
<path d="M72.1214 40.1256C70.9654 39.4624 69.8564 39.3661 69.0013 39.8577C68.1461 40.3466 67.6753 41.3505 67.6753 42.6796C67.6753 43.1633 67.7408 43.668 67.8611 44.1778L68.5699 43.7693C68.4967 43.4 68.46 43.0332 68.46 42.6796C68.46 41.6392 68.7922 40.8772 69.3937 40.5313C69.9952 40.1854 70.8241 40.2818 71.7289 40.8018C73.748 41.9592 75.3903 44.7889 75.3903 47.1089C75.3903 47.6888 75.288 48.1841 75.0923 48.5653C74.937 48.8678 74.7186 49.0971 74.4567 49.2544C74.4356 49.2671 74.415 49.2779 74.3941 49.2883C74.2162 49.5745 74.0933 49.8994 74.0594 50.2063C74.3392 50.1621 74.6062 50.0695 74.849 49.9308C75.3601 49.6387 75.7309 49.1627 75.9501 48.5445C76.0979 48.1278 76.175 47.6446 76.175 47.1089C76.175 44.5419 74.3574 41.4078 72.1214 40.1256Z" fill="#8338EC"/>
<path d="M80.2709 45.5909C80.8573 45.2535 81.3328 45.5266 81.3328 46.2005C81.3328 46.8745 80.8573 47.694 80.2709 48.0308C79.6843 48.3676 79.209 48.0945 79.209 47.4211C79.209 46.7476 79.6843 45.9282 80.2709 45.5909Z" fill="#37464F"/>
<path d="M77.281 37.1627C76.125 36.4993 75.0162 36.4033 74.161 36.8949C73.3058 37.3838 72.835 38.3876 72.835 39.7167C72.835 40.2004 72.9005 40.7051 73.0208 41.2148L73.7295 40.8063C73.6562 40.437 73.6197 40.0704 73.6197 39.7167C73.6197 38.6763 73.9518 37.9143 74.5533 37.5684C75.1547 37.2224 75.9837 37.3188 76.8886 37.8389C78.9075 38.9963 80.55 41.826 80.55 44.1459C80.55 44.7259 80.4476 45.2212 80.252 45.6024C80.0967 45.905 79.8781 46.1342 79.6163 46.2915C79.5952 46.3042 79.5744 46.315 79.5536 46.3254C79.3757 46.6116 79.2527 46.9365 79.2188 47.2434C79.4986 47.1991 79.7659 47.1066 80.0086 46.9679C80.5197 46.6757 80.8906 46.1998 81.1097 45.5815C81.2575 45.1649 81.3346 44.6817 81.3346 44.1459C81.3346 41.5789 79.5171 38.4449 77.281 37.1627Z" fill="#8338EC"/>
<path d="M85.4305 42.628C86.017 42.2907 86.4924 42.5636 86.4924 43.2377C86.4924 43.9118 86.017 44.7311 85.4305 45.068C84.844 45.4047 84.3687 45.1317 84.3687 44.4582C84.3687 43.7847 84.844 42.9653 85.4305 42.628Z" fill="#37464F"/>
<path d="M82.4407 34.2008C81.2848 33.5374 80.1759 33.4414 79.3206 33.933C78.4655 34.4219 77.9949 35.4257 77.9949 36.7548C77.9949 37.2385 78.0601 37.7432 78.1804 38.2529L78.8892 37.8444C78.8159 37.4751 78.7793 37.1084 78.7793 36.7548C78.7793 35.7144 79.1115 34.9524 79.713 34.6065C80.3145 34.2605 81.1436 34.3569 82.0484 34.877C84.0673 36.0344 85.7097 38.8641 85.7097 41.184C85.7097 41.764 85.6073 42.2593 85.4117 42.6405C85.2565 42.9431 85.038 43.1723 84.7762 43.3296C84.755 43.3422 84.7342 43.3532 84.7133 43.3635C84.5355 43.6495 84.4126 43.9746 84.3786 44.2815C84.6584 44.2372 84.9256 44.1444 85.1684 44.0057C85.6794 43.7138 86.0504 43.2379 86.2694 42.6196C86.4172 42.203 86.4943 41.7199 86.4943 41.184C86.4943 38.617 84.6768 35.483 82.4407 34.2008Z" fill="#8338EC"/>
<path d="M90.5905 39.6651C91.177 39.3278 91.6523 39.6008 91.6523 40.2748C91.6523 40.9488 91.177 41.7682 90.5905 42.1049C90.004 42.4417 89.5286 42.1688 89.5286 41.4953C89.5286 40.8218 90.004 40.0024 90.5905 39.6651Z" fill="#37464F"/>
<path d="M87.6006 31.2379C86.4447 30.5745 85.3357 30.4785 84.4806 30.9701C83.6252 31.4592 83.1545 32.4628 83.1545 33.7919C83.1545 34.2757 83.22 34.7803 83.3403 35.29L84.0491 34.8817C83.9757 34.5124 83.9392 34.1456 83.9392 33.7919C83.9392 32.7515 84.2714 31.9895 84.8729 31.6436C85.4744 31.2976 86.3034 31.394 87.2081 31.9141C89.2272 33.0715 90.8695 35.9012 90.8695 38.2211C90.8695 38.8011 90.7651 39.2953 90.5716 39.6775C90.4146 39.9793 90.2001 40.2132 89.936 40.3667C89.915 40.3797 89.8942 40.3902 89.8734 40.4006C89.6955 40.6866 89.5724 41.0117 89.5384 41.3186C89.8183 41.2745 90.085 41.1808 90.3282 41.043C90.8382 40.7491 91.2123 40.2757 91.4293 39.6567C91.5785 39.2405 91.6542 38.7568 91.6542 38.2211C91.6542 35.6541 89.8367 32.5201 87.6006 31.2379Z" fill="#8338EC"/>
<path d="M95.7501 36.7031C96.3367 36.3659 96.812 36.6388 96.812 37.3129C96.812 37.9869 96.3367 38.8062 95.7501 39.1431C95.1636 39.4798 94.6882 39.2069 94.6882 38.5333C94.6882 37.8598 95.1636 37.0405 95.7501 36.7031Z" fill="#37464F"/>
<path d="M92.7603 28.275C91.6044 27.6117 90.4954 27.5156 89.6402 28.0072C88.785 28.4961 88.3142 29.5 88.3142 30.8289C88.3142 31.3128 88.3797 31.8172 88.5 32.327L89.2088 31.9187C89.1356 31.5494 89.0989 31.1826 89.0989 30.8289C89.0989 29.7887 89.431 29.0267 90.0324 28.6806C90.634 28.3348 91.4631 28.431 92.3678 28.9512C94.3869 30.1086 96.0292 32.9383 96.0292 35.2581C96.0292 35.8381 95.9268 36.3334 95.7313 36.7146C95.576 37.0172 95.3574 37.2464 95.0955 37.4038C95.0744 37.4165 95.0537 37.4273 95.0328 37.4375C94.8549 37.7237 94.732 38.0489 94.698 38.3557C94.9779 38.3115 95.2451 38.2187 95.4879 38.08C95.999 37.788 96.3698 37.312 96.589 36.6938C96.7366 36.2771 96.8139 35.7939 96.8139 35.2581C96.8139 32.6911 94.9963 29.5573 92.7603 28.275Z" fill="#8338EC"/>
<path d="M100.91 33.7403C101.496 33.403 101.972 33.676 101.972 34.35C101.972 35.024 101.496 35.8434 100.91 36.1801C100.323 36.517 99.8479 36.244 99.8479 35.5705C99.8479 34.897 100.323 34.0776 100.91 33.7403Z" fill="#37464F"/>
<path d="M97.92 25.3121C96.764 24.6489 95.6551 24.5527 94.7999 25.0442C93.9447 25.5332 93.4739 26.5371 93.4739 27.8661C93.4739 28.3498 93.5394 28.8545 93.6597 29.3643L94.3684 28.9558C94.2952 28.5865 94.2586 28.2198 94.2586 27.8661C94.2586 26.8259 94.5907 26.0637 95.1922 25.7178C95.7937 25.3719 96.6227 25.4683 97.5275 25.9884C99.5466 27.1459 101.189 29.9756 101.189 32.2954C101.189 32.8754 101.087 33.3706 100.891 33.7519C100.736 34.0544 100.517 34.2836 100.255 34.441C100.234 34.4536 100.213 34.4646 100.192 34.4748C100.015 34.761 99.8916 35.0859 99.8577 35.3929C100.138 35.3486 100.405 35.256 100.648 35.1173C101.159 34.8252 101.529 34.3492 101.749 33.731C101.896 33.3143 101.973 32.8312 101.973 32.2954C101.973 29.7284 100.156 26.5943 97.92 25.3121Z" fill="#8338EC"/>
<path d="M106.07 30.7774C106.656 30.4401 107.132 30.7131 107.132 31.3871C107.132 32.0611 106.656 32.8805 106.07 33.2172C105.483 33.554 105.008 33.2811 105.008 32.6076C105.008 31.9341 105.483 31.1147 106.07 30.7774Z" fill="#37464F"/>
<path d="M103.08 22.3492C101.924 21.686 100.815 21.5898 99.9598 22.0813C99.1046 22.5703 98.6338 23.5742 98.6338 24.9032C98.6338 25.3869 98.6993 25.8916 98.8196 26.4013L99.5284 25.9929C99.4549 25.6236 99.4185 25.2569 99.4185 24.9032C99.4185 23.863 99.7506 23.1009 100.352 22.7549C100.954 22.409 101.783 22.5055 102.687 23.0255C104.706 24.1829 106.349 27.0125 106.349 29.3325C106.349 29.9125 106.244 30.4067 106.051 30.7888C105.894 31.0906 105.679 31.3246 105.415 31.4781C105.394 31.4911 105.373 31.5017 105.352 31.5119C105.174 31.7981 105.052 32.123 105.018 32.43C105.297 32.3858 105.564 32.2922 105.808 32.1544C106.317 31.8605 106.691 31.3871 106.908 30.7681C107.058 30.3519 107.133 29.8683 107.133 29.3325C107.133 26.7655 105.316 23.6314 103.08 22.3492Z" fill="#8338EC"/>
<path d="M111.224 27.8165C111.81 27.4791 112.285 27.7522 112.285 28.4261C112.285 29.1002 111.81 29.9196 111.224 30.2564C110.637 30.5932 110.162 30.3201 110.162 29.6466C110.162 28.9732 110.637 28.1538 111.224 27.8165Z" fill="#37464F"/>
<path d="M108.234 19.3883C107.078 18.7251 105.969 18.6288 105.114 19.1204C104.258 19.6093 103.788 20.6132 103.788 21.9423C103.788 22.426 103.853 22.9307 103.973 23.4405L104.682 23.032C104.609 22.6627 104.572 22.296 104.572 21.9423C104.572 20.9019 104.904 20.1399 105.506 19.794C106.107 19.4481 106.937 19.5444 107.841 20.0646C109.86 21.2221 111.503 24.0517 111.503 26.3716C111.503 26.9515 111.4 27.4468 111.205 27.828C111.049 28.1305 110.831 28.3598 110.569 28.5171C110.548 28.5298 110.527 28.5408 110.506 28.551C110.329 28.8372 110.206 29.1621 110.172 29.469C110.451 29.4248 110.719 29.3322 110.961 29.1935C111.472 28.9013 111.843 28.4254 112.063 27.8072C112.21 27.3905 112.287 26.9074 112.287 26.3716C112.287 23.8046 110.47 20.6705 108.234 19.3883Z" fill="#8338EC"/>
<path d="M116.383 24.8536C116.97 24.5163 117.445 24.7892 117.445 25.4633C117.445 26.1372 116.97 26.9567 116.383 27.2934C115.797 27.6302 115.321 27.3573 115.321 26.6838C115.321 26.0102 115.797 25.1908 116.383 24.8536Z" fill="#37464F"/>
<path d="M113.393 16.4254C112.237 15.7622 111.128 15.6659 110.273 16.1575C109.418 16.6466 108.948 17.6505 108.948 18.9794C108.948 19.4631 109.013 19.9678 109.133 20.4775L109.842 20.0691C109.769 19.6998 109.732 19.3331 109.732 18.9794C109.732 17.939 110.064 17.177 110.666 16.8311C111.267 16.4852 112.096 16.5816 113.001 17.1016C115.02 18.2592 116.662 21.0888 116.662 23.4087C116.662 23.9886 116.558 24.4828 116.364 24.8651C116.207 25.1668 115.993 25.4008 115.729 25.5542C115.708 25.5672 115.687 25.5779 115.666 25.5882C115.488 25.8742 115.365 26.1993 115.331 26.5061C115.611 26.462 115.878 26.3685 116.121 26.2306C116.631 25.9367 117.005 25.4632 117.222 24.8443C117.371 24.4281 117.447 23.9445 117.447 23.4087C117.447 20.8417 115.629 17.7077 113.393 16.4254Z" fill="#8338EC"/>
<path d="M121.543 21.8907C122.13 21.5534 122.605 21.8263 122.605 22.5004C122.605 23.1743 122.13 23.9938 121.543 24.3306C120.956 24.6673 120.481 24.3944 120.481 23.7208C120.481 23.0474 120.956 22.2279 121.543 21.8907Z" fill="#37464F"/>
<path d="M118.553 13.4635C117.397 12.8003 116.288 12.704 115.433 13.1956C114.578 13.6845 114.107 14.6884 114.107 16.0175C114.107 16.5012 114.172 17.0059 114.293 17.5157L115.002 17.1074C114.928 16.7381 114.892 16.3712 114.892 16.0175C114.892 14.9772 115.224 14.2151 115.825 13.8692C116.427 13.5233 117.256 13.6196 118.161 14.1398C120.18 15.2971 121.822 18.1268 121.822 20.4468C121.822 21.0267 121.719 21.522 121.524 21.9032C121.369 22.2058 121.15 22.435 120.889 22.5923C120.867 22.605 120.847 22.6159 120.826 22.6262C120.648 22.9124 120.525 23.2373 120.491 23.5442C120.771 23.5001 121.038 23.4074 121.281 23.2687C121.792 22.9765 122.163 22.5006 122.382 21.8823C122.529 21.4657 122.607 20.9826 122.607 20.4468C122.607 17.8798 120.789 14.7457 118.553 13.4635Z" fill="#8338EC"/>
<path d="M126.703 18.9278C127.289 18.5905 127.765 18.8635 127.765 19.5375C127.765 20.2115 127.289 21.0309 126.703 21.3678C126.116 21.7045 125.641 21.4315 125.641 20.758C125.641 20.0845 126.116 19.2651 126.703 18.9278Z" fill="#37464F"/>
<path d="M123.713 10.5007C122.557 9.83733 121.448 9.74119 120.593 10.2326C119.738 10.7217 119.267 11.7256 119.267 13.0547C119.267 13.5384 119.332 14.0429 119.453 14.5526L120.162 14.1443C120.088 13.775 120.052 13.4083 120.052 13.0547C120.052 12.0143 120.384 11.2522 120.985 10.9064C121.587 10.5604 122.416 10.6566 123.32 11.1768C125.34 12.3342 126.982 15.1639 126.982 17.4838C126.982 18.0638 126.879 18.559 126.684 18.9402C126.529 19.2428 126.31 19.4722 126.049 19.6294C126.027 19.6421 126.007 19.6529 125.986 19.6633C125.808 19.9493 125.685 20.2745 125.651 20.5813C125.931 20.5371 126.198 20.4443 126.441 20.3056C126.952 20.0136 127.322 19.5376 127.542 18.9194C127.689 18.5027 127.767 18.0195 127.767 17.4838C127.767 14.9167 125.949 11.7829 123.713 10.5007Z" fill="#8338EC"/>
<path d="M131.862 15.9659C132.449 15.6286 132.924 15.9015 132.924 16.5756C132.924 17.2495 132.449 18.0689 131.862 18.4057C131.276 18.7425 130.801 18.4696 130.801 17.7961C130.801 17.1225 131.276 16.3031 131.862 15.9659Z" fill="#37464F"/>
<path d="M128.873 7.53772C127.717 6.8745 126.608 6.77824 125.753 7.26981C124.897 7.75887 124.427 8.76265 124.427 10.0917C124.427 10.5755 124.492 11.0801 124.612 11.5898L125.321 11.1814C125.248 10.8122 125.211 10.4454 125.211 10.0917C125.211 9.05132 125.543 8.28933 126.145 7.94341C126.746 7.59748 127.575 7.69386 128.48 8.21406C130.499 9.37148 132.142 12.2011 132.142 14.521C132.142 15.1009 132.037 15.5951 131.844 15.9774C131.687 16.2792 131.472 16.5131 131.208 16.6665C131.187 16.6795 131.166 16.69 131.145 16.7004C130.967 16.9866 130.844 17.3115 130.81 17.6184C131.09 17.5743 131.357 17.4807 131.6 17.3429C132.11 17.049 132.484 16.5755 132.701 15.9566C132.85 15.5404 132.926 15.0568 132.926 14.521C132.926 11.954 131.109 8.81991 128.873 7.53772Z" fill="#8338EC"/>
<path d="M128.872 7.53772C127.717 6.8745 126.608 6.77824 125.753 7.26981C124.897 7.75887 124.427 8.76265 124.427 10.0917C124.427 10.4041 124.463 10.7268 124.515 11.0526C124.255 10.8437 123.987 10.6577 123.713 10.5004C122.557 9.83716 121.448 9.7409 120.593 10.2325C119.738 10.7214 119.267 11.7253 119.267 13.0544C119.267 13.3669 119.303 13.6895 119.355 14.0151C119.096 13.8063 118.828 13.6205 118.553 13.4632C117.397 12.7998 116.288 12.7037 115.433 13.1953C114.578 13.6842 114.107 14.6881 114.107 16.017C114.107 16.3297 114.143 16.6522 114.195 16.9779C113.936 16.7691 113.668 16.5833 113.393 16.4258C112.237 15.7626 111.128 15.6662 110.273 16.1578C109.418 16.6467 108.947 17.6508 108.947 18.9797C108.947 19.2922 108.984 19.6149 109.035 19.9405C108.776 19.7317 108.508 19.5457 108.234 19.3884C107.078 18.7252 105.969 18.6289 105.114 19.1205C104.259 19.6094 103.788 20.6133 103.788 21.9424C103.788 22.2528 103.823 22.5733 103.875 22.8966C103.617 22.6902 103.352 22.5059 103.08 22.3498C101.924 21.6866 100.815 21.5904 99.9596 22.0819C99.1044 22.5708 98.6337 23.5748 98.6337 24.9037C98.6337 25.2162 98.6698 25.5388 98.7218 25.8644C98.4624 25.6557 98.1944 25.4697 97.9199 25.3123C96.764 24.6492 95.6551 24.5529 94.8 25.0445C93.9449 25.5333 93.474 26.5373 93.474 27.8663C93.474 28.1789 93.5103 28.5016 93.5619 28.8272C93.3027 28.6185 93.0347 28.4324 92.7602 28.2749C91.6042 27.6118 90.4953 27.5156 89.6402 28.0071C88.785 28.4961 88.3143 29.5 88.3143 30.8289C88.3143 31.1415 88.3507 31.4642 88.4022 31.7899C88.1429 31.5811 87.875 31.3951 87.6005 31.2377C86.4446 30.5745 85.3357 30.4784 84.4806 30.9699C83.6254 31.459 83.1546 32.4628 83.1546 33.7918C83.1546 34.1042 83.1908 34.4268 83.2425 34.7526C82.9832 34.5437 82.7152 34.3578 82.4408 34.2005C81.2848 33.5372 80.1758 33.4409 79.3207 33.9325C78.4656 34.4214 77.9948 35.4254 77.9948 36.7545C77.9948 37.0669 78.031 37.3895 78.0828 37.7151C77.8235 37.5064 77.5556 37.3204 77.281 37.1629C76.1251 36.4997 75.0163 36.4036 74.1609 36.8951C73.3058 37.3841 72.8351 38.388 72.8351 39.717C72.8351 40.0295 72.8714 40.3522 72.9231 40.6779C72.6638 40.4691 72.3958 40.2832 72.1214 40.1257C70.9653 39.4625 69.8564 39.3663 69.0013 39.8579C68.1462 40.3467 67.6752 41.3508 67.6752 42.6797C67.6752 42.9922 67.7118 43.3148 67.7635 43.6404C67.5041 43.4317 67.236 43.2458 66.9616 43.0884C65.8056 42.4252 64.6966 42.3289 63.8415 42.8205C62.9863 43.3094 62.5157 44.3133 62.5157 45.6423C62.5157 45.9548 62.5518 46.2774 62.6037 46.6031C62.3444 46.3943 62.0763 46.2084 61.802 46.0509C60.6459 45.3877 59.537 45.2914 58.6819 45.7831C57.8266 46.2721 57.3559 47.276 57.3559 48.6049C57.3559 48.9174 57.3921 49.2402 57.4439 49.5659C57.1846 49.3571 56.9166 49.171 56.6421 49.0137C55.4862 48.3504 54.3774 48.2542 53.5221 48.7458C52.6669 49.2347 52.1961 50.2385 52.1961 51.5677C52.1961 51.8801 52.2325 52.2028 52.2842 52.5284C52.0249 52.3197 51.7569 52.1338 51.4823 51.9764C50.3265 51.3131 49.2176 51.2169 48.3624 51.7083C47.5072 52.1973 47.0365 53.2013 47.0365 54.5304C47.0365 54.8398 47.066 55.1582 47.1167 55.4807C46.8603 55.2748 46.5954 55.0911 46.324 54.9356C45.1681 54.2724 44.0593 54.1759 43.2041 54.6674C42.3488 55.1564 41.8782 56.1604 41.8782 57.4896C41.8782 57.9732 41.9435 58.4776 42.0639 58.9874L42.7726 58.579C42.6993 58.2097 42.6627 57.8432 42.6627 57.4896C42.6627 56.4492 42.9949 55.6871 43.5964 55.3411C44.1979 54.9953 45.027 55.0915 45.9318 55.6116C47.9507 56.769 49.5932 59.5986 49.5932 61.9185C49.5932 62.4986 49.4886 62.9926 49.295 63.3751C49.1381 63.6766 48.9237 63.9108 48.6596 64.0642C48.6385 64.0772 48.6176 64.0877 48.5969 64.098C48.4189 64.3841 48.2961 64.7093 48.262 65.0161C48.5418 64.9719 48.8085 64.8783 49.0518 64.7404C49.5619 64.4465 49.9357 63.9731 50.153 63.3542C50.3021 62.938 50.3777 62.4543 50.3777 61.9185C50.3777 59.8372 49.1826 57.3835 47.5386 55.8461L47.9309 55.6199C47.8578 55.2506 47.8209 54.884 47.8209 54.5304C47.8209 53.4901 48.1532 52.728 48.7547 52.3821C49.3561 52.0361 50.1852 52.1324 51.0901 52.6524C53.109 53.8099 54.7515 56.6396 54.7515 58.9594C54.7515 59.5394 54.6469 60.0335 54.4533 60.4159C54.2964 60.7175 54.0821 60.9517 53.8178 61.1051C53.7968 61.1181 53.776 61.1286 53.7551 61.1388C53.5773 61.425 53.4544 61.75 53.4204 62.057C53.7003 62.0128 53.9668 61.9192 54.2102 61.7813C54.7201 61.4874 55.0941 61.0141 55.3112 60.3951C55.4603 59.9789 55.5361 59.4952 55.5361 58.9594C55.5361 56.8773 54.3402 54.4228 52.6951 52.8853L53.0907 52.6574C53.0174 52.2882 52.9808 51.9214 52.9808 51.5677C52.9808 50.5273 53.313 49.7652 53.9145 49.4194C54.5159 49.0735 55.345 49.1697 56.2499 49.6898C58.2687 50.8472 59.9112 53.6769 59.9112 55.9968C59.9112 56.5768 59.8088 57.072 59.6132 57.4532C59.4578 57.7558 59.2394 57.9851 58.9776 58.1424C58.9563 58.1551 58.9357 58.1659 58.9148 58.1763C58.737 58.4623 58.614 58.7875 58.5801 59.0943C58.8599 59.0502 59.1272 58.9574 59.3698 58.8186C59.8808 58.5266 60.2518 58.0507 60.4708 57.4324C60.6186 57.0158 60.6958 56.5326 60.6958 55.9968C60.6958 53.9147 59.4998 51.4599 57.855 49.9225L58.2503 49.6947C58.177 49.3253 58.1405 48.9587 58.1405 48.6049C58.1405 47.5646 58.4726 46.8025 59.0741 46.4567C59.6757 46.1108 60.5046 46.2072 61.4096 46.7273C63.4286 47.8847 65.0709 50.7142 65.0709 53.0341C65.0709 53.614 64.9684 54.1094 64.7729 54.4906C64.6175 54.7933 64.3992 55.0225 64.1373 55.1797C64.1161 55.1925 64.0955 55.2034 64.0746 55.2137C63.8966 55.4998 63.7737 55.8247 63.7397 56.1316C64.0197 56.0875 64.2869 55.9947 64.5296 55.856C65.0405 55.564 65.4114 55.088 65.6306 54.4698C65.7783 54.0532 65.8555 53.5699 65.8555 53.0341C65.8555 50.9521 64.6595 48.4973 63.0146 46.9599L63.4101 46.7322C63.3368 46.3627 63.3002 45.9959 63.3002 45.6423C63.3002 44.602 63.6324 43.84 64.2338 43.4942C64.8353 43.1483 65.6644 43.2443 66.5691 43.7645C68.5882 44.9219 70.2306 47.7517 70.2306 50.0716C70.2306 50.6516 70.1282 51.1466 69.9325 51.5279C69.7772 51.8305 69.5588 52.0599 69.297 52.2171C69.276 52.2298 69.2551 52.2407 69.2342 52.251C69.0562 52.5371 68.9335 52.8622 68.8995 53.169C69.1793 53.1248 69.4467 53.0323 69.6892 52.8934C70.2003 52.6014 70.5712 52.1254 70.7903 51.5071C70.9381 51.0906 71.0151 50.6073 71.0151 50.0716C71.0151 47.9895 69.8192 45.5348 68.1744 43.9973L68.5697 43.7694C68.4966 43.4001 68.46 43.0334 68.46 42.6797C68.46 41.6394 68.792 40.8773 69.3935 40.5314C69.9952 40.1855 70.824 40.2816 71.7289 40.8018C73.7481 41.9592 75.3903 44.7889 75.3903 47.1087C75.3903 47.6888 75.288 48.184 75.0922 48.5652C74.9369 48.8678 74.7187 49.0973 74.4569 49.2547C74.4356 49.2673 74.4149 49.2778 74.3941 49.2883C74.2161 49.5745 74.0932 49.8994 74.0592 50.2064C74.3389 50.1622 74.6063 50.0695 74.8491 49.9308C75.3601 49.6386 75.7309 49.1628 75.9501 48.5446C76.0977 48.1279 76.175 47.6446 76.175 47.1087C76.175 45.0267 74.9789 42.572 73.3341 41.0345L73.7295 40.8067C73.6563 40.4374 73.6195 40.0707 73.6195 39.717C73.6195 38.6768 73.9518 37.9145 74.5533 37.5687C75.1547 37.2228 75.9838 37.3192 76.8887 37.8393C78.9077 38.9967 80.55 41.8262 80.55 44.1461C80.55 44.7262 80.4475 45.2215 80.252 45.6028C80.0966 45.9052 79.8783 46.1345 79.6166 46.2918C79.5954 46.3045 79.5746 46.3153 79.5538 46.3256C79.3759 46.6118 79.2528 46.9368 79.219 47.2438C79.4988 47.1995 79.7659 47.1069 80.0088 46.9682C80.5198 46.6761 80.8907 46.2001 81.1098 45.5818C81.2575 45.1652 81.3347 44.6819 81.3347 44.1461C81.3347 42.0641 80.1387 39.6093 78.4938 38.072L78.8893 37.844C78.8161 37.4747 78.7795 37.1082 78.7795 36.7545C78.7795 35.7141 79.1115 34.9521 79.7129 34.6062C80.3146 34.2603 81.1435 34.3564 82.0484 34.8765C84.0674 36.0339 85.7099 38.8636 85.7099 41.1834C85.7099 41.7635 85.6072 42.2588 85.4117 42.64C85.2564 42.9425 85.038 43.1719 84.7761 43.3292C84.755 43.3419 84.7344 43.3527 84.7135 43.3631C84.5355 43.6491 84.4127 43.9743 84.3786 44.2812C84.6585 44.237 84.9258 44.1442 85.1684 44.0056C85.6795 43.7134 86.0503 43.2375 86.2695 42.6194C86.4172 42.2027 86.4944 41.7194 86.4944 41.1834C86.4944 39.1014 85.2984 36.6468 83.6534 35.1093L84.0489 34.8815C83.9757 34.5122 83.939 34.1455 83.939 33.7918C83.939 32.7516 84.2713 31.9893 84.8728 31.6434C85.4742 31.2976 86.3032 31.3937 87.2082 31.9139C89.2271 33.0712 90.8696 35.9009 90.8696 38.2209C90.8696 38.8008 90.7651 39.2949 90.5715 39.6773C90.4145 39.979 90.2 40.213 89.936 40.3664C89.9148 40.3796 89.8939 40.3899 89.8732 40.4003C89.6953 40.6863 89.5723 41.0116 89.5384 41.3184C89.8182 41.2743 90.085 41.1805 90.3284 41.0428C90.8381 40.7489 91.212 40.2754 91.4292 39.6566C91.5783 39.2403 91.654 38.7566 91.654 38.2209C91.654 36.1388 90.4581 33.6841 88.8132 32.1467L89.2088 31.9187C89.1355 31.5494 89.0988 31.1826 89.0988 30.8289C89.0988 29.7887 89.431 29.0267 90.0324 28.6807C90.6339 28.3348 91.4632 28.4311 92.3678 28.9513C94.3868 30.1087 96.0293 32.9382 96.0293 35.2581C96.0293 35.838 95.9268 36.3333 95.7311 36.7145C95.5759 37.0172 95.3576 37.2467 95.0955 37.4039C95.0745 37.4166 95.0538 37.4273 95.0329 37.4376C94.855 37.7237 94.7321 38.0487 94.6981 38.3557C94.978 38.3115 95.2451 38.2187 95.4879 38.08C95.9991 37.788 96.3697 37.312 96.589 36.6938C96.7366 36.2772 96.814 35.7939 96.814 35.2581C96.814 33.1761 95.6179 30.7212 93.9731 29.1839L94.3684 28.9561C94.2952 28.5867 94.2587 28.2201 94.2587 27.8663C94.2587 26.8261 94.5907 26.0641 95.1922 25.7182C95.7937 25.3723 96.6227 25.4684 97.5277 25.9886C99.5466 27.146 101.189 29.9756 101.189 32.2954C101.189 32.8755 101.087 33.3706 100.891 33.752C100.736 34.0544 100.517 34.2839 100.255 34.4412C100.234 34.4539 100.213 34.4646 100.193 34.4751C100.015 34.7611 99.8919 35.0862 99.8578 35.3931C100.138 35.3489 100.405 35.2562 100.648 35.1174C101.159 34.8254 101.529 34.3495 101.749 33.7314C101.896 33.3147 101.974 32.8312 101.974 32.2954C101.974 30.2134 100.778 27.7587 99.1327 26.2212L99.5282 25.9935C99.4549 25.6242 99.4182 25.2574 99.4182 24.9037C99.4182 23.8634 99.7503 23.1015 100.352 22.7555C100.953 22.4096 101.782 22.5058 102.687 23.0258C104.706 24.1832 106.349 27.0129 106.349 29.3329C106.349 29.9128 106.244 30.407 106.051 30.7892C105.894 31.091 105.679 31.3252 105.415 31.4787C105.394 31.4916 105.373 31.5019 105.352 31.5123C105.175 31.7985 105.051 32.1236 105.018 32.4306C105.297 32.3863 105.564 32.2926 105.807 32.1548C106.317 31.8609 106.691 31.3877 106.909 30.7686C107.057 30.3525 107.133 29.8686 107.133 29.3329C107.133 27.2502 105.937 24.7948 104.291 23.2575L104.682 23.0322C104.609 22.6627 104.572 22.2961 104.572 21.9424C104.572 20.9021 104.904 20.14 105.506 19.7942C106.108 19.4481 106.936 19.5445 107.841 20.0647C109.86 21.222 111.503 24.0518 111.503 26.3718C111.503 26.9516 111.4 27.4469 111.205 27.8281C111.049 28.1306 110.831 28.36 110.569 28.5172C110.548 28.5298 110.527 28.5407 110.506 28.5512C110.328 28.8372 110.206 29.1622 110.172 29.4691C110.451 29.4248 110.719 29.332 110.961 29.1934C111.472 28.9014 111.843 28.4255 112.062 27.8072C112.21 27.3906 112.287 26.9075 112.287 26.3718C112.287 24.2895 111.091 21.8347 109.446 20.2972L109.842 20.0696C109.769 19.7002 109.732 19.3334 109.732 18.9797C109.732 17.9394 110.064 17.1774 110.666 16.8315C111.267 16.4857 112.096 16.5817 113.001 17.1019C115.02 18.2594 116.662 21.0891 116.662 23.409C116.662 23.9891 116.558 24.4831 116.364 24.8653C116.207 25.167 115.993 25.4013 115.729 25.5548C115.708 25.5677 115.687 25.578 115.666 25.5884C115.488 25.8746 115.365 26.1996 115.331 26.5064C115.611 26.4623 115.878 26.3688 116.121 26.2309C116.631 25.937 117.005 25.4636 117.222 24.8447C117.371 24.4286 117.447 23.9448 117.447 23.409C117.447 21.3269 116.251 18.872 114.606 17.3345L115.002 17.1069C114.928 16.7376 114.892 16.3708 114.892 16.017C114.892 14.9769 115.224 14.2148 115.825 13.8689C116.427 13.5229 117.256 13.6191 118.161 14.1392C120.18 15.2966 121.822 18.1263 121.822 20.4462C121.822 21.0263 121.72 21.5213 121.524 21.9027C121.369 22.2052 121.151 22.4347 120.889 22.592C120.867 22.6046 120.847 22.6153 120.826 22.6256C120.648 22.9118 120.525 23.237 120.491 23.5439C120.771 23.4996 121.038 23.4068 121.281 23.2681C121.792 22.976 122.163 22.5003 122.382 21.8819C122.53 21.4654 122.607 20.982 122.607 20.4462C122.607 18.3642 121.411 15.9095 119.766 14.372L120.161 14.144C120.088 13.7747 120.051 13.4081 120.051 13.0544C120.051 12.014 120.384 11.252 120.985 10.9061C121.587 10.5601 122.416 10.6565 123.321 11.1767C125.34 12.334 126.982 15.1637 126.982 17.4834C126.982 18.0635 126.879 18.5589 126.684 18.9401C126.528 19.2426 126.31 19.4719 126.048 19.6292C126.027 19.6419 126.006 19.6526 125.986 19.663C125.808 19.9491 125.685 20.2742 125.651 20.5811C125.931 20.5368 126.198 20.444 126.441 20.3054C126.952 20.0134 127.322 19.5375 127.542 18.9191C127.689 18.5026 127.766 18.0194 127.766 17.4834C127.766 15.4014 126.571 12.9467 124.926 11.4092L125.321 11.1814C125.248 10.8122 125.211 10.4454 125.211 10.0917C125.211 9.05132 125.543 8.28933 126.145 7.94341C126.746 7.59748 127.575 7.69386 128.48 8.21394C130.499 9.37136 132.142 12.2011 132.142 14.521C132.142 15.1009 132.037 15.5951 131.844 15.9773C131.687 16.2792 131.472 16.513 131.208 16.6665C131.187 16.6795 131.166 16.69 131.145 16.7004C130.967 16.9866 130.844 17.3115 130.81 17.6184C131.09 17.5742 131.357 17.4807 131.6 17.3429C132.11 17.049 132.484 16.5755 132.701 15.9566C132.85 15.5404 132.926 15.0567 132.926 14.521C132.926 11.954 131.109 8.81991 128.872 7.53772Z" fill="black"/>
<path d="M56.6646 69.7067L63.1093 65.9845C63.5863 65.7106 63.9754 65.905 63.978 66.419C63.9809 66.9329 63.596 67.571 63.1185 67.8442L56.6652 71.5631C56.1877 71.8363 55.8008 71.6426 55.8008 71.1303C55.8008 70.6181 56.1875 69.9806 56.6646 69.7067Z" fill="#8338EC"/>
<path d="M67.6834 63.3806L74.1281 59.6583C74.6052 59.3844 74.9941 59.5789 74.997 60.0929C74.9997 60.6067 74.6149 61.2448 74.1374 61.5181L67.6842 65.2369C67.2066 65.5102 66.8196 65.3164 66.8196 64.8041C66.8196 64.2918 67.2063 63.6545 67.6834 63.3806Z" fill="#8338EC"/>
<path d="M78.7025 57.0544L85.1471 53.3321C85.6243 53.0583 86.0133 53.2527 86.016 53.7667C86.0188 54.2806 85.6339 54.9186 85.1565 55.1919L78.7032 58.9107C78.2257 59.184 77.8386 58.9903 77.8386 58.4779C77.8386 57.9657 78.2255 57.3283 78.7025 57.0544Z" fill="#8338EC"/>
<path d="M89.7216 50.7273L96.1662 47.005C96.6432 46.7311 97.0322 46.9255 97.0351 47.4395C97.0377 47.9534 96.6529 48.5915 96.1755 48.8648L89.7221 52.5836C89.2447 52.8568 88.8577 52.6631 88.8577 52.1508C88.8577 51.6385 89.2445 51.0011 89.7216 50.7273Z" fill="#8338EC"/>
<path d="M100.74 44.4011L107.185 40.6787C107.662 40.405 108.051 40.5994 108.054 41.1133C108.057 41.6272 107.672 42.2653 107.194 42.5386L100.741 46.2574C100.264 46.5307 99.8767 46.337 99.8767 45.8247C99.8767 45.3123 100.263 44.675 100.74 44.4011Z" fill="#8338EC"/>
<path d="M111.76 38.0749L118.204 34.3526C118.681 34.0788 119.07 34.2732 119.073 34.7872C119.076 35.301 118.691 35.9391 118.214 36.2124L111.76 39.9312C111.283 40.2045 110.896 40.0108 110.896 39.4985C110.896 38.9861 111.283 38.3488 111.76 38.0749Z" fill="#8338EC"/>
<path d="M122.779 31.7478L129.223 28.0255C129.7 27.7516 130.089 27.9461 130.092 28.4601C130.095 28.9739 129.71 29.612 129.233 29.8853L122.779 33.6041C122.301 33.8773 121.915 33.6836 121.915 33.1713C121.915 32.6591 122.301 32.0216 122.779 31.7478Z" fill="#8338EC"/>
<path d="M131.408 35.8071L131.319 90.3848L55.3563 134.051V79.4733L131.408 35.8071ZM131.649 35.3936L55.1165 79.3355V134.465L131.558 90.5227L131.649 35.3936Z" fill="#DFDFDF"/>
<path d="M66.0369 127.819L66.0498 73.4248" stroke="#DFDFDF" stroke-width="2" stroke-linecap="round" stroke-linejoin="round"/>
<path d="M76.9829 67.1475L76.957 121.542" stroke="#DFDFDF" stroke-width="2" stroke-linecap="round" stroke-linejoin="round"/>
<path d="M87.9163 60.8701L87.8774 115.264" stroke="#DFDFDF" stroke-width="2" stroke-linecap="round" stroke-linejoin="round"/>
<path d="M98.8494 54.5928L98.7974 108.987" stroke="#DFDFDF" stroke-width="2" stroke-linecap="round" stroke-linejoin="round"/>
<path d="M109.783 48.3154L109.718 102.71" stroke="#DFDFDF" stroke-width="2" stroke-linecap="round" stroke-linejoin="round"/>
<path d="M120.716 42.0381L120.638 96.4324" stroke="#DFDFDF" stroke-width="2" stroke-linecap="round" stroke-linejoin="round"/>
<path d="M55.5652 92.849L131.261 49.3877" stroke="#DFDFDF" stroke-width="2" stroke-linecap="round" stroke-linejoin="round"/>
<path d="M55.5652 106.631L131.261 63.1699" stroke="#DFDFDF" stroke-width="2" stroke-linecap="round" stroke-linejoin="round"/>
<path d="M55.5652 120.414L131.261 76.9521" stroke="#DFDFDF" stroke-width="2" stroke-linecap="round" stroke-linejoin="round"/>
<path d="M104.116 83.1755L124.668 71.3755C126.037 70.5892 127.147 71.109 127.147 72.5366C127.147 73.9642 126.037 75.7588 124.668 76.5452L104.116 88.3451C102.746 89.1315 101.636 88.6115 101.636 87.1839C101.636 85.7564 102.746 83.9618 104.116 83.1755Z" fill="#8338EC"/>
<path d="M68.3503 116.188L74.8966 119.947" stroke="#8338EC" stroke-width="4" stroke-miterlimit="10" stroke-linecap="round"/>
<path d="M74.4291 112.787L68.6338 123.211" stroke="#8338EC" stroke-width="4" stroke-miterlimit="10" stroke-linecap="round"/>
<path d="M109.51 96.9568C109.477 96.4241 109.283 95.9223 108.893 95.548C108.495 95.1657 107.932 94.9713 107.394 94.8884C106.582 94.763 105.711 94.9575 104.959 95.2658C104.294 95.5383 103.71 96.0033 103.178 96.477C102.938 96.6902 102.702 96.9025 102.447 97.0977C102.311 97.2011 102.508 97.4122 102.64 97.3353C103.215 96.9983 103.725 96.5757 104.284 96.2163C104.897 95.822 105.592 95.5641 106.316 95.459C107.295 95.317 108.593 95.5901 108.864 96.6842C108.994 97.2094 108.896 97.8148 108.797 98.3379C108.692 98.8963 108.521 99.4397 108.285 99.9571C107.813 100.992 107.098 101.914 106.228 102.649C105.472 103.287 104.572 103.909 103.585 104.111C102.754 104.28 101.842 104.249 101.068 103.88C100.719 103.713 100.417 103.462 100.208 103.137C99.9485 102.732 99.9033 102.251 99.8921 101.783C99.8649 100.635 100.19 99.5037 100.722 98.4916C101.801 96.4377 103.745 94.7934 105.953 94.0534C106.257 93.9513 106.571 93.863 106.883 93.786C107.141 93.722 107.068 93.3622 106.807 93.3859C105.511 93.5034 104.229 94.1215 103.182 94.868C102.08 95.6542 101.138 96.6528 100.435 97.8066C99.7722 98.8929 99.353 100.13 99.292 101.403C99.2412 102.469 99.4378 103.537 100.375 104.18C101.179 104.733 102.224 104.87 103.178 104.765C104.277 104.644 105.241 104.119 106.117 103.469C107.138 102.71 108.005 101.743 108.606 100.623C109.19 99.535 109.587 98.2006 109.51 96.9568Z" fill="#F18F8F"/>
<path d="M60.95 79.2135L61.7407 80.8839C61.7735 80.9532 61.8369 80.9778 61.9102 80.9499L63.6782 80.2753C63.8628 80.205 63.9365 80.4634 63.803 80.7127L62.5236 83.1009C62.4705 83.1999 62.4464 83.3125 62.4588 83.4022L62.7609 85.5637C62.7924 85.7894 62.5994 86.0861 62.4344 86.0659L60.8529 85.8713C60.7874 85.8633 60.7091 85.9083 60.6434 85.9917L59.0621 88.002C58.897 88.2119 58.7039 88.1368 58.7356 87.8749L59.0376 85.3666C59.0501 85.2626 59.0258 85.1777 58.9728 85.1396L57.6935 84.2208C57.5599 84.1248 57.6336 83.7815 57.8182 83.64L59.5862 82.2842C59.6595 82.2279 59.7229 82.1306 59.7556 82.0237L60.5464 79.4453C60.6289 79.1762 60.8675 79.0391 60.95 79.2135Z" fill="#F18F8F"/>
<path d="M78.6637 69.2468L84.6678 65.7997C84.9227 65.6534 85.1293 65.7573 85.1293 66.0318C85.1293 66.3065 84.9227 66.6476 84.6678 66.794L78.6637 70.2413C78.4088 70.3877 78.2021 70.2836 78.2021 70.009C78.2021 69.7345 78.4088 69.3932 78.6637 69.2468Z" fill="#455A63"/>
<path d="M78.6637 71.7006L82.8045 69.3222C83.0594 69.1758 83.2661 69.2798 83.2661 69.5543C83.2661 69.8289 83.0594 70.1702 82.8045 70.3165L78.6637 72.6951C78.4088 72.8414 78.2021 72.7373 78.2021 72.4628C78.2021 72.1881 78.4088 71.8469 78.6637 71.7006Z" fill="#455A63"/>
<path d="M100.135 68.9822L106.139 65.535C106.394 65.3887 106.6 65.4928 106.6 65.7673C106.6 66.0419 106.394 66.3829 106.139 66.5294L100.135 69.9767C99.8801 70.1231 99.6733 70.0189 99.6733 69.7445C99.6733 69.4699 99.8801 69.1287 100.135 68.9822Z" fill="#455A63"/>
<path d="M100.135 71.4359L104.276 69.0575C104.531 68.9112 104.737 69.0152 104.737 69.2897C104.737 69.5642 104.531 69.9055 104.276 70.0519L100.135 72.4304C99.88 72.5768 99.6733 72.4726 99.6733 72.1982C99.6733 71.9235 99.88 71.5823 100.135 71.4359Z" fill="#455A63"/>
<path d="M57.6333 107.169L63.6374 103.722C63.8923 103.575 64.0988 103.679 64.0988 103.954C64.0988 104.228 63.8923 104.57 63.6374 104.716L57.6333 108.163C57.3784 108.31 57.1716 108.206 57.1716 107.931C57.1716 107.656 57.3784 107.315 57.6333 107.169Z" fill="#455A63"/>
<path d="M57.6334 109.622L61.7742 107.244C62.0291 107.098 62.2358 107.202 62.2358 107.476C62.2358 107.751 62.0291 108.092 61.7742 108.238L57.6334 110.617C57.3785 110.763 57.1719 110.659 57.1719 110.385C57.1719 110.11 57.3785 109.769 57.6334 109.622Z" fill="#455A63"/>
<path d="M111.39 90.1074L117.394 86.6601C117.649 86.5137 117.855 86.6177 117.855 86.8922C117.855 87.1669 117.649 87.5081 117.394 87.6544L111.39 91.1016C111.135 91.2481 110.928 91.1441 110.928 90.8695C110.928 90.5949 111.135 90.2537 111.39 90.1074Z" fill="#455A63"/>
<path d="M111.39 92.561L115.53 90.1826C115.785 90.0361 115.992 90.1401 115.992 90.4147C115.992 90.6893 115.785 91.0305 115.53 91.1768L111.39 93.5552C111.135 93.7017 110.928 93.5977 110.928 93.3231C110.928 93.0485 111.135 92.7073 111.39 92.561Z" fill="#455A63"/>
<path d="M76.9831 80.614L85.1293 75.875L76.9319 89.2149L76.9831 80.614Z" fill="#8338EC"/>
<path d="M47.7452 85.3423L52.7958 82.431C53.0636 82.2773 53.282 82.3864 53.2835 82.675C53.2852 82.9634 53.069 83.3217 52.801 83.4751L47.7456 86.3845C47.4776 86.5379 47.2603 86.4291 47.2603 86.1415C47.2603 85.8539 47.4775 85.4961 47.7452 85.3423Z" fill="#8338EC"/>
<path d="M47.7453 87.5547L51.4698 85.4095C51.7376 85.2558 51.9562 85.365 51.9577 85.6534C51.9593 85.9419 51.7432 86.3 51.4751 86.4535L47.7457 88.597C47.4777 88.7504 47.2603 88.6416 47.2603 88.354C47.2603 88.0665 47.4776 87.7085 47.7453 87.5547Z" fill="#8338EC"/>
<path d="M47.7452 99.1049L52.7958 96.1938C53.0636 96.0399 53.282 96.1492 53.2835 96.4377C53.2852 96.7261 53.069 97.0843 52.801 97.2376L47.7456 100.147C47.4776 100.301 47.2603 100.192 47.2603 99.9041C47.2603 99.6165 47.4775 99.2588 47.7452 99.1049Z" fill="#8338EC"/>
<path d="M47.7453 101.318L51.4698 99.1722C51.7376 99.0185 51.9562 99.1276 51.9577 99.4162C51.9593 99.7046 51.7432 100.063 51.4751 100.216L47.7457 102.36C47.4777 102.513 47.2603 102.404 47.2603 102.117C47.2603 101.829 47.4776 101.471 47.7453 101.318Z" fill="#8338EC"/>
<path d="M47.7452 112.892L52.7958 109.981C53.0636 109.827 53.282 109.936 53.2835 110.225C53.2852 110.513 53.069 110.871 52.801 111.025L47.7456 113.934C47.4776 114.088 47.2603 113.979 47.2603 113.691C47.2603 113.404 47.4775 113.046 47.7452 112.892Z" fill="#8338EC"/>
<path d="M47.7453 115.105L51.4698 112.959C51.7376 112.806 51.9562 112.915 51.9577 113.203C51.9593 113.492 51.7432 113.85 51.4751 114.003L47.7457 116.147C47.4777 116.3 47.2603 116.191 47.2603 115.904C47.2603 115.616 47.4776 115.258 47.7453 115.105Z" fill="#8338EC"/>
<path d="M47.7452 126.646L52.7958 123.735C53.0636 123.581 53.282 123.69 53.2835 123.979C53.2852 124.267 53.069 124.625 52.801 124.779L47.7456 127.688C47.4776 127.841 47.2603 127.733 47.2603 127.445C47.2603 127.158 47.4775 126.8 47.7452 126.646Z" fill="#8338EC"/>
<path d="M47.7453 128.858L51.4698 126.713C51.7376 126.559 51.9562 126.669 51.9577 126.957C51.9593 127.246 51.7432 127.604 51.4751 127.757L47.7457 129.901C47.4777 130.054 47.2603 129.945 47.2603 129.658C47.2603 129.37 47.4776 129.012 47.7453 128.858Z" fill="#8338EC"/>
<path d="M47.7452 87.5548L51.4698 85.4095C51.7376 85.2558 51.9561 85.365 51.9576 85.6534C51.9592 85.9419 51.7432 86.3001 51.4751 86.4536L47.7456 88.597C47.4776 88.7504 47.2603 88.6416 47.2603 88.354C47.2603 88.0665 47.4775 87.7086 47.7452 87.5548Z" fill="black"/>
<path d="M47.7452 101.318L51.4698 99.1722C51.7376 99.0185 51.9561 99.1276 51.9576 99.4162C51.9592 99.7046 51.7432 100.063 51.4751 100.216L47.7456 102.36C47.4776 102.513 47.2603 102.404 47.2603 102.117C47.2603 101.829 47.4775 101.471 47.7452 101.318Z" fill="black"/>
<path d="M47.7452 115.105L51.4698 112.959C51.7376 112.806 51.9561 112.915 51.9576 113.203C51.9592 113.492 51.7432 113.85 51.4751 114.003L47.7456 116.147C47.4776 116.3 47.2603 116.191 47.2603 115.904C47.2603 115.616 47.4775 115.258 47.7452 115.105Z" fill="black"/>
<path d="M47.7452 128.858L51.4698 126.713C51.7376 126.559 51.9561 126.669 51.9576 126.957C51.9592 127.246 51.7432 127.604 51.4751 127.757L47.7456 129.901C47.4776 130.054 47.2603 129.945 47.2603 129.658C47.2603 129.37 47.4775 129.012 47.7452 128.858Z" fill="black"/>
<path d="M135.336 77.7002C134.286 78.1914 132.807 78.9806 132.101 79.4332C125.395 83.728 120.272 93.6328 120.659 101.556C120.681 102.012 120.723 102.45 120.78 102.872L135.336 94.5145L135.336 77.7002Z" fill="#219884"/>
<path d="M110.425 49.6996L111.621 63.2674L122.332 55.8093L121.135 42.2418L110.425 49.6996Z" fill="#BBBABA"/>
<path d="M125.088 54.8119C125.088 54.8119 124.62 55.7876 122.75 57.089C121.7 57.8205 113.314 63.6583 113.314 63.6583L111.082 51.9662L121.794 44.5065L123.027 51.2783C123.227 52.3839 123.532 53.9907 125.088 54.8119Z" fill="#8338EC"/>
<path d="M121.801 44.5112L111.084 51.9726L110.899 49.889L121.617 42.4269L121.801 44.5112Z" fill="#8338EC"/>
<path d="M121.801 44.5111L111.084 51.9725L110.899 49.8888L121.617 42.4269L121.801 44.5111Z" fill="#219884"/>
<path d="M121.187 50.3895C121.091 50.0774 120.978 49.7753 120.844 49.4777C120.83 49.4459 120.814 49.4123 120.797 49.3777C120.891 49.0082 120.86 48.6414 120.545 48.3844C120.498 48.3461 120.376 48.3098 120.352 48.3984C120.274 48.6823 120.374 48.9911 120.497 49.2817C120.424 49.5172 120.303 49.7472 120.219 49.8974C120.115 50.0837 119.999 50.2655 119.867 50.4332C119.707 50.6359 119.466 50.9311 119.19 50.9615C119.008 50.9816 118.895 50.8806 118.826 50.7294C118.9 50.601 118.97 50.471 119.033 50.3385C119.163 50.0641 119.31 49.7151 119.324 49.4059C119.336 49.1351 119.127 48.9479 118.855 49.0348C118.548 49.1328 118.478 49.5532 118.441 49.827C118.404 50.1031 118.418 50.3861 118.511 50.6493C118.445 50.7612 118.383 50.8794 118.299 50.9788C118.265 51.0178 118.229 51.0465 118.191 51.0782C118.188 51.0417 118.175 50.991 118.174 50.9777C118.165 50.8859 118.015 50.757 117.926 50.8403C117.695 51.0559 117.674 51.3723 117.545 51.6444C117.513 51.7122 117.476 51.7639 117.426 51.8183C117.365 51.8841 117.356 51.8891 117.321 51.8123C117.263 51.6828 117.218 51.5495 117.132 51.4343C117.078 51.3615 116.918 51.3009 116.862 51.4075C116.778 51.5676 116.733 51.7377 116.7 51.9106C116.539 51.7332 116.284 51.7966 116.134 51.9692C115.947 52.1824 115.814 52.4691 115.693 52.7237C115.659 52.7968 115.628 52.8733 115.585 52.9422C115.573 52.9612 115.561 52.9825 115.546 53.0021C115.541 52.9954 115.534 52.9844 115.527 52.9561C115.479 52.7421 115.475 52.536 115.46 52.3176C115.46 52.3175 115.459 52.3174 115.458 52.3173C115.457 52.3047 115.459 52.2926 115.457 52.28C115.439 52.1299 115.107 52.071 115.119 52.2467C115.121 52.2718 115.122 52.2983 115.123 52.3243C115.17 52.8864 114.774 53.4322 114.37 53.7833C114.238 53.8979 113.908 54.1828 113.71 54.1067C113.547 54.044 113.538 53.7374 113.534 53.5987C113.522 53.1452 113.625 52.6468 113.809 52.2337C113.9 52.0305 114.024 51.826 114.208 51.6935C114.315 51.6164 114.472 51.5457 114.607 51.5805C114.793 51.6287 114.792 51.8359 114.759 51.9899C114.745 52.0539 114.854 52.1811 114.895 52.088C115.126 51.5584 114.628 51.1461 114.116 51.3805C113.639 51.5989 113.427 52.1552 113.31 52.6291C113.201 53.0726 113.073 53.6845 113.312 54.1086C113.601 54.6213 114.208 54.3497 114.559 54.0674C114.856 53.8291 115.128 53.5109 115.296 53.1542C115.319 53.1826 115.343 53.2101 115.372 53.2346C115.642 53.4601 115.845 53.2108 115.96 52.9731C116.086 52.7113 116.207 52.403 116.397 52.1801C116.42 52.153 116.453 52.1302 116.474 52.102C116.476 52.0988 116.476 52.0979 116.478 52.0953C116.5 52.158 116.513 52.2247 116.525 52.2902C116.551 52.4318 116.567 52.5751 116.582 52.718C116.598 52.8571 116.871 52.9447 116.901 52.7735C116.956 52.4628 116.962 52.1355 117.049 51.8316C117.167 52.0342 117.314 52.2172 117.568 52.0847C117.875 51.9245 117.871 51.5361 118.006 51.2493C118.091 51.3617 118.218 51.417 118.385 51.3123C118.497 51.2418 118.581 51.1263 118.652 51.0169C118.662 51.0013 118.671 50.9847 118.681 50.969C118.854 51.18 119.114 51.2958 119.402 51.2124C119.78 51.103 120.057 50.7475 120.271 50.4382C120.406 50.2438 120.567 49.9855 120.684 49.7104C120.689 49.7238 120.696 49.7381 120.701 49.7513C120.829 50.0806 120.937 50.4365 120.998 50.7843C121.014 50.8733 121.026 50.97 121.034 51.0686C120.633 50.9224 120.194 51.1854 119.964 51.5234C119.755 51.8311 119.728 52.4003 120.163 52.5376C120.522 52.6509 120.894 52.3203 121.099 52.0653C121.474 51.598 121.35 50.9192 121.187 50.3895ZM118.76 49.8055C118.781 49.6888 118.806 49.568 118.856 49.4598C118.873 49.4218 118.895 49.3736 118.925 49.3436C118.952 49.317 119.046 49.2715 119.039 49.2675C119.036 49.2659 119.016 49.4414 119.006 49.4882C118.987 49.5729 118.959 49.6556 118.933 49.7382C118.877 49.9102 118.809 50.0739 118.732 50.2339C118.728 50.0658 118.742 49.9067 118.76 49.8055ZM120.521 52.1649C120.361 52.2708 120.194 52.3595 120.154 52.1149C120.089 51.713 120.624 51.1706 121.034 51.337C121.024 51.4856 120.994 51.6305 120.922 51.7525C120.825 51.9147 120.678 52.0608 120.521 52.1649Z" fill="#455A63"/>
<path d="M114.706 55.8417C114.585 56.1944 114.523 56.5761 114.338 56.904C114.195 57.1567 113.924 57.3712 113.913 57.6798C113.911 57.7222 113.974 57.8249 114.023 57.7716C114.249 57.5268 114.517 57.2532 114.664 56.9514C114.67 56.94 114.673 56.9282 114.679 56.9168C114.649 57.2625 114.612 57.6082 114.607 57.9541C114.601 58.3102 114.586 58.6658 114.573 59.0216C114.561 59.365 114.591 59.7271 114.553 60.0674C114.532 60.2414 114.854 60.3315 114.89 60.1415C114.921 59.9825 114.893 59.7903 114.896 59.627C114.899 59.4357 114.906 59.2447 114.913 59.0535C114.925 58.6982 114.938 58.3431 114.944 57.9875C114.956 57.2906 115.084 56.5999 115.019 55.9019C115.005 55.7524 114.759 55.6874 114.706 55.8417Z" fill="#455A63"/>
<path d="M117.24 55.6329C117.161 55.5207 117.06 55.4261 116.933 55.3689C116.818 55.3164 116.617 55.2621 116.504 55.3495C116.49 55.3367 116.476 55.3251 116.462 55.3224C116.083 55.2528 115.86 55.5984 115.715 55.8957C115.572 56.1882 115.49 56.5051 115.401 56.8171C115.247 57.3626 115.142 58.2763 115.739 58.6094C116.272 58.9066 116.826 58.5552 117.1 58.0926C117.388 57.6065 117.518 57.0033 117.483 56.4411C117.466 56.1633 117.404 55.8642 117.24 55.6329ZM116.86 57.7571C116.713 58.0746 116.402 58.5002 115.993 58.3999C115.759 58.3423 115.682 58.0657 115.656 57.8573C115.622 57.5886 115.649 57.3017 115.714 57.0396C115.785 56.7561 115.869 56.4727 115.973 56.1998C116.062 55.9674 116.216 55.56 116.502 55.5099C116.512 55.5197 116.523 55.5286 116.535 55.5327C116.643 55.5714 116.744 55.5852 116.808 55.6271C116.862 55.6626 116.902 55.7038 116.941 55.7641C117.05 55.9338 117.09 56.1414 117.107 56.339C117.148 56.8196 117.064 57.3192 116.86 57.7571Z" fill="#455A63"/>
<path d="M123.125 55.0483C122.955 54.7543 122.849 54.4252 122.709 54.1165C122.589 53.8492 122.449 53.5264 122.191 53.3618C122.124 53.3188 121.99 53.2893 121.949 53.3873C121.791 53.7583 121.684 54.1308 121.674 54.5174C121.613 54.45 121.549 54.3854 121.474 54.3289C121.413 54.2828 121.305 54.2689 121.249 54.3296C121.187 54.3955 121.147 54.4677 121.119 54.5437C121.029 54.3795 120.916 54.2335 120.764 54.134C120.701 54.0922 120.593 54.0725 120.536 54.138C120.188 54.5405 120.347 55.2482 120.292 55.7345C120.282 55.8233 120.274 55.9663 120.208 56.0351C120.136 56.1109 120.104 56.041 120.05 55.9663C119.941 55.8155 119.853 55.6185 119.807 55.4246C119.799 55.3642 119.789 55.3033 119.778 55.2423C119.778 55.238 119.776 55.2336 119.776 55.2294L119.776 55.2294C119.773 55.2169 119.772 55.2044 119.769 55.1918C119.741 55.0407 119.404 55.0138 119.426 55.1922C119.486 55.6189 119.474 55.9791 119.27 56.367C119.182 56.5343 118.816 57.1641 118.606 56.825C118.454 56.5795 118.62 56.2044 118.74 55.9809C118.875 55.7307 119.073 55.4332 119.335 55.3024C119.333 55.3006 119.331 55.2987 119.329 55.2969C119.398 55.2478 119.322 55.1173 119.24 55.1278C118.833 55.1803 118.529 55.6436 118.367 55.9818C118.198 56.3338 118.101 56.8131 118.451 57.0908C118.869 57.4218 119.284 57.0321 119.503 56.6771C119.616 56.494 119.716 56.2905 119.774 56.0819C119.78 56.0897 119.785 56.0995 119.791 56.1073C119.949 56.3146 120.259 56.4785 120.473 56.2427C120.671 56.025 120.64 55.6254 120.645 55.3552C120.649 55.1016 120.614 54.7346 120.725 54.474C120.907 54.6939 120.997 55.0257 121.057 55.2796C121.088 55.4116 121.368 55.4858 121.379 55.3087C121.392 55.1017 121.351 54.8531 121.434 54.6559C121.547 54.7789 121.637 54.9224 121.73 55.0613C121.799 55.1638 122.075 55.2191 122.034 55.0239C121.936 54.5589 122.02 54.1324 122.18 53.7037C122.321 53.875 122.409 54.1105 122.491 54.2997C122.606 54.5642 122.702 54.8415 122.848 55.0914C122.925 55.2223 123.223 55.2162 123.125 55.0483Z" fill="#455A63"/>
<path d="M109.276 50.6243C109.201 49.7775 109.711 48.694 110.415 48.2042C110.779 47.9502 111.123 47.9095 111.381 48.0434L111.383 48.0403L112.024 48.3493L111.816 48.8023C111.818 48.8192 111.823 48.8328 111.825 48.8503C111.9 49.697 111.39 50.7804 110.686 51.2705C110.684 51.2716 110.683 51.2718 110.681 51.2729L110.446 51.7854L109.748 51.4496C109.746 51.4484 109.743 51.447 109.741 51.4458L109.717 51.4343L109.718 51.4309C109.478 51.3064 109.311 51.0319 109.276 50.6243Z" fill="#37464F"/>
<path d="M112.516 49.1825C112.591 50.0292 112.081 51.1128 111.377 51.6028C110.673 52.0927 110.042 51.8033 109.967 50.9567C109.892 50.1099 110.402 49.0264 111.106 48.5364C111.81 48.0465 112.441 48.3358 112.516 49.1825Z" fill="#455A63"/>
<path d="M78.9492 96.2143L80.1455 109.782L90.8561 102.324L89.6598 88.7565L78.9492 96.2143Z" fill="#C3C2C2"/>
<path d="M93.612 101.327C93.612 101.327 93.144 102.302 91.2745 103.604C90.2241 104.335 81.8387 110.173 81.8387 110.173L79.6062 98.4807L90.3181 91.0212L91.5518 97.793C91.7515 98.8987 92.0565 100.505 93.612 101.327Z" fill="#8338EC"/>
<path d="M90.3252 91.0258L79.6079 98.4873L79.4233 96.4035L90.1414 88.9416L90.3252 91.0258Z" fill="#8338EC"/>
<path d="M90.3252 91.0258L79.6079 98.4873L79.4233 96.4035L90.1414 88.9416L90.3252 91.0258Z" fill="#219884"/>
<path d="M77.7997 97.1389C77.725 96.2922 78.235 95.2087 78.9387 94.7189C79.3035 94.4649 79.6469 94.424 79.9054 94.5581L79.907 94.555L80.548 94.864L80.3401 95.3168C80.342 95.3338 80.3473 95.3474 80.3489 95.3649C80.4241 96.2116 79.914 97.2951 79.2099 97.785C79.2084 97.7861 79.2069 97.7866 79.2054 97.7876L78.9699 98.3002L78.2726 97.9644C78.2699 97.9632 78.2674 97.9618 78.2649 97.9606L78.241 97.9491L78.2427 97.9456C78.0027 97.8211 77.8357 97.5467 77.7997 97.1389Z" fill="#37464F"/>
<path d="M81.0405 95.6971C81.1155 96.5438 80.6055 97.6275 79.9015 98.1175C79.1973 98.6074 78.566 98.3179 78.4913 97.4713C78.4166 96.6245 78.9266 95.5411 79.6303 95.0511C80.334 94.5611 80.9654 94.8503 81.0405 95.6971Z" fill="#455A63"/>
<path d="M90.4075 97.0586C90.413 97.0612 90.4182 97.0644 90.4238 97.0671C90.4315 97.0708 90.4396 97.0738 90.4476 97.0775C90.4342 97.0712 90.4208 97.0648 90.4075 97.0586Z" fill="#455A63"/>
<path d="M90.6912 97.3836C90.6822 97.3467 90.6699 97.31 90.6523 97.2763C90.6453 97.2628 90.6338 97.2539 90.6258 97.242C90.6247 97.2377 90.6252 97.2343 90.6235 97.2295C90.6049 97.1754 90.5612 97.1398 90.5109 97.1176C90.4831 97.0982 90.4538 97.0812 90.423 97.0665C90.4043 97.0576 90.3859 97.0482 90.366 97.0417C90.3239 97.028 90.2828 97.0228 90.2425 97.0438C90.227 97.05 90.2147 97.0605 90.2056 97.0751C90.1935 97.0942 90.1882 97.115 90.1898 97.1375C90.1885 97.1596 90.1926 97.1815 90.196 97.2032C90.1847 97.2279 90.1767 97.2544 90.1709 97.2809C90.1642 97.3114 90.1613 97.3425 90.1596 97.3737C90.1581 97.4011 90.1641 97.4273 90.1717 97.4538C90.1896 97.5172 90.2459 97.5705 90.3032 97.5997C90.3715 97.6347 90.4486 97.6462 90.5242 97.6511C90.5661 97.6537 90.6214 97.6438 90.6544 97.6156C90.6641 97.6056 90.6737 97.5956 90.6834 97.5858C90.6999 97.5621 90.7077 97.5357 90.7068 97.5071C90.7099 97.4664 90.7007 97.4224 90.6912 97.3836Z" fill="#455A63"/>
<path d="M89.6041 98.5829C89.6389 98.5709 89.6737 98.5603 89.7086 98.5517C89.8663 98.5124 89.7295 98.2937 89.603 98.3136C89.5655 98.3196 89.5286 98.3314 89.4913 98.3407C89.452 98.26 89.4129 98.1785 89.3725 98.0999C89.04 97.4516 88.6499 96.7893 88.1029 96.2963C88.0236 96.2247 87.8425 96.2164 87.8508 96.3608C87.8809 96.885 87.8054 97.4083 87.71 97.9228C87.7045 97.9208 87.7002 97.9171 87.6949 97.9147C87.6582 97.7488 87.609 97.5889 87.5372 97.444C87.4814 97.3312 87.2406 97.2531 87.2415 97.4419C87.2422 97.6283 87.2901 97.8115 87.3844 97.9526C87.4235 98.1839 87.4387 98.4227 87.4519 98.6422C87.4823 99.148 87.4752 99.6771 87.3709 100.175C87.307 100.48 87.1748 100.924 86.775 100.813C86.7715 100.811 86.7687 100.809 86.7652 100.808C86.7773 100.712 86.7863 100.618 86.7955 100.536C86.8863 99.7383 87.0548 98.3843 86.0275 98.1067C85.9779 98.0933 85.9194 98.1043 85.8985 98.1565C85.7246 98.5922 85.7643 99.1335 85.8221 99.5882C85.8821 100.06 86.0318 100.632 86.4386 100.931C86.4057 101.078 86.3502 101.211 86.247 101.296C85.9671 101.528 85.532 101.068 85.3682 100.883C85.3151 100.823 85.1866 100.757 85.1152 100.834C84.8167 101.157 84.8402 101.648 84.9043 102.106C84.8488 102.068 84.7736 102.049 84.7151 102.083C84.4524 102.237 84.3928 102.479 84.4038 102.743C84.2033 102.45 83.9506 102.261 83.6312 102.51C83.4515 102.651 83.3532 102.831 83.3054 103.031C83.2074 102.689 83.0805 102.305 82.7955 102.091C82.5354 101.897 82.1616 101.916 81.9526 102.171C81.7239 102.451 81.693 102.871 81.7065 103.216C81.714 103.408 81.7372 103.605 81.8092 103.785C81.8321 103.842 81.866 103.938 81.9426 103.941C82.022 103.944 82.0394 103.875 82.012 103.81C81.8685 103.471 81.9232 102.047 82.5458 102.24C82.8773 102.342 82.9774 102.989 83.0487 103.272C83.1844 103.809 83.3526 104.338 83.4954 104.874C83.5392 105.039 83.8445 105.085 83.8282 104.874C83.7807 104.262 83.4128 103.5 83.741 102.915C83.7807 102.844 83.8846 102.677 83.9833 102.703C84.0716 102.726 84.1491 102.885 84.1906 102.956C84.3226 103.18 84.4085 103.43 84.5475 103.65C84.6233 103.77 84.881 103.818 84.8655 103.616C84.8416 103.304 84.5921 102.727 84.8125 102.435C84.8801 102.528 84.9433 102.623 85.0015 102.724C85.0681 102.84 85.3385 102.899 85.3148 102.699C85.2628 102.263 85.0675 101.603 85.2901 101.173C85.5592 101.424 85.9148 101.695 86.2757 101.613C86.5397 101.554 86.6561 101.326 86.7172 101.074C87.0513 101.178 87.3877 101.061 87.5582 100.717C87.7973 100.234 87.8107 99.627 87.7985 99.1005C87.792 98.8182 87.7852 98.5022 87.7444 98.1948C87.7922 98.2031 87.8433 98.206 87.8982 98.2024C87.9451 98.1992 87.9875 98.1649 87.9969 98.1189C88.0922 97.657 88.1691 97.1937 88.1676 96.7241C88.5366 97.1258 88.8222 97.6229 89.0682 98.0953C89.1249 98.2041 89.1813 98.3158 89.2359 98.4291C88.8221 98.6196 88.4825 99.0038 88.496 99.4739C88.5081 99.8999 88.9192 100.375 89.3267 100.484C89.8403 100.622 89.9976 100.067 89.9441 99.6697C89.8938 99.2966 89.7611 98.9324 89.6041 98.5829ZM86.1061 99.7334C86.019 99.3149 85.9821 98.8048 86.1203 98.3841C86.7063 98.6805 86.5567 99.7602 86.5039 100.281C86.4939 100.38 86.4896 100.499 86.4806 100.622C86.2656 100.387 86.1629 100.007 86.1061 99.7334ZM89.4686 100.223C89.2725 100.295 89.0485 100.032 88.9512 99.8958C88.6241 99.4369 88.931 98.9526 89.357 98.6995C89.4802 98.9855 89.5838 99.2804 89.6319 99.5803C89.6608 99.7605 89.6994 100.139 89.4686 100.223Z" fill="#455A63"/>
<path d="M89.8296 95.7847C89.6712 95.4099 89.4563 95.0576 89.2363 94.7159C89.1203 94.5359 89.003 94.3563 88.8939 94.172C88.7945 94.0043 88.7029 93.8266 88.5937 93.6654C88.5335 93.5767 88.2926 93.5293 88.3159 93.6966C88.3432 93.8909 88.4319 94.0951 88.5175 94.2708C88.6098 94.4604 88.7107 94.6453 88.8131 94.8296C89.0044 95.1747 89.2085 95.5138 89.36 95.8788C89.4347 96.0585 89.4787 96.3333 89.7362 96.2926C90.0223 96.2475 89.9016 95.9552 89.8296 95.7847Z" fill="#455A63"/>
<path d="M144.012 81.8774L144.013 81.8767L143.994 81.8672C143.993 81.8668 143.993 81.8664 143.992 81.8661L140.665 79.948C140.664 79.9472 140.662 79.9466 140.661 79.9457L140.635 79.9324L140.634 79.9334C138.538 78.8771 135.738 79.1874 132.724 81.1179C126.668 84.9963 122.041 93.9409 122.391 101.096C122.565 104.662 123.943 107.11 126.031 108.189L126.031 108.19L126.049 108.199C126.05 108.2 126.051 108.2 126.051 108.2L129.379 110.119L129.381 110.12L129.403 110.131L129.404 110.13C131.5 111.19 134.302 110.881 137.319 108.949C143.375 105.07 148.002 96.1256 147.652 88.9705C147.478 85.4042 146.1 82.9563 144.012 81.8774Z" fill="#37464F"/>
<path d="M129.226 110.037L126.053 108.2L126.049 108.2L126.029 108.188C123.942 107.107 122.565 104.659 122.391 101.097C122.235 97.9063 123.071 94.3612 124.577 91.0703L127.906 92.9882C126.396 96.2792 125.564 99.824 125.719 103.015C125.89 106.505 127.213 108.923 129.226 110.037Z" fill="#253138"/>
<path d="M132.244 108.45C128.674 108.622 128.093 104.63 128.008 102.905C127.7 96.5944 131.952 88.3729 137.294 84.9527C138.653 84.0819 139.979 83.5922 141.129 83.5367C144.699 83.3643 145.281 87.3567 145.365 89.0811C145.673 95.3916 141.421 103.613 136.08 107.034C134.72 107.904 133.394 108.394 132.245 108.45H132.244Z" fill="#F9F9F9"/>
<path d="M137.34 97.1893C137.298 97.1858 137.256 97.1754 137.216 97.1578C137.065 97.0913 136.972 96.936 136.986 96.7713L137.771 87.6687C137.789 87.4557 137.977 87.2977 138.191 87.3156C138.405 87.3336 138.563 87.5206 138.544 87.7336L137.857 95.7134L142.587 90.6185C142.733 90.4614 142.979 90.4516 143.136 90.5966C143.294 90.7417 143.303 90.9864 143.158 91.1435L137.659 97.0662C137.576 97.1556 137.457 97.1991 137.34 97.1893Z" fill="#37464F"/>
<path d="M138.613 85.8678C138.631 85.8656 138.65 85.8671 138.668 85.8736C138.757 85.9034 138.814 86.0251 138.795 86.1453L137.255 96.2261C137.237 96.3464 137.15 96.42 137.062 96.3893C136.973 96.3595 136.917 96.2375 136.935 96.1173L138.475 86.0369C138.489 85.9419 138.547 85.8762 138.613 85.8678Z" fill="#8338EC"/>
<path d="M137.768 97.9553C137.184 98.5636 136.517 98.4003 136.279 97.5905C136.041 96.7807 136.323 95.631 136.908 95.0227C137.492 94.4145 138.159 94.5779 138.397 95.3876C138.635 96.1974 138.353 97.3471 137.768 97.9553Z" fill="#8338EC"/>
<path d="M55.6385 156.839C53.3596 157.995 59.117 162.027 61.9653 160.472L111.867 131.413L117.857 125.128C118.138 124.833 117.843 124.358 117.451 124.477L105.895 127.985L55.6385 156.839Z" fill="#DFDFDF"/>
<path d="M106.354 123.563L116.985 121.492C117.294 121.432 117.505 121.796 117.296 122.031L110.083 130.153L106.354 123.563Z" fill="#FFA8A7"/>
<path d="M117.296 122.031C117.505 121.796 117.295 121.432 116.985 121.492L114.91 121.896C115.491 122.254 115.822 122.906 115.768 123.584L115.753 123.768L117.296 122.031Z" fill="#253138"/>
<path d="M70.4393 152.762L71.3088 152.266L72.3608 151.671L110.083 130.154C110.477 129.006 110.286 127.748 109.787 126.647C109.033 124.969 107.569 123.645 106.356 123.567L68.6572 145.072L66.6509 146.217C67.991 145.547 71.7744 152.073 70.4393 152.762Z" fill="#8338EC"/>
<path d="M73.7569 150.884L75.6971 149.772C76.2703 149.469 75.9419 148.069 75.2712 146.622C74.3852 144.696 72.6398 142.833 71.8796 143.234L70.4478 144.05L69.9412 144.351C70.7014 143.95 72.4482 145.813 73.3346 147.739C73.9755 149.127 74.3004 150.477 73.8144 150.844L73.8085 150.847C73.7952 150.864 73.7784 150.874 73.7569 150.884Z" fill="#EBEBEB"/>
<path d="M74.2387 150.603C75.5712 149.9 71.7558 143.366 70.423 144.068L68.4771 145.175C69.8098 144.472 73.6248 151.006 72.2921 151.708L74.2387 150.603Z" fill="#8338EC"/>
<path d="M70.4394 152.762L72.3608 151.67C73.6741 150.99 70.046 144.654 68.6572 145.071C68.6319 145.076 68.6048 145.089 68.5775 145.102L66.6509 146.216C67.991 145.547 71.7745 152.073 70.4394 152.762Z" fill="#EBEBEB"/>
<path d="M62.2901 157.399L70.4394 152.762C71.0109 152.468 70.6939 151.081 70.0358 149.641C69.1553 147.712 67.4174 145.831 66.651 146.217C66.6465 146.215 66.6465 146.215 66.6407 146.219L58.4661 150.874C56.8428 151.806 58.3359 155.314 60.1468 156.88C60.8203 157.471 61.5741 157.734 62.2901 157.399Z" fill="#F18F8F"/>
<path d="M154.885 49.0986L156.142 54.7685L161.551 53.9347L160.237 47.302L154.885 49.0986Z" fill="#FFA8A7"/>
<path d="M154.952 49.4169L154.736 48.5919C154.736 48.5919 153.494 49.4879 151.985 49.5198C152.537 49.7238 153.913 49.6563 154.952 49.4169Z" fill="#F18F8F"/>
<path d="M150.31 42.4841C150.31 42.4841 149.17 44.6758 149.346 44.8613C149.522 45.0469 150.539 45.1258 150.539 45.1258L150.31 42.4841Z" fill="#F18F8F"/>
<path d="M153.485 36.4121C150.799 37.2728 150.133 38.5579 150.335 42.9328C150.546 47.5042 151.163 48.8846 151.826 49.4347C152.275 49.8057 154.53 49.6486 155.631 49.2202C157.009 48.6841 160.095 47.2213 161.355 44.7809C162.837 41.9098 162.915 38.2177 160.866 36.9178C157.981 35.0883 154.579 36.0619 153.485 36.4121Z" fill="#FFA8A7"/>
<path d="M149.708 38.6229C149.691 39.042 149.805 39.4675 150.048 39.8112C150.472 40.4123 151.266 40.7301 151.989 40.5886C151.865 40.6128 152.404 41.1655 152.449 41.1962C152.674 41.3467 152.929 41.4555 153.2 41.3978C153.362 41.9976 153.385 42.6405 154.094 42.8593C154.094 42.8593 154.351 41.1349 155.794 41.1996C157.247 41.2648 157.632 43.0612 156.848 44.2575C156.068 45.4463 155.19 45.1217 155.178 45.1176C155.266 45.1504 155.351 45.6829 155.391 45.7813C155.515 46.0869 155.671 46.387 155.854 46.6621C156.224 47.2187 156.72 47.6926 157.298 48.031C157.788 48.3177 158.359 48.5695 158.934 48.6018C159.456 48.6313 160.035 48.3372 160.549 48.2167C161.673 46.3021 162.576 44.2577 163.232 42.1371C163.522 41.2002 163.804 40.1755 163.716 39.1842C163.643 38.3716 163.514 37.5066 162.944 36.8721C162.467 36.341 161.764 36.0174 161.05 35.9999C160.861 35.116 160.138 34.407 159.299 34.0626C158.46 33.7181 157.519 33.6971 156.62 33.8147C155.722 33.9323 154.846 34.1819 153.958 34.3637C152.101 34.7439 150.266 34.796 148.377 34.8197C148.31 34.8206 148.238 34.8231 148.186 34.8633C148.123 34.9106 148.106 34.9956 148.096 35.0732C147.937 36.3399 148.646 37.5588 149.97 37.7298C149.808 37.9994 149.721 38.3092 149.708 38.6229Z" fill="#253138"/>
<path d="M154.162 43.8213L154.012 41.916C153.484 41.9564 153.09 42.4156 153.131 42.9418C153.173 43.4679 153.635 43.8616 154.162 43.8213Z" fill="#253138"/>
<path d="M163.269 50.3673C165.304 50.2392 166.343 50.5256 167.289 52.2576C168.234 53.9897 168.685 59.2056 169.05 61.8924C169.416 64.5794 169.529 66.4776 168.42 66.7737C167.311 67.0696 162.978 67.2623 162.978 67.2623L163.269 50.3673Z" fill="#455A63"/>
<path d="M169.419 120.237C169.675 120.335 169.737 120.821 169.771 121.786C169.797 122.516 169.948 123.791 169.087 124.041C168.226 124.291 166.967 124.154 166.42 123.463C165.737 122.601 165.276 121.842 164.3 120.789C163.453 119.875 162.536 119.022 162.199 117.745C161.894 116.591 162.156 116.093 162.947 115.762C164.036 115.307 165.735 116.821 166.586 117.063C167.318 117.271 169.164 120.14 169.419 120.237Z" fill="#253138"/>
<path d="M169.424 119.343L169.418 120.528C169.418 120.528 168.175 121.468 166.409 120.593C166.357 120.478 166.105 118.896 166.105 118.896L169.424 119.343Z" fill="#FFA8A7"/>
<path d="M159.738 127.013C159.738 127.013 160.075 128.045 160.254 128.948C160.397 129.665 160.601 130.863 160.346 131.401C160.091 131.938 159.106 132.28 157.581 132.261C156.594 132.248 155.051 132.907 153.995 133.486C152.903 134.085 150.639 134.313 149.488 134.173C148.133 134.007 146.731 133.217 146.515 132.657C146.298 132.097 146.592 131.518 149.796 130.18C149.825 130.167 154.248 128.762 155.803 127.072L159.738 127.013Z" fill="#253138"/>
<path d="M159.746 125.732C159.746 125.732 159.737 126.611 159.738 127.114C159.74 127.616 159.14 128.362 157.596 128.299C156.512 128.254 155.757 127.96 155.804 127.072L155.811 125.791L159.746 125.732Z" fill="#FFA8A7"/>
<path d="M170.277 103.631C169.751 99.7579 168.902 97.4547 168.902 97.4547C168.902 97.4547 169.354 92.1345 169.583 87.0892C169.83 81.6396 170.099 78.8308 168.885 70.9871C168.885 70.9871 152.085 69.7744 151.739 76.0738C151.392 82.3731 152.325 98.4182 152.52 101.187C152.715 103.957 153.184 106.407 153.736 110.897C154.281 115.328 155.819 125.793 155.819 125.793C157.833 126.89 159.752 125.734 159.752 125.734C159.752 125.734 161.059 113.141 160.944 109.947C160.804 106.046 159.762 102.969 159.762 102.969C159.762 102.969 160.123 97.7748 160.442 93.2572C160.76 88.7394 161.085 86.5704 161.163 84.6049L161.544 84.4194C161.544 84.4194 161.893 92.218 162.088 94.9873C162.283 97.7564 162.713 100.413 163.492 105.559C164.167 110.023 166.2 119.471 166.2 119.471C168.213 120.568 169.424 119.346 169.424 119.346C169.424 119.346 170.803 107.504 170.277 103.631Z" fill="#455A63"/>
<path d="M161.166 84.6054C161.166 84.6054 165.465 82.5257 167.622 80.6406C167.622 80.6406 165.615 83.4241 162.992 84.6488C162.992 84.6488 162.013 94.3293 162.019 94.1372L161.529 84.5932L161.166 84.6054Z" fill="#37464F"/>
<path d="M155.403 51.132L155.483 51.489C155.483 51.489 157.097 51.7184 158.823 51.1445C160.55 50.5704 160.854 50.0358 160.854 50.0358L160.773 49.6298C160.773 49.6298 161.196 49.4218 161.499 50.073C161.802 50.7244 161.842 50.8701 161.842 50.8701C161.842 50.8701 162.176 52.0826 160.164 52.9254C157.27 54.1379 154.93 52.8957 154.93 52.8957L154.133 53.1512C154.133 53.1512 154.666 51.4591 154.845 51.1089C155.023 50.7585 155.324 50.775 155.324 50.775L155.403 51.132Z" fill="#455A63"/>
<path d="M167.078 53.2327C166.614 51.6577 164.318 50.1895 162.369 50.7151C161.916 50.8371 161.476 50.959 161.047 51.0807C160.911 52.07 158.322 52.9473 155.724 52.6138C154.981 52.8926 152.515 53.6213 151.901 53.8974C150.143 54.6881 149.58 56.5523 149.924 62.5025C149.924 62.5025 151.489 75.895 151.701 78.5731C156.4 80.0008 161.127 79.5646 163.695 78.7848C169.041 77.1614 169.511 74.8582 169.511 74.8582L168.049 68.8083C168.049 68.8083 168.125 56.7952 167.078 53.2327Z" fill="#8338EC"/>
<path d="M134.744 66.2555L134.563 66.2109C134.416 66.1749 134.248 66.0718 134.187 65.9808L128.529 57.4751C128.468 57.384 128.489 57.2658 128.576 57.2109L132.368 53.6905C132.454 53.6356 132.643 53.6203 132.79 53.6565L132.971 53.7009C133.118 53.737 133.287 53.8401 133.347 53.9312L139.006 62.4368C139.066 62.5279 139.045 62.6462 138.959 62.7011L135.166 66.2213C135.08 66.2763 134.891 66.2915 134.744 66.2555Z" fill="#8338EC"/>
<path d="M134.744 66.2555L134.563 66.2109C134.416 66.1749 134.248 66.0718 134.187 65.9808L128.529 57.4751C128.468 57.384 128.489 57.2658 128.576 57.2109L132.368 53.6905C132.454 53.6356 132.643 53.6203 132.79 53.6565L132.971 53.7009C133.118 53.737 133.287 53.8401 133.347 53.9312L139.006 62.4368C139.066 62.5279 139.045 62.6462 138.959 62.7011L135.166 66.2213C135.08 66.2763 134.891 66.2915 134.744 66.2555Z" fill="black"/>
<path d="M135.129 66.2381C135.033 66.2796 134.868 66.2881 134.735 66.2557L134.554 66.2112C134.408 66.1749 134.24 66.0733 134.179 65.9805L128.525 57.4787C128.494 57.4335 128.486 57.3811 128.493 57.3351L129.207 57.5097C129.198 57.5555 129.207 57.608 129.237 57.6555L134.891 66.1573C134.946 66.2378 135.046 66.2692 135.129 66.2381Z" fill="#8338EC"/>
<path d="M135.129 66.2381C135.033 66.2796 134.868 66.2883 134.735 66.2558L134.554 66.2112C134.408 66.1749 134.24 66.0735 134.179 65.9806L128.525 57.4787C128.494 57.4335 128.486 57.3811 128.493 57.3351L129.207 57.5097C129.198 57.5555 129.207 57.608 129.237 57.6555L134.891 66.1573C134.946 66.2378 135.046 66.2692 135.129 66.2381Z" fill="black"/>
<path d="M129.243 57.6497L134.901 66.155C134.961 66.2461 135.08 66.2753 135.167 66.2204L138.959 62.7003C139.045 62.6453 139.066 62.527 139.005 62.436L133.348 53.9308C133.287 53.8397 133.168 53.8105 133.082 53.8654L129.289 57.3856C129.203 57.4405 129.182 57.5588 129.243 57.6497Z" fill="#8338EC"/>
<path d="M129.243 57.6497L134.901 66.155C134.961 66.2461 135.08 66.2753 135.167 66.2204L138.959 62.7003C139.045 62.6453 139.066 62.527 139.005 62.436L133.348 53.9308C133.287 53.8397 133.168 53.8105 133.082 53.8654L129.289 57.3856C129.203 57.4405 129.182 57.5588 129.243 57.6497Z" fill="black"/>
<path d="M129.994 58.0328L133.366 54.8864C133.44 54.8395 133.542 54.8645 133.594 54.9426L138.15 61.7986C138.201 61.8767 138.183 61.9781 138.11 62.0251L134.766 65.2182C134.692 65.2651 134.59 65.2401 134.538 65.1621L129.954 58.2592C129.902 58.1812 129.92 58.0798 129.994 58.0328Z" fill="white"/>
<path d="M131.157 55.9491C131.207 55.9024 131.289 55.9074 131.34 55.9603C131.391 56.013 131.391 56.0936 131.341 56.1403C131.291 56.1869 131.209 56.1819 131.158 56.1292C131.107 56.0764 131.107 55.9958 131.157 55.9491Z" fill="#253138"/>
<path d="M131.109 56.506C131.298 56.3386 131.624 56.027 131.804 55.856C131.835 55.827 131.884 55.8284 131.913 55.8589C131.943 55.8896 131.942 55.9378 131.91 55.9666L131.211 56.615C131.18 56.6438 131.131 56.6423 131.102 56.6117C131.072 56.581 131.077 56.5345 131.109 56.506Z" fill="#253138"/>
<path d="M130.932 56.6698C130.96 56.6437 131.006 56.6464 131.035 56.6761C131.063 56.7058 131.064 56.751 131.035 56.7772C131.007 56.8033 130.961 56.8005 130.933 56.7708C130.904 56.7413 130.904 56.6961 130.932 56.6698Z" fill="#253138"/>
<path d="M136.763 63.7447C136.879 63.6709 137.039 63.7103 137.12 63.8323C137.201 63.9544 137.173 64.113 137.057 64.1865C136.941 64.2602 136.782 64.221 136.7 64.0989C136.619 63.9769 136.647 63.8183 136.763 63.7447Z" fill="#253138"/>
<path d="M132.665 57.3855L133.512 58.068C133.547 58.0962 133.585 58.1001 133.614 58.0779L134.317 57.546C134.391 57.4905 134.498 57.6021 134.498 57.7348L134.502 59.0066C134.502 59.0593 134.521 59.1148 134.551 59.1551L135.286 60.1269C135.363 60.2284 135.347 60.3905 135.258 60.4013L134.414 60.5048C134.379 60.5091 134.352 60.5397 134.342 60.5866L134.093 61.7193C134.067 61.8375 133.95 61.8262 133.895 61.7L133.369 60.4922C133.347 60.4421 133.312 60.4056 133.275 60.3943L132.387 60.1225C132.294 60.0941 132.238 59.9249 132.292 59.8362L132.811 58.9861C132.833 58.9509 132.838 58.8977 132.826 58.8437L132.526 57.5432C132.494 57.4075 132.577 57.3142 132.665 57.3855Z" fill="#8338EC"/>
<path d="M145.703 75.7558C143.787 75.9873 137.97 71.1733 136.253 69.5556C134.374 67.7844 132.861 67.0827 131.497 66.517C131.177 66.384 130.815 66.2186 130.571 65.9638C130.34 65.7219 130.209 65.399 130.124 65.0807C130.012 64.6574 129.964 64.2137 129.786 63.8134C129.679 63.5732 129.524 63.3477 129.483 63.0882C129.444 62.8405 129.512 62.588 129.495 62.3378C129.473 62.0328 129.326 61.7521 129.24 61.4582C129.184 61.2649 129.158 61.0499 129.211 60.8532C129.261 60.6693 129.398 60.4718 129.496 60.3081C129.52 60.2688 129.983 59.6869 130.001 59.7128C130.002 59.7137 131.084 61.3096 131.084 61.3096L132.12 62.8374C132.411 62.9981 132.912 63.329 133.062 62.8267C133.101 62.6952 133.089 62.5541 133.069 62.418C133.004 61.9797 132.858 61.553 132.832 61.1107C132.816 60.838 132.852 60.5533 132.971 60.3052C133.049 60.1445 133.3 59.7544 133.525 59.87C133.592 59.9048 133.637 59.971 133.67 60.0389C133.763 60.2297 133.744 60.4371 133.819 60.6245C133.916 60.8653 134.067 61.0929 134.177 61.3293C134.401 61.8106 134.589 62.308 134.74 62.8167C134.85 63.1911 134.941 63.5721 135.079 63.9375C135.247 64.3826 135.483 64.7407 135.839 65.052C136.495 65.6244 144.528 70.2293 144.528 70.2293L145.703 75.7558Z" fill="#FFA8A7"/>
<path d="M152.067 53.4879C150.587 53.8123 148.878 54.4803 147.953 56.5902C147.029 58.7004 143.964 69.6926 143.964 69.6926L140.201 67.698C140.201 67.698 138.546 69.2857 138.671 71.6116C138.671 71.6116 140.743 73.5937 142.399 74.6978C144.055 75.8018 145.752 76.4321 146.83 75.7036C147.909 74.9751 148.888 73.7378 150.558 69.5563C152.228 65.3749 153.97 60.4943 153.97 60.4943C153.97 60.4943 154.708 55.9638 152.067 53.4879Z" fill="#455A63"/>
</g>
</g>
<defs>
<clipPath id="clip0_726_618">
<rect width="181" height="180" fill="white"/>
</clipPath>
</defs>
</svg>
