<svg width="340" height="340" viewBox="0 0 340 340" fill="none" xmlns="http://www.w3.org/2000/svg">
<g clip-path="url(#clip0_726_1035)">
<mask id="mask0_726_1035" style="mask-type:luminance" maskUnits="userSpaceOnUse" x="0" y="0" width="340" height="340">
<path d="M340 0H0V340H340V0Z" fill="white"/>
</mask>
<g mask="url(#mask0_726_1035)">
<path d="M55.1765 75.5554C59.5081 71.1232 106.163 24.5894 151.496 37.2643C195.597 49.5944 188.466 103.982 250.58 137.137C279.301 152.468 294.096 147.923 308.609 167.138C325.968 190.123 328.503 228.008 311.372 254.379C302.811 267.558 291.972 273.807 277.962 281.664C270.534 285.83 234.413 305.355 178.735 304.908C149.057 304.669 114.813 304.394 80.0462 281.664C69.8846 275.021 35.1944 251.583 22.0174 205.824C9.0297 160.724 21.6658 109.845 55.1765 75.5554Z" fill="#F3F6FF"/>
<g opacity="0.999971">
<path d="M60.0808 281.666H277.962" stroke="#D2DCFF" stroke-width="2.16" stroke-miterlimit="10"/>
</g>
<path d="M175.469 98.8916H167.969H160.468H152.968H145.468" stroke="white" stroke-width="2.16" stroke-linecap="round" stroke-linejoin="round"/>
<path d="M175.469 106.392H167.969H160.468H152.968H145.468" stroke="white" stroke-width="2.16" stroke-linecap="round" stroke-linejoin="round"/>
<path d="M175.469 113.892H167.969H160.468H152.968H145.468" stroke="white" stroke-width="2.16" stroke-linecap="round" stroke-linejoin="round"/>
<path d="M145.468 121.393H152.968H160.468H167.969H175.469" stroke="white" stroke-width="2.16" stroke-linecap="round" stroke-linejoin="round"/>
<path d="M175.469 128.893H167.969H160.468H152.968H145.468" stroke="white" stroke-width="2.16" stroke-linecap="round" stroke-linejoin="round"/>
<path d="M145.468 98.8916V106.392V113.892V121.392V128.893" stroke="white" stroke-width="2.16" stroke-linecap="round" stroke-linejoin="round"/>
<path d="M152.969 98.8916V106.392V113.892V121.392V128.893" stroke="white" stroke-width="2.16" stroke-linecap="round" stroke-linejoin="round"/>
<path d="M160.469 98.8916V106.392V113.892V121.392V128.893" stroke="white" stroke-width="2.16" stroke-linecap="round" stroke-linejoin="round"/>
<path d="M167.969 98.8916V106.392V113.892V121.392V128.893" stroke="white" stroke-width="2.16" stroke-linecap="round" stroke-linejoin="round"/>
<path d="M175.469 98.8916V106.392V113.892V121.392V128.893" stroke="white" stroke-width="2.16" stroke-linecap="round" stroke-linejoin="round"/>
<mask id="mask1_726_1035" style="mask-type:luminance" maskUnits="userSpaceOnUse" x="110" y="77" width="17" height="18">
<path d="M110.16 77.5195H126.82V94.1795H110.16V77.5195Z" fill="white"/>
</mask>
<g mask="url(#mask1_726_1035)">
<path d="M118.426 77.5264C122.928 77.5264 126.583 81.2245 126.583 85.7792C126.583 90.3339 122.928 94.032 118.426 94.032C113.924 94.032 110.268 90.3339 110.268 85.7792C110.268 81.2245 113.924 77.5264 118.426 77.5264Z" fill="#D0DDFF"/>
<path d="M118.426 79.4355C121.886 79.4355 124.696 82.2782 124.696 85.7794C124.696 89.2806 121.886 92.1233 118.426 92.1233C114.965 92.1233 112.155 89.2806 112.155 85.7794C112.155 82.2782 114.965 79.4355 118.426 79.4355Z" fill="white"/>
<path d="M118.173 81.4665L118.452 81.4594C118.543 81.4571 118.619 81.5293 118.621 81.6204L118.722 85.595C118.725 85.6861 118.652 85.7621 118.561 85.7644L118.283 85.7715C118.192 85.7739 118.116 85.7017 118.113 85.6106L118.012 81.6359C118.01 81.5448 118.082 81.4688 118.173 81.4665Z" fill="#D0DDFF"/>
<path d="M114.965 85.93L114.963 85.6512C114.962 85.5601 115.036 85.4855 115.127 85.4849L118.255 85.465C118.346 85.4644 118.421 85.5381 118.421 85.6292L118.423 85.908C118.424 85.9991 118.35 86.0737 118.259 86.0743L115.131 86.0942C115.04 86.0948 114.965 86.0211 114.965 85.93Z" fill="#D0DDFF"/>
<path d="M119.336 85.7796C119.33 86.2845 118.916 86.6888 118.411 86.6827C117.906 86.6766 117.502 86.2628 117.508 85.7579C117.514 85.256 117.924 84.8525 118.426 84.8545C118.931 84.8565 119.338 85.2676 119.336 85.7725C119.336 85.7749 119.336 85.7773 119.336 85.7796Z" fill="#909EFF"/>
</g>
<mask id="mask2_726_1035" style="mask-type:luminance" maskUnits="userSpaceOnUse" x="247" y="243" width="38" height="39">
<path d="M247.52 243.439H284.92V281.859H247.52V243.439Z" fill="white"/>
</mask>
<g mask="url(#mask2_726_1035)">
<path d="M261.847 261.172C266.869 253.589 253.475 248.679 249.9 251.552C246.325 254.425 256.041 269.937 261.847 261.172Z" fill="#4ACDB9"/>
<path d="M264.632 268.348C263.681 265.502 262.163 262.797 260.12 260.307C256.647 256.072 252.798 253.896 252.759 253.875C252.645 253.811 252.5 253.852 252.436 253.966C252.372 254.081 252.413 254.226 252.528 254.29C252.566 254.311 256.347 256.451 259.764 260.622C261.766 263.066 263.253 265.72 264.185 268.51C264.29 268.826 264.386 269.145 264.478 269.465L264.985 269.508C264.877 269.119 264.761 268.732 264.632 268.348Z" fill="#38AF9B"/>
<path d="M266.037 259.068C274.561 258.333 269.389 243.419 265.745 243.733C261.176 244.127 256.188 259.916 266.037 259.068Z" fill="#4ACDB9"/>
<path d="M265.803 246.878C265.807 246.747 265.704 246.637 265.573 246.633C265.441 246.628 265.332 246.732 265.327 246.863C265.323 246.994 265.008 257.314 266.126 269.575L266.6 269.535C265.484 257.305 265.799 247.009 265.803 246.878Z" fill="#38AF9B"/>
<path d="M273.885 264.945C280.491 271.197 287.631 258.847 285.416 254.832C283.201 250.816 266.249 257.719 273.885 264.945Z" fill="#4ACDB9"/>
<path d="M282.919 256.369C282.854 256.254 282.709 256.214 282.595 256.279C282.559 256.299 278.965 258.345 275.161 261.868C273.089 263.786 270.703 266.388 268.863 269.508L269.393 269.548C271.186 266.568 273.479 264.074 275.476 262.224C279.24 258.737 282.793 256.713 282.829 256.693C282.943 256.628 282.983 256.483 282.919 256.369Z" fill="#38AF9B"/>
<path d="M266.599 269.509H266.123H264.985H264.476H257.84C257.585 269.509 257.403 269.758 257.483 270L257.902 271.286L258.114 271.936L261.147 281.241C261.229 281.494 261.465 281.664 261.73 281.664H272.662C272.927 281.664 273.163 281.494 273.245 281.241L276.279 271.936L276.49 271.286L276.91 270C276.989 269.758 276.808 269.509 276.553 269.509H269.395H268.863H266.599Z" fill="#D2DCFF"/>
<path d="M276.49 271.285L276.279 271.936H258.114L257.902 271.285H276.49Z" fill="#AEC3FF"/>
</g>
<mask id="mask3_726_1035" style="mask-type:luminance" maskUnits="userSpaceOnUse" x="57" y="101" width="37" height="35">
<path d="M57.46 101.319H93.5V135.319H57.46V101.319Z" fill="white"/>
</mask>
<g mask="url(#mask3_726_1035)">
<path d="M91.8339 135.156H59.5087C58.504 135.156 57.6897 134.342 57.6897 133.337V102.92C57.6897 102.158 58.3071 101.541 59.0687 101.541H91.8339C92.5955 101.541 93.2129 102.158 93.2129 102.92V133.777C93.2129 134.539 92.5955 135.156 91.8339 135.156Z" fill="#4ACDB9"/>
<path d="M75.4511 109.076C80.463 109.076 84.5323 113.145 84.5323 118.157C84.5323 123.169 80.463 127.239 75.4511 127.239C70.4392 127.239 66.3699 123.169 66.3699 118.157C66.3699 113.145 70.4392 109.076 75.4511 109.076Z" stroke="white" stroke-width="2.5" stroke-miterlimit="10"/>
<path d="M75.4509 109.076C77.9261 109.076 79.9355 113.146 79.9355 118.158C79.9355 123.169 77.9261 127.239 75.4509 127.239" stroke="white" stroke-width="2.5" stroke-miterlimit="10"/>
<path d="M75.4509 109.076C74.5839 109.076 73.8801 113.146 73.8801 118.158C73.8801 123.169 74.5839 127.239 75.4509 127.239" stroke="white" stroke-width="2.5" stroke-miterlimit="10"/>
<path d="M75.4509 109.076C71.2417 109.076 67.8281 113.146 67.8281 118.158C67.8281 123.169 71.2417 127.239 75.4509 127.239" stroke="white" stroke-width="2.5" stroke-miterlimit="10"/>
<path d="M83.7248 112.751H67.4048V113.899H83.7248V112.751Z" fill="white"/>
<path d="M84.8673 117.426H66.2625V118.574H84.8673V117.426Z" fill="white"/>
<path d="M83.2353 122.526H67.8945V123.674H83.2353V122.526Z" fill="white"/>
</g>
<path d="M123.897 223.4H164.325C167.083 223.4 169.066 220.701 168.285 218.01L148.978 151.46C148.46 149.674 146.849 148.448 145.019 148.448H104.591C101.833 148.448 99.8508 151.147 100.631 153.838L119.938 220.388C120.456 222.174 122.067 223.4 123.897 223.4Z" fill="#D2DCFF"/>
<path d="M129.46 223.4H164.675C167.432 223.4 169.414 220.701 168.634 218.01L149.327 151.46C148.809 149.674 147.198 148.448 145.368 148.448H110.154C107.396 148.448 105.414 151.147 106.194 153.838L125.501 220.388C126.019 222.174 127.631 223.4 129.46 223.4Z" fill="#E3EAFF"/>
<path d="M167.344 273.992V277.632H129.411V273.992H167.344Z" fill="#D2DCFF"/>
<path d="M163.923 276.901C163.61 278.791 164.887 280.577 166.777 280.89C168.667 281.204 170.452 279.926 170.766 278.036C171.079 276.146 169.802 274.361 167.912 274.047C166.022 273.734 164.237 275.012 163.923 276.901Z" fill="#D2DCFF"/>
<path d="M150.095 222.837V275.482H146.456V222.837H150.095Z" fill="#D2DCFF"/>
<path d="M125.99 276.901C125.676 278.791 126.954 280.577 128.844 280.89C130.734 281.204 132.519 279.926 132.833 278.036C133.146 276.146 131.869 274.361 129.979 274.047C128.089 273.734 126.303 275.012 125.99 276.901Z" fill="#D2DCFF"/>
<path d="M125.035 223.4H167.825C169.821 223.4 171.439 221.782 171.439 219.786C171.439 217.791 169.821 216.173 167.825 216.173H125.035C123.039 216.173 121.421 217.791 121.421 219.786C121.421 221.782 123.039 223.4 125.035 223.4Z" fill="#D2DCFF"/>
<mask id="mask4_726_1035" style="mask-type:luminance" maskUnits="userSpaceOnUse" x="100" y="119" width="117" height="163">
<path d="M100.3 119H216.24V281.86H100.3V119Z" fill="white"/>
</mask>
<g mask="url(#mask4_726_1035)">
<path d="M191.95 190.947C191.95 190.947 192.553 198.696 194.661 199.353C198.345 200.501 207.074 197.627 207.074 197.627C207.074 197.627 203.972 184.464 203.883 184.667C203.795 184.87 191.95 190.947 191.95 190.947Z" fill="#FFC7B3"/>
<path d="M191.95 190.947C192.583 190.666 197.215 184.384 198.999 182.098C199.429 181.547 200.29 181.52 200.807 182.042C201.144 182.382 201.511 183.032 201.148 183.699L198.417 189.36L191.95 190.947Z" fill="#FFC7B3"/>
<path d="M198.673 186.707L208.886 182.466C209.557 182.171 210.373 182.495 210.664 183.171C210.915 183.757 210.682 184.411 210.12 184.7L202.891 188.416L198.673 186.707Z" fill="#FFC7B3"/>
<path d="M204.409 188.071L212.485 186.207C213.184 186.032 213.921 186.456 214.11 187.141C214.274 187.735 213.968 188.335 213.389 188.557L204.74 191.727L204.409 188.071Z" fill="#FFC7B3"/>
<path d="M204.289 191.984L212.691 190.847C213.469 190.738 214.218 191.265 214.356 192.017C214.486 192.724 214.029 193.383 213.308 193.528L205.683 195.058L204.289 191.984Z" fill="#FFC7B3"/>
<path d="M207.073 197.626L212.58 197.464C213.171 197.36 213.556 196.831 213.46 196.254C213.369 195.701 212.866 195.281 212.287 195.273L205.683 195.058L207.073 197.626Z" fill="#FFC7B3"/>
<path d="M199.792 186.296C199.792 186.296 201.532 189.846 198.228 192.493" stroke="#CC9F8F" stroke-width="1.03" stroke-linecap="round" stroke-linejoin="round"/>
<path d="M192.374 190.588L188.384 191.749C188.384 191.749 184.303 193.591 185.684 197.314C187.19 201.369 191.108 199.665 191.108 199.665L195.606 198.586C195.606 198.586 199.227 196.972 198.096 193.404C196.685 188.954 192.374 190.588 192.374 190.588Z" fill="#FFC7B3"/>
<path d="M169.484 201.977C166.216 203.148 162.611 201.446 161.44 198.178C160.269 194.91 161.971 191.306 165.239 190.134C168.507 188.963 172.111 190.665 173.283 193.933C174.454 197.201 172.752 200.805 169.484 201.977Z" fill="#F57902"/>
<path d="M158.414 171.091C154.528 172.484 150.241 170.459 148.849 166.573C147.456 162.687 149.48 158.401 153.366 157.008C157.252 155.615 161.539 157.64 162.931 161.526C164.324 165.412 162.3 169.698 158.414 171.091Z" fill="#F57902"/>
<path d="M148.364 164.217C150.305 176.728 159.67 194.706 161.926 199.442C162.303 200.232 165.384 203.784 170.089 201.7C174.794 199.616 173.583 194.418 173.583 194.418C173.583 194.418 170.16 174.817 162.623 160.452C161.897 159.067 159.16 155.779 154.133 156.742C149.472 157.635 148.162 162.92 148.364 164.217Z" fill="#F57902"/>
<path d="M168.924 175.983C167.504 171.542 165.746 166.82 163.632 162.454" stroke="#C46102" stroke-width="1.1"/>
<path d="M173.65 195.94C173.714 199.411 170.947 202.281 167.477 202.344C164.006 202.408 161.136 199.641 161.072 196.171C161.009 192.7 163.775 189.83 167.246 189.767C170.717 189.703 173.587 192.469 173.65 195.94Z" fill="#F57902"/>
<path d="M167.158 189.592C166.049 189.758 162.714 191.104 162.803 196.293C162.878 200.67 166.024 202.561 167.472 202.508C175.821 202.203 189.872 201.807 189.872 201.807L189.664 189.653C189.664 189.653 176.352 188.211 167.158 189.592Z" fill="#F57902"/>
<path d="M189.664 189.654C189.664 189.654 181.776 188.798 173.95 189.035Z" fill="#F57902"/>
<path d="M189.664 189.654C189.664 189.654 181.776 188.798 173.95 189.035" stroke="#C46102" stroke-width="0.936791"/>
<path d="M186.794 267.937H197.874L216.197 278.089L184.691 277.7L186.794 267.937Z" fill="#FE5661"/>
<path d="M184.582 281.276L184.691 277.7L216.197 278.089L216.088 281.665L184.582 281.276Z" fill="white"/>
<path d="M205.531 271.676L201.902 272.703" stroke="white" stroke-width="2.087" stroke-linecap="round" stroke-linejoin="round"/>
<path d="M201.983 269.79L198.354 270.818" stroke="white" stroke-width="2.087" stroke-linecap="round" stroke-linejoin="round"/>
<path d="M199.67 252.707H188.377L186.794 267.937H198.087L199.67 252.707Z" fill="#FFC7B3"/>
<path d="M153.422 199.845C153.422 199.845 152.239 216.297 169.255 216.297C186.272 216.297 187.326 216.297 187.326 216.297L183.543 264.003H204.789L210.074 211.871C211.213 205.624 206.587 199.845 200.45 199.845H153.422Z" fill="#113456"/>
<path d="M156.585 267.544H167.664L185.988 277.696L154.482 277.307L156.585 267.544Z" fill="#FE5661"/>
<path d="M154.372 280.883L154.482 277.307L185.987 277.696L185.878 281.272L154.372 280.883Z" fill="white"/>
<path d="M175.322 271.283L171.692 272.311" stroke="white" stroke-width="2.087" stroke-linecap="round" stroke-linejoin="round"/>
<path d="M171.774 269.396L168.144 270.424" stroke="white" stroke-width="2.087" stroke-linecap="round" stroke-linejoin="round"/>
<path d="M172.241 252.314H160.948L156.584 267.544H167.878L172.241 252.314Z" fill="#FFC7B3"/>
<path d="M128.008 199.845C128.008 199.845 126.825 216.297 143.842 216.297C160.858 216.297 161.912 216.297 161.912 216.297L153.914 264.003H175.16L184.661 211.871C185.799 205.624 181.174 199.845 175.037 199.845H128.008Z" fill="#1A3D68"/>
<path d="M139.732 154.107L129.791 157.025C126.913 157.731 124.853 160.262 124.744 163.224L128.009 199.844H165.136L160.816 161.707C160.336 158.811 159.092 156.582 156.177 156.237L150.644 155.582L139.732 154.107Z" fill="#F57902"/>
<path d="M163.1 181.873L161.237 165.917" stroke="#C46102" stroke-width="1.104" stroke-linecap="round" stroke-linejoin="round"/>
<path d="M136.553 184.968C141.634 184.896 149.804 186.103 152.354 194.144H137.275C137.275 194.144 132.77 194.48 131.865 190.852C130.961 187.224 134.076 185.003 136.553 184.968Z" fill="#FFC7B3"/>
<path d="M102.521 192.382C100.116 189.878 100.197 185.893 102.701 183.489C105.204 181.084 109.19 181.165 111.594 183.668C113.999 186.172 113.918 190.157 111.414 192.562C108.911 194.967 104.925 194.886 102.521 192.382Z" fill="#F57902"/>
<path d="M126.185 169.656C123.326 166.678 123.421 161.939 126.399 159.08C129.376 156.22 134.115 156.316 136.975 159.293C139.834 162.271 139.739 167.01 136.761 169.87C133.784 172.729 129.045 172.633 126.185 169.656Z" fill="#F57902"/>
<path d="M128.35 157.675C117.725 164.56 105.145 180.455 101.745 184.45C101.178 185.116 99.1949 189.38 103.02 192.822C106.845 196.265 111.095 193.035 111.095 193.035C111.095 193.035 127.585 181.9 137.615 169.15C138.582 167.921 140.463 164.079 137.53 159.885C134.81 155.996 129.452 156.961 128.35 157.675Z" fill="#F57902"/>
<path d="M126.015 181.248C129.488 178.137 133.079 174.603 136.199 170.89" stroke="#C46102" stroke-width="1.1"/>
<path d="M113.348 188.016C113.353 191.487 110.539 194.31 107.067 194.315C103.596 194.321 100.773 191.507 100.768 188.035C100.762 184.564 103.576 181.741 107.048 181.735C110.519 181.73 113.342 184.544 113.348 188.016Z" fill="#F57902"/>
<path d="M106.93 181.559C105.398 181.708 100.768 183 100.768 188.189C100.768 192.567 105.061 194.509 107.058 194.479C118.575 194.309 137.955 194.139 137.955 194.139V181.984C137.955 181.984 119.638 180.327 106.93 181.559Z" fill="#F57902"/>
<path d="M137.955 181.984C137.955 181.984 127.101 181.002 116.306 181.112Z" fill="#F57902"/>
<path d="M137.955 181.984C137.955 181.984 127.101 181.002 116.306 181.112" stroke="#C46102" stroke-width="1.1"/>
<path d="M151.427 146.061L150.644 155.583L149.383 162.387L139.732 154.108L144.095 137.804L151.427 146.061Z" fill="#FFC7B3"/>
<g opacity="0.2">
<path d="M150.886 152.647L144.169 145.232L151.427 146.061L150.886 152.647Z" fill="#1D0300"/>
</g>
<path d="M138.271 137.804C138.271 137.804 138.646 144.181 143.497 142.894L144.782 141.401L138.271 137.804Z" fill="black"/>
<path d="M155.638 137.645C155.835 139.407 157.422 140.675 159.184 140.479C160.946 140.282 162.215 138.695 162.018 136.933C161.822 135.171 160.234 133.903 158.472 134.099C156.711 134.296 155.442 135.883 155.638 137.645Z" fill="#F2B7A5"/>
<path d="M154.925 122.405C158.499 123.047 160.938 126.4 160.842 130.029C160.731 134.209 160.324 141.003 158.865 143.575C156.693 147.403 152.817 149.376 147.546 147.382C147.546 147.382 141.267 145.969 141.452 136.581C141.653 126.422 148.928 121.327 154.925 122.405Z" fill="#FFC7B3"/>
<path d="M144.386 136.26L145.559 131.574C145.559 131.574 146.451 122.404 149.466 122.263C149.466 122.263 150.757 120.632 145.782 121.419C140.807 122.205 136.174 125.05 140.142 134.451L144.386 136.26Z" fill="black"/>
<path d="M158.378 136.852C158.437 137.253 158.809 137.531 159.211 137.473C159.612 137.414 159.89 137.041 159.831 136.64C159.773 136.238 159.4 135.961 158.999 136.02C158.597 136.078 158.32 136.451 158.378 136.852Z" fill="#101010"/>
<path d="M151.977 136.265C152.036 136.667 152.409 136.944 152.81 136.886C153.211 136.827 153.489 136.454 153.43 136.053C153.372 135.652 152.999 135.374 152.598 135.433C152.197 135.491 151.919 135.864 151.977 136.265Z" fill="#101010"/>
<path d="M156.998 137.289L157.425 139.379C157.476 139.631 157.304 139.874 157.05 139.91L156.031 139.79" stroke="#1D0300" stroke-width="1.104" stroke-linecap="round" stroke-linejoin="round"/>
<path d="M155.618 132.572L149.823 133.13C149.823 133.13 150.523 131.565 152.534 131.381C154.544 131.197 155.618 132.572 155.618 132.572Z" fill="black"/>
<path d="M158.071 132.648L161.097 133.453C161.097 133.453 161.002 132.164 159.95 131.892C158.899 131.621 158.071 132.648 158.071 132.648Z" fill="black"/>
<path d="M152.094 140.546C152.094 140.546 153.036 142.337 155.404 141.86" stroke="#1D0300" stroke-width="1.104" stroke-linecap="round" stroke-linejoin="round"/>
<path d="M143.861 134.946C143.861 134.946 147.666 130.947 147.078 128.144C146.596 125.853 148.568 125.981 149.633 126.269C150.487 126.5 151.346 126.7 152.223 126.817C154.323 127.097 157.771 127.422 160.124 126.948C160.124 126.948 161.109 126.24 159.748 123.32C158.387 120.401 155.462 119.161 149.617 119.161C144.782 119.161 141.855 119.641 139.088 121.636C137.12 123.055 133.129 128.516 137.955 136.65L143.861 134.946Z" fill="black"/>
<path d="M137.388 137.041C137.604 138.973 139.345 140.365 141.277 140.149C143.21 139.934 144.601 138.192 144.386 136.26C144.17 134.328 142.429 132.936 140.497 133.152C138.565 133.367 137.173 135.109 137.388 137.041Z" fill="#FFC7B3"/>
<path d="M139.513 135.35C139.513 135.35 142.186 135.091 142.344 138.009" stroke="#1D0300" stroke-width="0.998" stroke-linecap="round" stroke-linejoin="round"/>
</g>
<path d="M171.697 194.13H197.293V191.242H171.697C170.9 191.242 170.253 191.889 170.253 192.686C170.253 193.483 170.9 194.13 171.697 194.13Z" fill="#090B0C"/>
<path d="M194 201.125H228.858C230.812 201.125 232.526 199.823 233.05 197.941L240.298 171.901C240.564 170.946 239.846 170 238.854 170H203.561C202.749 170 202.038 170.547 201.832 171.333L194 201.125Z" fill="#3B5058"/>
<path d="M215.776 178.645C215.776 180.13 216.979 181.333 218.464 181.333C219.948 181.333 221.152 180.13 221.152 178.645C221.152 177.161 219.948 175.957 218.464 175.957C216.979 175.957 215.776 177.161 215.776 178.645Z" fill="#7C949B"/>
<path d="M263.004 194.13V199.844H79.8562V194.13H263.004Z" fill="#D2DCFF"/>
<path d="M108.514 199.844V281.271" stroke="#D2DCFF" stroke-width="5.399" stroke-miterlimit="10"/>
<path d="M237.634 199.844V281.271" stroke="#D2DCFF" stroke-width="5.399" stroke-miterlimit="10"/>
<path d="M269.54 129.972H211.987C211.122 129.972 210.421 129.271 210.421 128.407V90.2283C210.421 89.364 211.122 88.6631 211.987 88.6631H269.54C270.404 88.6631 271.105 89.364 271.105 90.2283V128.407C271.105 129.271 270.404 129.972 269.54 129.972Z" fill="#E3EAFF"/>
<path d="M271.207 93.6468H210.421V90.2283C210.421 89.364 211.122 88.6631 211.987 88.6631H269.642C270.506 88.6631 271.207 89.364 271.207 90.2283V93.6468Z" fill="#909EFF"/>
<path d="M268.082 90.0508C268.691 90.0508 269.185 90.5454 269.185 91.1546C269.185 91.7638 268.691 92.2584 268.082 92.2584C267.472 92.2584 266.978 91.7638 266.978 91.1546C266.978 90.5454 267.472 90.0508 268.082 90.0508Z" fill="#F3F6FF"/>
<path d="M264.225 90.0508C264.834 90.0508 265.328 90.5454 265.328 91.1546C265.328 91.7638 264.834 92.2584 264.225 92.2584C263.615 92.2584 263.121 91.7638 263.121 91.1546C263.121 90.5454 263.615 90.0508 264.225 90.0508Z" fill="#F3F6FF"/>
<path d="M260.368 90.0508C260.977 90.0508 261.472 90.5454 261.472 91.1546C261.472 91.7638 260.977 92.2584 260.368 92.2584C259.759 92.2584 259.264 91.7638 259.264 91.1546C259.264 90.5454 259.759 90.0508 260.368 90.0508Z" fill="#F3F6FF"/>
<mask id="mask5_726_1035" style="mask-type:alpha" maskUnits="userSpaceOnUse" x="210" y="88" width="62" height="42">
<path d="M269.54 129.972H211.987C211.122 129.972 210.421 129.271 210.421 128.407V90.2283C210.421 89.364 211.122 88.6631 211.987 88.6631H269.54C270.404 88.6631 271.105 89.364 271.105 90.2283V128.407C271.105 129.271 270.404 129.972 269.54 129.972Z" fill="#FF0000"/>
</mask>
<g mask="url(#mask5_726_1035)">
<mask id="mask6_726_1035" style="mask-type:luminance" maskUnits="userSpaceOnUse" x="203" y="85" width="71" height="69">
<path d="M203.601 85.1182H273.723V153.049H203.601V85.1182Z" fill="white"/>
</mask>
<g mask="url(#mask6_726_1035)">
<path d="M230.871 114.404C233.673 111.566 253.207 111.879 255.458 113.922C258.139 116.355 259.115 131.478 257.644 136.997C249.336 138.26 223.882 138.834 223.3 136.758C223.068 135.932 229.711 115.578 230.871 114.404Z" fill="white"/>
<path d="M252.217 108.629C251.892 110.624 249.625 111.178 250.904 113.199C251.499 114.138 251.933 115.321 251.607 116.385C251.36 117.189 250.623 117.757 250.317 118.541C249.832 119.785 250.487 121.405 249.605 122.408C249.075 123.01 248.193 123.122 247.394 123.193C244.013 123.494 240.632 123.796 237.251 124.097C236.067 124.203 234.842 124.304 233.716 123.921C232.59 123.539 231.584 122.535 231.593 121.346C231.607 119.187 234.698 117.907 234.5 115.757C234.372 114.378 232.861 113.159 233.374 111.872C233.673 111.122 234.56 110.758 234.928 110.039C235.415 109.086 234.828 107.961 234.743 106.895C234.593 105.004 235.673 102.909 237.565 103.054C237.807 100.168 241.52 99.5819 242.858 100.192C242.858 100.192 247.764 98.5739 249.378 103.19C249.71 104.141 252.769 105.247 252.217 108.629Z" fill="#0C063F"/>
<path d="M233.161 126.217C231.211 125.513 230.199 123.358 230.903 121.408C231.607 119.458 233.761 118.446 235.711 119.15C237.662 119.854 238.673 122.009 237.97 123.959C237.266 125.909 235.111 126.921 233.161 126.217Z" fill="#FFC2BC"/>
<path d="M230.949 121.326C229.506 126.156 229.794 130.482 227.235 135.913C226.775 136.889 227.483 138.374 228.45 138.872C229.721 139.528 230.957 138.307 231.102 138.111C234.282 133.831 236.748 128.716 238.006 123.535C238.409 121.874 237.561 119.762 235.711 119.185C233.715 118.563 231.465 119.599 230.949 121.326Z" fill="#FFC2BD"/>
<path d="M247.705 119.284C248.692 119.589 250.489 120.529 251.901 121.388C252.534 121.773 249.967 132.633 249.252 134.379C246.819 140.317 234.315 137.617 232.634 133.651C232.564 133.487 232.371 129.844 233.2 126.862C233.344 126.344 233.897 121.275 232.845 119.286C233.158 119.039 235.411 118.315 236.46 118.161C236.46 118.161 240.073 120.235 241.531 120.318C243.378 120.424 247.705 119.284 247.705 119.284Z" fill="#FF4C4A"/>
<path d="M245.822 118.522C246.376 118.715 247.705 119.283 247.705 119.283C247.629 119.587 241.777 124.585 240.398 123.775C238.996 122.952 236.091 118.522 236.46 118.161C236.46 118.161 237.92 118.338 238.698 117.668C239.074 117.344 239.194 112.993 239.423 112.808C239.645 112.629 244.338 112.011 245.724 112.362C245.249 115.468 245.335 118.721 245.822 118.522Z" fill="#FFC2BD"/>
<g opacity="0.5">
<path d="M238.698 117.668C239.074 117.344 239.194 112.993 239.423 112.808C239.645 112.629 244.338 112.011 245.725 112.362C245.249 115.468 245.335 118.721 245.823 118.522C245.909 118.552 241.01 120.296 238.698 117.668Z" fill="#FF7A7A"/>
</g>
<path d="M247.324 111.737C246.302 113.201 245.82 113.952 244.025 115.201C242.559 116.22 239.895 116.613 238.739 115.253C238.232 114.657 237.648 113.223 237.444 112.469C236.78 110.005 237.08 107.261 238.167 105.171C239.345 102.907 242.245 101.848 244.792 102.007C245.783 102.068 246.828 102.378 247.447 103.156C249.242 105.414 248.805 109.613 247.324 111.737Z" fill="#FFC2BD"/>
<path d="M242.49 105.058C241.639 105.754 240.471 106.696 238.779 106.083C237.926 105.774 237.155 109.602 236.428 109.058C234.384 107.532 237.093 103.873 238.1 103.572C238.731 103.383 241.243 100.949 245.136 101.665C250.302 102.615 251.558 108.157 249.834 109.008C249.091 109.374 248.576 111.165 247.988 110.476C246.725 108.996 246.303 106.76 246.266 106.096C245.156 106.831 242.384 107.158 242.49 105.058Z" fill="#0C063F"/>
<path d="M256.61 131.141C256.611 133.601 252.136 132.592 251.803 132.291C251.592 132.101 249.401 128.983 249.314 128.713C248.713 126.851 248.007 120.319 250.932 121.104C254.251 121.994 256.609 128.907 256.61 131.141Z" fill="#FFC2BD"/>
<path d="M247.705 109.609C247.985 109.421 248.922 108.705 249.042 110.013C249.13 110.962 248.763 111.596 248.172 112.343C248.017 112.539 247.842 112.748 247.597 112.798C247.358 112.847 247.107 112.721 246.957 112.529C246.807 112.337 246.589 111.727 246.571 111.484C246.528 110.923 247.426 109.798 247.705 109.609Z" fill="#FFC2BD"/>
<path d="M240.85 111.833C240.921 111.834 240.993 111.825 241.063 111.805C241.104 111.794 241.128 111.751 241.116 111.71C241.105 111.669 241.062 111.645 241.021 111.657C240.798 111.719 240.593 111.64 240.489 111.534C240.441 111.485 240.367 111.382 240.408 111.244C240.441 111.134 240.584 110.956 240.737 110.767C241.024 110.41 241.35 110.005 241.287 109.671C241.279 109.629 241.237 109.602 241.197 109.61C241.155 109.618 241.128 109.658 241.136 109.7C241.185 109.964 240.87 110.356 240.617 110.67C240.448 110.88 240.302 111.061 240.261 111.199C240.214 111.356 240.257 111.517 240.379 111.642C240.498 111.763 240.67 111.831 240.85 111.833Z" fill="#FF7A7A"/>
<path d="M240.831 107.531C240.828 107.476 240.804 107.424 240.763 107.388C240.242 106.92 239.544 106.817 238.686 107.082C238.577 107.116 238.515 107.232 238.549 107.342C238.573 107.417 238.636 107.472 238.714 107.485C238.745 107.49 238.778 107.488 238.809 107.479C239.527 107.257 240.075 107.328 240.485 107.696C240.526 107.733 240.579 107.753 240.635 107.749C240.691 107.747 240.742 107.722 240.779 107.681C240.816 107.64 240.835 107.586 240.831 107.531Z" fill="#0C063F"/>
<path d="M243.101 107.971C243.885 107.733 244.676 107.971 245.452 108.676C245.551 108.766 245.558 108.92 245.469 109.019C245.432 109.06 245.382 109.087 245.327 109.096C245.254 109.107 245.18 109.086 245.126 109.036C244.476 108.446 243.86 108.249 243.243 108.435C243.181 108.455 243.115 108.448 243.058 108.418C243 108.387 242.958 108.336 242.939 108.274C242.92 108.212 242.927 108.146 242.958 108.089C242.988 108.031 243.039 107.99 243.101 107.971Z" fill="#0C063F"/>
<g opacity="0.6">
<path d="M242.415 113.158C242.415 113.158 241.635 112.632 241.348 112.601C241.145 112.579 241.003 112.802 240.843 112.761C240.75 112.737 240.602 112.439 240.422 112.404C240.243 112.369 239.322 112.536 239.322 112.536C239.322 112.536 239.336 114.162 240.594 114.406C241.852 114.65 242.415 113.158 242.415 113.158Z" fill="#FF7A7A"/>
</g>
<path d="M240.632 113.797C241.235 113.904 242.009 113.59 242.573 113.175C242.612 113.146 242.639 113.106 242.621 113.061C242.603 113.017 242.552 112.996 242.507 113.014C241.552 113.406 239.982 113.111 239.397 112.43C239.366 112.393 239.311 112.389 239.275 112.42C239.238 112.452 239.247 112.499 239.265 112.543C239.529 113.183 239.993 113.684 240.632 113.797Z" fill="white"/>
<path d="M239.38 108.372C239.111 108.325 238.843 108.564 238.782 108.906C238.722 109.248 238.892 109.564 239.161 109.612C239.431 109.659 239.699 109.42 239.76 109.078C239.82 108.737 239.65 108.42 239.38 108.372Z" fill="#0C063F"/>
<path d="M243.773 109.324C243.504 109.277 243.235 109.516 243.175 109.858C243.115 110.2 243.285 110.516 243.554 110.564C243.824 110.612 244.092 110.372 244.152 110.031C244.213 109.689 244.043 109.372 243.773 109.324Z" fill="#0C063F"/>
<path d="M244.617 110.101C244.604 110.028 244.239 110.133 243.928 109.897L243.79 110.291C243.79 110.291 244 110.38 244.229 110.341C244.412 110.309 244.627 110.155 244.617 110.101Z" fill="#0C063F"/>
<path d="M238.354 108.47C238.407 108.419 238.641 108.718 239.031 108.71L238.911 109.11C238.911 109.11 238.689 109.059 238.527 108.892C238.397 108.759 238.314 108.508 238.354 108.47Z" fill="#0C063F"/>
<g opacity="0.3">
<path d="M247.252 110.888C247.034 111.333 247.061 111.794 247.312 111.916C247.562 112.038 247.941 111.776 248.158 111.331C248.376 110.886 248.349 110.426 248.099 110.303C247.848 110.181 247.469 110.443 247.252 110.888Z" fill="#FF7A7A"/>
</g>
<g opacity="0.3">
<path d="M243.107 111.865C243.013 112.363 243.439 112.86 244.057 112.976C244.675 113.092 245.251 112.782 245.344 112.284C245.438 111.786 245.244 111.248 244.626 111.133C244.008 111.017 243.2 111.367 243.107 111.865Z" fill="#FF7A7A"/>
</g>
<g opacity="0.3">
<path d="M239.231 110.842C239.102 111.331 238.504 111.598 237.896 111.437C237.289 111.277 236.901 110.75 237.03 110.26C237.159 109.771 237.564 109.367 238.172 109.528C238.78 109.689 239.36 110.352 239.231 110.842Z" fill="#FF7A7A"/>
</g>
<path d="M241.242 111.312C241.225 111.41 241.077 111.466 240.912 111.437C240.748 111.408 240.628 111.305 240.645 111.207C240.663 111.11 240.81 111.054 240.975 111.083C241.14 111.112 241.259 111.215 241.242 111.312Z" fill="white"/>
</g>
</g>
</g>
</g>
<defs>
<clipPath id="clip0_726_1035">
<rect width="340" height="340" fill="white"/>
</clipPath>
</defs>
</svg>
